<svg xmlns="http://www.w3.org/2000/svg" width="176.891" height="148.869" viewBox="0 0 176.891 148.869"><defs><style>.a{fill:#fdf4ed;}.b{fill:#ffcb57;}.c{fill:#003242;}.d{fill:#1e3340;}.e{fill:#ffe8bb;}.f{fill:#38ab01;}.g{fill:#a3a8bf;}.h{fill:#fd5e5a;}.i{fill:#fc7575;}.j{fill:#2d1e66;}.k{fill:#f0e6a6;}.l{fill:#590209;}.m{fill:#111f59;}.n{fill:#c2cef9;}.o{fill:#6265a8;}.p{fill:#2846a6;}.q{fill:#172866;}.r{fill:#a1b2e2;}.s{fill:#eaf6f9;}.t{fill:#260101;}.u{fill:#c5c6fe;}.v{fill:#e3e4ff;}.w{fill:#0f1d5b;}.x{fill:#8c0303;}.y{fill:#f2a97e;}.z{fill:#400106;}.aa{fill:#757ad8;}</style></defs><g transform="translate(-1068.366 -205.73)"><g transform="translate(1069.682 211.314)"><path class="a" d="M1192.586,238.451s-33.955-20.954-54.295-.809-31.241,37.166-49.327,48.372-23.741,49.74,4.4,54.564,7.669-17.811,58.983-13.552,90.1-39.168,82.268-59.749S1192.586,238.451,1192.586,238.451Z" transform="translate(-1073.825 -228.894)"/><path class="a" d="M1090.155,729.326c9.014,6.017,18.984.734,24.15-7.741,2.475-4.059-.545-5.345-4.419-5.409-7.993-.131-15.026-2.35-22.838-3-5.192-.435-10.065,2.829-6.818,7.927C1082.494,724.653,1086.732,727.041,1090.155,729.326Z" transform="translate(-1077.891 -596.393)"/></g><g transform="translate(1068.366 350.248)"><path class="a" d="M1234.037,807.367c0,1.2-37.087,2.175-82.835,2.175s-82.835-.974-82.835-2.175,37.087-2.176,82.835-2.176S1234.037,806.165,1234.037,807.367Z" transform="translate(-1068.366 -805.191)"/></g><g transform="translate(1176.222 253.147)"><g transform="translate(0)"><path class="b" d="M1546.752,562.008c-.973-2.811-3.135-14.594-7.243-14.594s-2.811,2.811-4.325,2.811-2.27-5.081-4.973-5.73-1.189,2.054-2.919,2.054-5.081-4.2-9.838-2.155,1.835,7.333,3.027,8.526-2.595,1.413-2.595,3.034,10.054.432,10.054,1.946-4.108,3.027.108,4.108S1546.752,562.008,1546.752,562.008Z" transform="translate(-1515.752 -509.74)"/><path class="b" d="M1529.594,403.227s-3.568,4.108-.757,8.324,8.216,4.757,7.459,6.811-8.27.486-5.189,3.567,7.892-.108,7.892,2.594-6,2.108-2.054,6.054,11.783.432,11.783,3.784-3.243,2.994.487,5.821,7.621,4.773,10.648,4.016,3.135-13.621.648-18.27-2.7-1.081-4.648-.108-.541-7.892-2.162-10.811-2.486-.324-4.865.865.109-7.459-3.135-8.757-1.729,4.648-4.108,3.243S1535.215,399.659,1529.594,403.227Z" transform="translate(-1524.864 -402.417)"/><path class="a" d="M1681.11,549.444c0-1.189,1.838-13.189,3.784-13.189s.216,3.351,2.054,3.351,5.081-8,7.783-7.46,0,4.108,1.946,4.108,4.973-4.135,9.513-4.135,6.7,8.891-1.081,9.648-1.081.142,0,2.5-6.27,3.875-8.324,3.875,2.216,2.216.757,3.676S1681.11,549.444,1681.11,549.444Z" transform="translate(-1641.246 -500.852)"/><g transform="translate(8.396 7.157)"><path class="c" d="M1583.994,486.836a.433.433,0,0,1-.43-.391c-1.7-17.688-5.982-21-14.919-33.4-9.406-12.084-18.065-20.675-18.065-20.914s2.183,1,2.6,1.433c7.432,7.72,16.34,19.205,16.4,19.279,10.363,13.305,13.4,18.5,14.841,33.516a.434.434,0,0,1-.389.472Z" transform="translate(-1550.581 -432.103)"/></g><g transform="translate(7.501 39.549)"><path class="c" d="M1576.46,584.175c-6.167-6.167-29.808-17.808-29.594-17.709.975.439,23.927,10.819,30.205,17.1A.432.432,0,0,1,1576.46,584.175Z" transform="translate(-1546.865 -566.465)"/></g><g transform="translate(36.748 36.929)"><path class="c" d="M1668.418,579.48c-.055-.207-1.291-5.151,2.5-12.418,3.8-7.291,19.817-11.3,20.5-11.462.236-.059-16.108,4.917-19.729,11.863-4.451,8.536-1.559,12.019-2.737,12.326A.431.431,0,0,1,1668.418,579.48Z" transform="translate(-1668.182 -555.6)"/></g><g transform="translate(23.798 53.152)"><path class="c" d="M1622.653,627.4c-1.61-2.76-5.819-5.072-7.119-2.649-1.374,2.562,3.41,1.949,2.106.645a.432.432,0,0,1,.611-.612c1.186,1.186.165,2.477-1.514,2.6-3.6.284-2.807-5.286,1.566-4.4,3.119.639,5.017,3.836,5.1,3.972A.433.433,0,0,1,1622.653,627.4Z" transform="translate(-1614.467 -622.89)"/></g><g transform="translate(41.731 47.751)"><path class="c" d="M1688.877,609.329c-.015-5.418-.271-6.886,1.222-8.238a2.141,2.141,0,0,1,1.8-.572,2.561,2.561,0,0,1,1.748,2.008c0,.948-1.332,1.349-1.467.667a.432.432,0,0,1,.339-.508c.263-.052.263-.129.263-.159,0-.367-.958-1.833-2.1-.795-1.115,1.011-.953,1.924-.938,7.6C1689.742,609.568,1688.877,609.9,1688.877,609.329Z" transform="translate(-1688.851 -600.488)"/></g><path class="d" d="M1647.937,645.508h-11.564l-3.243-8.119h17.945Z" transform="translate(-1604.833 -580.742)"/></g><rect class="b" width="26.392" height="32.335" transform="translate(25.32 64.766)"/><rect class="b" width="4.019" height="2.176" transform="translate(26.035 97.101)"/><rect class="b" width="4.019" height="2.176" transform="translate(47.097 97.101)"/><g transform="translate(29.132 66.423)"><path class="e" d="M1656.158,686.424h-19.232a.335.335,0,0,1,0-.67h18.562v-7.48a.335.335,0,0,1,.67,0Z" transform="translate(-1636.591 -677.94)"/></g><path class="e" d="M1670.12,685.391a.969.969,0,1,1-.969-.968A.969.969,0,0,1,1670.12,685.391Z" transform="translate(-1631.435 -616.437)"/><g transform="translate(29.132 77.813)"><path class="e" d="M1656.158,733.67h-19.232a.335.335,0,1,1,0-.669h18.562v-7.48a.335.335,0,0,1,.67,0Z" transform="translate(-1636.591 -725.185)"/></g><path class="e" d="M1670.12,732.637a.969.969,0,1,1-.969-.968A.969.969,0,0,1,1670.12,732.637Z" transform="translate(-1631.435 -652.293)"/></g><path class="f" d="M1404.176,554.146h-.046A.05.05,0,0,0,1404.176,554.146Z" transform="translate(-254.818 -264.42)"/><g transform="translate(1208.175 211.8)"><g transform="translate(0 0)"><path class="c" d="M1662.584,259.488a14.289,14.289,0,1,1,14.29-14.289A14.306,14.306,0,0,1,1662.584,259.488Zm0-27.062a12.772,12.772,0,1,0,12.772,12.772A12.786,12.786,0,0,0,1662.584,232.426Z" transform="translate(-1648.294 -230.909)"/></g><g transform="translate(3.618 3.759)"><path class="c" d="M1674.418,257.556h-10.672a.446.446,0,0,1,0-.893h9.779v-9.714a.447.447,0,0,1,.893,0Z" transform="translate(-1663.3 -246.503)"/></g></g><g transform="translate(1108.68 211.596)"><path class="g" d="M1333.711,433.25c-4.425.77-9.683-2.123-9.683-2.123s-2.789,4.721-1.411,6.1c1.055,1.054,6.682.308,11.222-.541.117-1.168.233-2.336.24-3.5C1333.957,433.205,1333.84,433.229,1333.711,433.25Z" transform="translate(-1301.346 -382.654)"/><path class="h" d="M1272.588,449.681a1.515,1.515,0,0,1,.059.323c0,1.368-3.933,6.669-5.643,13.337s.769,32.489.769,32.489-2.822,5.729-2.822,9.405,2.437,24.751,2.437,24.751l-1.283,1.667a15.23,15.23,0,0,1,1.838,1.966c.439.632,3.445,3.372,3.46,2.816.014-.483-2.377-4.478-2.477-5.937-.069-1.014.684-27.188,2.821-30.437s2.693-10.986,2.693-13.637c0-2.428,6.058-30.88,7.076-35.644Z" transform="translate(-1257.873 -396.735)"/><path class="i" d="M1264.526,451.02l1.667.085a66.489,66.489,0,0,1,1.2,9.319c0,3.249-2.864,37.875-2.864,37.875s-16.415,29.411-16.758,31.634-1.026,3.335-1.026,4.7v1.112s.993,1.25.352,1.25-1.843-2.18-1.843-2.18a3.7,3.7,0,0,0,0-2.581c-.471-1.71-.689-3.01-.689-3.01a2.546,2.546,0,0,0,1.666-.918c.941-.94,2.394-14.877,5.044-20.776s7.182-10.687,7.866-10.687c0,0-2.137-23.939-2.137-24.88S1264.526,451.02,1264.526,451.02Z" transform="translate(-1242.4 -397.751)"/><path d="M1238.007,775.349s-.416-.176-.9.586a37.727,37.727,0,0,0-1.522,4.977l.319.153s1.538-3.539,2.083-2.735-.081,3.058-.081,3.058a8.029,8.029,0,0,0,2.594,2.559c1.847,1.19-.128-1.86-.128-1.86l-1.63-1.493a17.059,17.059,0,0,0,.139-3.934C1238.635,775.532,1238.007,775.349,1238.007,775.349Z" transform="translate(-1235.589 -643.877)"/><path d="M1269.661,787.566s-.45.049-.5.949a37.745,37.745,0,0,0,1.1,5.087l.353-.022s-.385-3.839.484-3.4,1.422,3.21,1.422,3.21a21.646,21.646,0,0,0,3.513.466c2.192.137-1.019-1.562-1.019-1.562l-2.151-.508a17.039,17.039,0,0,0-1.8-3.5C1270.3,787.419,1269.661,787.566,1269.661,787.566Z" transform="translate(-1261.069 -653.155)"/><rect class="j" width="11.232" height="16.264" transform="translate(34.584 38.729) rotate(24.999)"/><rect class="k" width="14.513" height="9.481" transform="translate(43.6 43.899) rotate(114.996)"/><path class="l" d="M1277.035,449.681s-5.686,10.251-6.058,13.9,0,32.673,0,32.673l13.47,1.032s3.183-35.512,3.183-38.813a33.643,33.643,0,0,0-1.429-7.924Z" transform="translate(-1262.32 -396.735)"/><g transform="translate(6.673 0)"><path class="m" d="M1289.31,290.357c-.09,1.753-.645,4.1-2.374,4.4l-.042-.444C1288.415,294.151,1289.1,291.873,1289.31,290.357Z" transform="translate(-1281.199 -275.821)"/><g transform="translate(6.091 22.756)"><path class="n" d="M1301.483,340.186s1.77-3.324,1.77-5.35c0-1.866-3.756-6.062-5.743-9.414-2.134-.6-2.968-1.122-6.1-.929a4.349,4.349,0,0,0-2.636,2.467s1.6,6.174,2.953,9.66c1.088,2.793-1.828,11.854-3.065,15.385a2.274,2.274,0,0,0,1.079,2.757c2.248,1.2,5.6,1.168,8.923,1.244a2.273,2.273,0,0,0,2.32-2.217C1301.277,342.448,1301.483,340.186,1301.483,340.186Z" transform="translate(-1288.537 -324.452)"/></g><g transform="translate(5.87 34.923)"><path class="o" d="M1291.033,374.921c1.073,2.105-.13,7.212-.742,9.483-1.431,5.064-2.2,5.838-2.229,6.72a2.233,2.233,0,0,0,.986,1.94,2.326,2.326,0,0,1-1.424-1.925C1287.451,389.776,1291.784,378.265,1291.033,374.921Z" transform="translate(-1287.619 -374.921)"/></g><path class="i" d="M1295.937,290.09s.778,7.715,1.846,9.254c.667.961,4.221,4.6,5.477,4.33.756-.164-2.75-12.942-2.75-12.942Z" transform="translate(-1288.062 -275.618)"/><path class="h" d="M1301.238,293.461c-.417-1.6-.728-2.73-.728-2.73l-.5-.07-4.073-.571h0a24.917,24.917,0,0,0,3.281,2.874A5.791,5.791,0,0,0,1301.238,293.461Z" transform="translate(-1288.062 -275.618)"/><path class="p" d="M1269.264,234.188s.9-2.565-.6-3.634-4.446-.513-5.13,2.779-.117,5.472,2.506,4.531A5.4,5.4,0,0,0,1269.264,234.188Z" transform="translate(-1263.27 -230.061)"/><path class="i" d="M1287.194,241.491s1.859-.192,2.437,2.308.417,4.1.77,4.456a4.381,4.381,0,0,0,1.122.673,1.033,1.033,0,0,1-.465.705,1.054,1.054,0,0,0-.5.834c0,.144.3.144.3.4s-.369.689-.369.689a.881.881,0,0,1,.272.513c0,.256-.433.609-.433.609s-.064.93-.064,1.443-1.859,1.763-4.392.737-9.651-2.565-6.893-8.144A8.97,8.97,0,0,1,1287.194,241.491Z" transform="translate(-1274.723 -238.732)"/><path class="m" d="M1280.941,248.875c.128.128-1.644,1.153-1.036,3.184s-2.674.62-3.811-.961-1.907-5.293-.753-7.157,1.2-1.393,2.308-2.932,6.935-2.339,8.039-.771-.828,3.929-2.824,4.96S1280.941,248.875,1280.941,248.875Z" transform="translate(-1271.997 -237.139)"/><path class="p" d="M1296.79,240.447c.171,0,3.676-1.235,3.292,1.073s-2.736,4.179-5.643,4.778-4.275,1.463-2.565,2.575c0,0-1.966-.214-1.966-1.239s2.507-2.223,3.8-2.864S1296.79,240.447,1296.79,240.447Z" transform="translate(-1283.485 -237.693)"/><path class="i" d="M1299.907,267.69s-.128-2.308-1.41-1.881-.47,3.847.705,3.847S1299.907,267.69,1299.907,267.69Z" transform="translate(-1289.51 -257.151)"/><path class="h" d="M1300.576,269.129s-.193-1.3-.727-1.026-.449,2.757.235,2.629S1300.576,269.129,1300.576,269.129Z" transform="translate(-1290.767 -258.903)"/><path class="p" d="M1324.04,282.937a1.554,1.554,0,0,0,1.044.07,1.59,1.59,0,0,1-1.1.043.064.064,0,1,1,.04-.122l.006,0Z" transform="translate(-1309.311 -270.181)"/><path class="q" d="M1321.4,265.942s.474-.6.787-.909a2.784,2.784,0,0,1,1.207-.434Z" transform="translate(-1307.386 -256.272)"/><path class="q" d="M1325.055,267.084a.61.61,0,0,1,.188.953Z" transform="translate(-1310.16 -258.159)"/><path class="q" d="M1320.16,261.207a3.357,3.357,0,0,1,1.195-.833c.531-.128.24.561.24.561S1321.715,260.5,1320.16,261.207Z" transform="translate(-1306.445 -253.054)"/><path class="m" d="M1302.134,279.446a.56.56,0,1,1-.559-.559A.559.559,0,0,1,1302.134,279.446Z" transform="translate(-1291.915 -267.116)"/></g><g transform="translate(0.973 24.814)"><path class="i" d="M1257.32,332.991s3.691,2.39,2.819,6.5-10.858,11.542-9.918,14.406,8.953,10.511,9.584,10.511a5.729,5.729,0,0,0,3.925-.337c1.966-.983,2.372-.791,1.8-.214s-2.4,1.036-2.03,1.411,2.415.214,3.783-1.154,1.432-.149.684.6a14.986,14.986,0,0,1-3.591,1.753s3.677-1.282,4.361-1.966,1.239.342,0,1.154a15.1,15.1,0,0,1-6.84,1.966c-2.479,0-3.078-1.411-5.472-2.394s-10.687-5.847-10.687-11.58S1254.9,333.162,1257.32,332.991Z" transform="translate(-1244.26 -332.991)"/><path class="r" d="M1288.538,458.868l2.266.914,1.283-1.942-1.941-1.617Z" transform="translate(-1276.746 -426.514)"/><path class="n" d="M1245.587,353.895c-.94-2.864,9.866-10.286,10.674-14.406a5.74,5.74,0,0,0-3.574-6.5c-2.423.171-12.54,14.458-13.04,20.169-.494,5.657,8.231,11.174,11.309,12.936a1.224,1.224,0,0,0,1.658-.429l.95-1.58a1.216,1.216,0,0,0-.245-1.551C1250.548,360.136,1246.241,355.888,1245.587,353.895Z" transform="translate(-1239.626 -332.991)"/><path class="s" d="M1270.45,332.991c3.491,1.665,4.393,5.276,2.732,7.923-2.743,4.332-10.8,10.184-10.106,12.922.4,2.141,4.927,6.287,7.415,8.235-1.451-1.31-6.666-6.431-6.908-8.347-.683-2.669,10.088-9.7,10.729-14.974A5.657,5.657,0,0,0,1270.45,332.991Z" transform="translate(-1257.391 -332.991)"/></g></g><g transform="translate(1158.226 205.73)"><path class="t" d="M1486.249,320.42a39.551,39.551,0,0,0-4.977,4.222c-2.571,2.571-5.07,24.337-5.07,24.337l5.042,1.366Z" transform="translate(-1467.741 -292.771)"/><path class="u" d="M1461.918,414.068l-12.229,3.388-6.738-24.321,12.624-1.963Z" transform="translate(-1442.506 -346.466)"/><path class="v" d="M1465.741,410.786l-12.229,3.388-6.738-24.321,12.623-1.963Z" transform="translate(-1445.408 -343.974)"/><rect class="w" width="12.69" height="25.237" transform="translate(0 47.757) rotate(-15.485)"/><path class="t" d="M1493.338,511.582s-6.244,51.6-7.616,57.089l-.089,3.488-9.432-.256a2.082,2.082,0,0,1,1.666-1.118,9.057,9.057,0,0,0,4.552-2.009c.76-.852,1.39-72.382,1.39-72.382l11.714.318Z" transform="translate(-1467.741 -426.321)"/><path class="x" d="M1513.707,501.005l1.427,8.346s11.964,45.322,10.987,61.02c0,0-1.152,1.833-5.076,2.829-.211.054-.43.78-.43.78l10.165.276-.493-3.178s1.042-53.475,1.2-59.7A88.088,88.088,0,0,0,1530.216,497l-17.051-.463Z" transform="translate(-1495.793 -426.431)"/><path class="y" d="M1497.22,347.625c.392-15.31,1.72-29.71,5.25-31.552a48.519,48.519,0,0,1,7.179-1.257c3.108-.016,7.849,1.621,10.211,10.135,2.15,7.748-1.126,28.35-1.779,39.785-8.773-.238-9.789-.327-18.3-.558C1499.716,361.5,1497.1,352.437,1497.22,347.625Z" transform="translate(-1483.689 -288.517)"/><path class="z" d="M1496.665,315.6c-1.614.888-2.41,1.882-3.728,6.354s-3.648,48.06-3.031,48.677a31.877,31.877,0,0,0,4.25,2.34l3.569-52.916,2.887-5.86A33.785,33.785,0,0,0,1496.665,315.6Z" transform="translate(-1478.064 -288.048)"/><path class="i" d="M1525.923,280.061l.732,7.444a2.615,2.615,0,0,0,2.521,2.582c.321-.017.657-.048,1-.1a3.289,3.289,0,0,0,2.943-3.728c-.441-2.606-1.451-6.939-1.432-9.227C1531.714,273.289,1525.923,278.152,1525.923,280.061Z" transform="translate(-1505.475 -258.797)"/><path class="h" d="M1531.683,277.033c.03-3.743-5.76,1.119-5.76,3.029l.428,4.351a14.4,14.4,0,0,0,2.969-.814c1.549-.643,1.648-2.586,2.562-3.135a1.011,1.011,0,0,0,.143-.107A21.6,21.6,0,0,1,1531.683,277.033Z" transform="translate(-1505.475 -258.797)"/><path class="w" d="M1493.691,242.813c1.678,1.054,4.963,2.58,6.185,1.037-1.089,1.765-4.722.6-6.617-.275Z" transform="translate(-1480.686 -233.873)"/><path class="h" d="M1509.609,260.091s-2.064-1.523-1.716-.188,1.382,4.2,2.467,3.073S1509.609,260.091,1509.609,260.091Z" transform="translate(-1491.761 -246.427)"/><path class="i" d="M1517.774,235.5c-.278.276-3.34.058-4.343,3.2s.149,10.343,2.1,12.273,4.176.717,5.9-2.538,5.083-7.439,2.617-10.537C1522.737,236.256,1517.774,235.5,1517.774,235.5Z" transform="translate(-1495.715 -228.324)"/><path class="w" d="M1517.262,279.174s.908,2.1.015,2.992,2.58,1.217,3.745.906,2.71-.561,3.121-.972.655-5.876.655-5.876l-.519-.306c-.659,1.7-2.225,4.745-2.879,4.745s-1.492.168-2.161.168S1517.262,279.174,1517.262,279.174Z" transform="translate(-1498.803 -258.996)"/><path class="w" d="M1501.9,222.055c-.278,1.655-1.936,3.927-5.889,1.445s-3.174-5.627-3.174-5.627,2,2.593,3.229,2.041.334-3.641.334-3.641,4.455-.331,5.29-.331,1.684,2.593,1.684,2.593-.57-1.158,3.828-1.545,1.821,6.15,2.322,8.412-2.489,6.263-2.489,7.587a3.48,3.48,0,0,0,.724,2.151s-.947.221-1.782-2.1.691-5.735.691-7.5a3.87,3.87,0,0,0-1.913-3.577C1504.09,221.473,1502.182,220.4,1501.9,222.055Z" transform="translate(-1480.322 -213.48)"/><path class="i" d="M1547.09,259.129s-1.609,2.941-.47,2.712,3.383-1.744,2.889-3.84S1547.09,259.129,1547.09,259.129Z" transform="translate(-1520.873 -244.862)"/><path class="h" d="M1548.473,262.776s.993-.937,1.324-.609c.773.766-1.763,2.952-1.763,2.369A7.391,7.391,0,0,1,1548.473,262.776Z" transform="translate(-1522.257 -248.509)"/><path class="p" d="M1529.485,259.515c0,.45-.269.814-.6.814s-.6-.365-.6-.814.269-.814.6-.814S1529.485,259.066,1529.485,259.515Z" transform="translate(-1507.267 -245.931)"/><path class="p" d="M1514.964,259.515c0,.45-.269.814-.6.814s-.6-.365-.6-.814.269-.814.6-.814S1514.964,259.066,1514.964,259.515Z" transform="translate(-1496.247 -245.931)"/><g transform="translate(20.053 18.637)"><path class="p" d="M1525.834,284.156a2.644,2.644,0,0,0,1.072-1.05c.1-.165.363-.014.25.146a2.844,2.844,0,0,1-1.247,1.044,3.144,3.144,0,0,1-1.624.273.019.019,0,0,1,.019-.017A3.448,3.448,0,0,0,1525.834,284.156Z" transform="translate(-1524.286 -283.035)"/></g><path class="p" d="M1530.2,250.41l-.183.52a1.436,1.436,0,0,1,1.5.433S1530.928,250.288,1530.2,250.41Z" transform="translate(-1508.581 -239.631)"/><path class="p" d="M1513.763,252.633a2.683,2.683,0,0,1,1.085-.416l-.236-.393S1513.763,252.183,1513.763,252.633Z" transform="translate(-1496.247 -240.712)"/><path class="w" d="M1505.773,255.958h-1.879a1.136,1.136,0,0,0-1.095,1.173v1.4a1.135,1.135,0,0,0,1.095,1.172h1.879a1.136,1.136,0,0,0,1.1-1.172v-1.4A1.136,1.136,0,0,0,1505.773,255.958Zm.589,2.571a.612.612,0,0,1-.589.631h-1.879a.612.612,0,0,1-.59-.631v-1.4a.612.612,0,0,1,.59-.631h1.879a.612.612,0,0,1,.589.631Z" transform="translate(-1487.927 -243.849)"/><path class="w" d="M1527.983,255.771h-2.188a1.24,1.24,0,0,0-1.276,1.2V258.4a1.24,1.24,0,0,0,1.276,1.2h2.188a1.24,1.24,0,0,0,1.275-1.2v-1.432A1.24,1.24,0,0,0,1527.983,255.771Zm.687,2.632a.668.668,0,0,1-.687.647h-2.188a.669.669,0,0,1-.687-.647v-1.432a.669.669,0,0,1,.687-.647h2.188a.668.668,0,0,1,.687.647Z" transform="translate(-1504.41 -243.707)"/><g transform="translate(18.782 12.293)"><path class="p" d="M1519.315,262.7a10.54,10.54,0,0,1,.208-5.872c.05-.177.334-.106.284.071a12.672,12.672,0,0,0-.28,5.475c.864-.129,1.184-.345,1.238-.108S1520.436,262.421,1519.315,262.7Z" transform="translate(-1519.012 -256.721)"/></g><rect class="w" width="1.519" height="0.508" transform="translate(18.726 13.336)"/><path class="w" d="M1522.659,205.73a3.833,3.833,0,0,1,3.281,1.7,4.271,4.271,0,0,1,.41,2.553l-.15.826-.291-.046a7.49,7.49,0,0,0,0-1.593,2.758,2.758,0,0,0-3.246-2.446Z" transform="translate(-1502.998 -205.73)"/><path class="i" d="M1456.16,462.349a6.5,6.5,0,0,0-1.282.7c-.861.553-.478,1.859-.411,2.127a8.938,8.938,0,0,0,.691,1.725,3.384,3.384,0,0,0,.729.982c.467.433,3.007-.707,2.963-.983-.029-.185-.1-.359-.254-.4s-2.008.179-2.008.179,2.029-.743,2.2-1.259-.135-.616-.319-.568-2.4.45-2.4.45,1.97-1.073,2.08-1.409-.176-.783-1.155-.362a7.772,7.772,0,0,1-1.347.385s1.155-.893,1.319-1.4S1456.16,462.349,1456.16,462.349Z" transform="translate(-1451.137 -400.4)"/><path class="z" d="M1544.3,314.816l-3.362,22.57.944,36.057s8.934-1,11.5-2.34c0,0,.756-35.059.756-40.753S1554.864,317.589,1544.3,314.816Z" transform="translate(-1516.87 -288.518)"/><path class="i" d="M1566.808,486.517l-2.068,4.175-6.593-.174s6.056-6.408,6.854-7.164S1568.117,485.275,1566.808,486.517Z" transform="translate(-1529.931 -416.324)"/><path class="z" d="M1574.834,332.371l-.39-8.821c8.256,4.358,15.014,21.239,15.313,26.149.2,3.243-6.021,11.611-10.247,16.2-.684-1.081-1.551-3.013-2.674-3.513,2-2.789,4.607-6.958,5.414-10.717.795-3.7-1.757-7.782-4.034-10.549A14.8,14.8,0,0,1,1574.834,332.371Z" transform="translate(-1542.299 -295.146)"/></g><path class="m" d="M1209.222,415.155a.222.222,0,0,1-.158-.065c-5.921-5.921-1.045-17.758-.995-17.877a.223.223,0,1,1,.412.173c-.049.116-4.81,11.68.9,17.388a.223.223,0,0,1-.158.381Z" transform="translate(-104.555 -145.216)"/><path class="i" d="M1394.882,433.59s-2.1-.638-2.458-.036,2.142,1.455,2.142,1.455-3.115-1.065-2.895-.591a10.474,10.474,0,0,0,2.092,1.7s-2.393-1.51-2.453-1.129,1.268,1.462,2.022,1.918-1.382-.937-1.436-.594,1.452,1.785,1.994,1.87.5-.619.95-.946.456-.754.668-1.226.605-1.858.429-2.1S1394.882,433.59,1394.882,433.59Z" transform="translate(-245.087 -172.704)"/><path class="m" d="M1389.278,399.708c-.02.111-.84,1.237.167,1.709,3.1,1.414,3.252,1.648,3.747,1.465s.533-.626.749-1Zm.26,1.51c-.739-.345-.168-1.132-.154-1.22l4.266,1.989C1392.943,403.2,1393.321,402.9,1389.538,401.218Z" transform="translate(-243.293 -147.214)"/><path class="aa" d="M1392.6,395.648a1.231,1.231,0,0,0-.622-1.573h0a1.231,1.231,0,0,0-1.606.534l-1.87-.872-.6,1.289,5.718,2.666.6-1.289Z" transform="translate(-242.498 -142.682)"/></g></svg>