<svg xmlns="http://www.w3.org/2000/svg" width="360.619" height="504.303" viewBox="0 0 360.619 504.303"><defs><style>.a,.e,.f,.n,.o{fill:#fefcf0;}.a,.c,.d,.e{stroke:#efebd8;stroke-width:1.5px;}.a,.c,.h,.i,.j,.k,.m,.o,.q{stroke-linecap:round;stroke-linejoin:round;}.b{fill:#efebd8;}.c,.d,.h,.i,.j,.k,.l,.m,.p,.q{fill:none;}.d,.e,.l,.n,.p{stroke-miterlimit:10;}.g{fill:#550f34;}.h{stroke:#d81d46;}.i,.j{stroke:#156d89;}.j{stroke-width:2px;}.k{stroke:#494343;}.l,.m,.n,.o,.p,.q{stroke:#550f34;}.l,.m,.n,.o{stroke-width:0.75px;}.p,.q{stroke-width:0.5px;}.r{fill:#156d89;font-size:86px;font-family:BebasKai, Bebas Kai;}</style></defs><g transform="translate(-69.974 -39.196)"><path class="a" d="M223.911,109.447a21.2,21.2,0,1,1,21.178-21.2A21.214,21.214,0,0,1,223.911,109.447Z"/><path class="a" d="M223.911,102.639a14.394,14.394,0,1,1,14.378-14.392A14.4,14.4,0,0,1,223.911,102.639Z"/><path class="a" d="M231.488,88.246a7.577,7.577,0,1,0-7.577,7.585A7.581,7.581,0,0,0,231.488,88.246Z"/><path class="a" d="M183.772,127.942a21.2,21.2,0,1,1,11.462-27.7A21.193,21.193,0,0,1,183.772,127.942Z"/><path class="a" d="M181.17,121.653a14.391,14.391,0,1,1,7.781-18.805A14.389,14.389,0,0,1,181.17,121.653Z"/><path class="a" d="M182.668,105.453a7.578,7.578,0,1,0-4.1,9.91A7.575,7.575,0,0,0,182.668,105.453Z"/><path class="a" d="M153.76,160.406a21.19,21.19,0,1,1,0-29.982A21.186,21.186,0,0,1,153.76,160.406Z"/><path class="a" d="M148.951,155.592a14.385,14.385,0,1,1,0-20.354A14.383,14.383,0,0,1,148.951,155.592Z"/><path class="a" d="M144.142,140.052a7.581,7.581,0,1,0,0,10.726A7.569,7.569,0,0,0,144.142,140.052Z"/><path class="a" d="M138.442,201.9a21.182,21.182,0,1,1-11.461-27.7A21.193,21.193,0,0,1,138.442,201.9Z"/><path class="a" d="M132.159,199.291a14.38,14.38,0,1,1-7.781-18.805A14.39,14.39,0,0,1,132.159,199.291Z"/><path class="a" d="M121.775,186.776a7.584,7.584,0,1,0,4.1,9.91A7.574,7.574,0,0,0,121.775,186.776Z"/><path class="a" d="M140.151,246.1a21.179,21.179,0,1,1-21.178-21.2A21.213,21.213,0,0,1,140.151,246.1Z"/><path class="a" d="M133.351,246.1A14.378,14.378,0,1,1,118.973,231.7,14.4,14.4,0,0,1,133.351,246.1Z"/><path class="a" d="M118.973,238.512a7.585,7.585,0,1,0,7.577,7.585A7.581,7.581,0,0,0,118.973,238.512Z"/><path class="a" d="M158.627,286.277A21.182,21.182,0,1,1,130.956,274.8,21.233,21.233,0,0,1,158.627,286.277Z"/><path class="a" d="M152.344,288.882a14.38,14.38,0,1,1-18.785-7.789A14.416,14.416,0,0,1,152.344,288.882Z"/><path class="a" d="M136.161,287.383a7.584,7.584,0,1,0,9.9,4.105A7.588,7.588,0,0,0,136.161,287.383Z"/><path class="a" d="M191.057,316.321a21.191,21.191,0,1,1-29.951,0A21.242,21.242,0,0,1,191.057,316.321Z"/><path class="a" d="M186.248,321.136a14.385,14.385,0,1,1-20.333,0A14.421,14.421,0,0,1,186.248,321.136Z"/><path class="a" d="M170.724,325.949a7.581,7.581,0,1,0,10.715,0A7.592,7.592,0,0,0,170.724,325.949Z"/><path class="a" d="M232.5,331.655a21.2,21.2,0,1,1-27.671,11.474A21.233,21.233,0,0,1,232.5,331.655Z"/><path class="a" d="M229.9,337.945a14.391,14.391,0,1,1-18.785,7.789A14.415,14.415,0,0,1,229.9,337.945Z"/><path class="a" d="M217.4,348.34a7.579,7.579,0,1,0,9.9-4.105A7.588,7.588,0,0,0,217.4,348.34Z"/><ellipse class="a" cx="21.179" cy="21.201" rx="21.179" ry="21.201" transform="translate(255.478 329.944)"/><path class="a" d="M276.656,336.752a14.394,14.394,0,1,1-14.377,14.394A14.4,14.4,0,0,1,276.656,336.752Z"/><path class="a" d="M269.08,351.146a7.577,7.577,0,1,0,7.576-7.586A7.58,7.58,0,0,0,269.08,351.146Z"/><path class="a" d="M316.8,311.449a21.2,21.2,0,1,1-11.462,27.7A21.195,21.195,0,0,1,316.8,311.449Z"/><path class="a" d="M319.4,317.739a14.391,14.391,0,1,1-7.781,18.8A14.39,14.39,0,0,1,319.4,317.739Z"/><path class="a" d="M317.9,333.94a7.578,7.578,0,1,0,4.1-9.912A7.575,7.575,0,0,0,317.9,333.94Z"/><path class="a" d="M346.808,278.985a21.19,21.19,0,1,1,0,29.983A21.186,21.186,0,0,1,346.808,278.985Z"/><path class="a" d="M351.616,283.8a14.386,14.386,0,1,1,0,20.354A14.384,14.384,0,0,1,351.616,283.8Z"/><path class="a" d="M356.426,299.34a7.581,7.581,0,1,0,0-10.727A7.571,7.571,0,0,0,356.426,299.34Z"/><path class="a" d="M362.125,237.495a21.182,21.182,0,1,1,11.462,27.7A21.195,21.195,0,0,1,362.125,237.495Z"/><path class="a" d="M368.408,240.1a14.38,14.38,0,1,1,7.781,18.8A14.389,14.389,0,0,1,368.408,240.1Z"/><path class="a" d="M378.792,252.616a7.584,7.584,0,1,0-4.1-9.91A7.573,7.573,0,0,0,378.792,252.616Z"/><path class="a" d="M360.416,193.295a21.179,21.179,0,1,1,21.178,21.2A21.213,21.213,0,0,1,360.416,193.295Z"/><path class="a" d="M367.217,193.295a14.378,14.378,0,1,1,14.377,14.393A14.4,14.4,0,0,1,367.217,193.295Z"/><ellipse class="a" cx="7.585" cy="7.577" rx="7.585" ry="7.577" transform="translate(374.005 200.868) rotate(-89.908)"/><path class="a" d="M341.94,153.114a21.182,21.182,0,1,1,27.671,11.474A21.233,21.233,0,0,1,341.94,153.114Z"/><path class="a" d="M348.224,150.509a14.38,14.38,0,1,1,18.785,7.789A14.413,14.413,0,0,1,348.224,150.509Z"/><path class="a" d="M364.406,152.008a7.584,7.584,0,1,0-9.9-4.1A7.588,7.588,0,0,0,364.406,152.008Z"/><path class="a" d="M309.511,123.07a21.19,21.19,0,1,1,29.95,0A21.239,21.239,0,0,1,309.511,123.07Z"/><path class="a" d="M314.319,118.256a14.386,14.386,0,1,1,20.333,0A14.421,14.421,0,0,1,314.319,118.256Z"/><path class="a" d="M329.844,113.442a7.581,7.581,0,1,0-10.716,0A7.591,7.591,0,0,0,329.844,113.442Z"/><path class="a" d="M268.064,107.736a21.2,21.2,0,1,1,27.671-11.473A21.233,21.233,0,0,1,268.064,107.736Z"/><path class="a" d="M270.667,101.446a14.391,14.391,0,1,1,18.785-7.789A14.413,14.413,0,0,1,270.667,101.446Z"/><path class="a" d="M283.169,91.051a7.578,7.578,0,1,0-9.9,4.1A7.587,7.587,0,0,0,283.169,91.051Z"/><path class="b" d="M220.344,52.285c.218,4.4-.608,8.251-1.638,8.456-.984.2-3.395-3.008-4.848-7.165-1.42-4.063-1.505-7.83,1.741-8.476C218.937,44.435,220.123,47.829,220.344,52.285Z"/><path class="b" d="M211.5,57.667c1.46,2.768,2.084,5.5,1.482,5.941-.576.423-3.09-.917-5.274-3.158-2.134-2.191-3.319-4.592-1.422-5.985C208.235,53.033,210.018,54.863,211.5,57.667Z"/><path class="b" d="M224.134,55.151c-.291,3.117.176,5.879.9,6.057.693.169,2.5-2.031,3.665-4.938,1.135-2.842,1.312-5.515-.973-6.074C225.376,49.62,224.429,51.994,224.134,55.151Z"/><path class="b" d="M158.655,76.462c1.884,3.98,2.593,7.856,1.72,8.44-.835.558-4.287-1.478-7.218-4.762-2.866-3.21-4.384-6.658-1.633-8.5C154.355,69.748,156.748,72.43,158.655,76.462Z"/><path class="b" d="M152.54,84.824c2.408,2,4.028,4.282,3.641,4.921-.371.61-3.206.336-6.08-.9-2.81-1.206-4.822-2.971-3.6-4.984C147.754,81.792,150.1,82.8,152.54,84.824Z"/><path class="b" d="M163.253,77.659c.922,2.991,2.41,5.364,3.147,5.25.706-.109,1.538-2.836,1.5-5.967-.038-3.06-.9-5.6-3.221-5.238C162.286,72.072,162.318,74.628,163.253,77.659Z"/><path class="b" d="M110.9,122.431c3.261,2.956,5.4,6.265,4.815,7.139-.557.836-4.525.276-8.489-1.635-3.875-1.868-6.6-4.471-4.757-7.226C104.366,117.876,107.6,119.438,110.9,122.431Z"/><path class="b" d="M108.452,132.5c2.988.924,5.358,2.413,5.244,3.151-.108.707-2.832,1.54-5.959,1.5-3.057-.039-5.592-.9-5.234-3.225C102.872,131.531,105.425,131.564,108.452,132.5Z"/><path class="b" d="M115.61,121.775c2,2.41,4.277,4.033,4.915,3.645.61-.371.336-3.209-.9-6.086-1.2-2.813-2.968-4.828-4.979-3.606C112.581,116.985,113.588,119.333,115.61,121.775Z"/><path class="b" d="M84.363,183.194c4.143,1.481,7.382,3.72,7.178,4.75-.2.986-4.076,1.99-8.468,1.742-4.294-.241-7.8-1.6-7.157-4.853C76.58,181.491,80.166,181.693,84.363,183.194Z"/><path class="b" d="M85.945,193.435c3.114-.291,5.872.177,6.05.9.17.695-2.029,2.508-4.932,3.67-2.839,1.136-5.509,1.312-6.068-.975C80.419,194.679,82.791,193.731,85.945,193.435Z"/><path class="b" d="M88.458,180.786c2.766,1.462,5.494,2.086,5.935,1.484.422-.577-.916-3.094-3.155-5.279-2.188-2.137-4.587-3.324-5.978-1.425C83.829,177.52,85.657,179.3,88.458,180.786Z"/><path class="b" d="M83.069,249.5c4.394-.219,8.242.609,8.447,1.64.2.985-3,3.4-7.157,4.853-4.059,1.422-7.822,1.506-8.468-1.742C75.227,250.907,78.618,249.721,83.069,249.5Z"/><path class="b" d="M88.446,258.355c2.765-1.462,5.493-2.086,5.934-1.484.422.576-.916,3.093-3.154,5.279-2.189,2.137-4.588,3.324-5.979,1.424C83.816,261.621,85.645,259.837,88.446,258.355Z"/><path class="b" d="M85.932,245.705c3.114.292,5.873-.176,6.05-.9.17-.694-2.028-2.507-4.932-3.669-2.839-1.136-5.509-1.313-6.068.974C80.407,244.462,82.778,245.41,85.932,245.705Z"/><path class="b" d="M107.221,311.253c3.975-1.885,7.847-2.6,8.431-1.722.557.836-1.477,4.291-4.758,7.226-3.206,2.869-6.65,4.389-8.489,1.635C100.514,315.558,103.193,313.163,107.221,311.253Z"/><path class="b" d="M115.574,317.375c2-2.41,4.277-4.032,4.915-3.645.611.371.337,3.21-.9,6.086-1.205,2.813-2.968,4.828-4.979,3.606C112.545,322.165,113.552,319.816,115.574,317.375Z"/><path class="b" d="M108.416,306.65c2.988-.922,5.358-2.412,5.245-3.15-.109-.707-2.833-1.539-5.96-1.5-3.057.038-5.592.9-5.234,3.225C102.835,307.619,105.389,307.586,108.416,306.65Z"/><path class="b" d="M153.141,359.054c2.953-3.265,6.258-5.4,7.131-4.821.835.559.276,4.531-1.632,8.5-1.866,3.879-4.467,6.6-7.219,4.763C148.591,365.6,150.15,362.361,153.141,359.054Z"/><path class="b" d="M163.2,361.51c.922-2.991,2.41-5.364,3.148-5.25.705.108,1.537,2.836,1.5,5.966-.038,3.06-.9,5.6-3.221,5.239C162.232,367.1,162.265,364.54,163.2,361.51Z"/><path class="b" d="M152.486,354.344c2.408-2,4.028-4.281,3.641-4.92-.37-.611-3.206-.337-6.08.9-2.809,1.206-4.822,2.971-3.6,4.984C147.7,357.376,150.047,356.368,152.486,354.344Z"/><path class="b" d="M213.84,385.624c1.479-4.147,3.716-7.39,4.745-7.184.985.2,1.987,4.079,1.741,8.476-.242,4.3-1.6,7.811-4.849,7.165C212.138,393.416,212.341,389.825,213.84,385.624Z"/><path class="b" d="M224.071,384.04c-.292-3.116.176-5.879.9-6.056.693-.169,2.5,2.031,3.665,4.938,1.134,2.842,1.311,5.514-.973,6.074C225.312,389.572,224.366,387.2,224.071,384.04Z"/><path class="b" d="M211.434,381.524c1.46-2.768,2.085-5.5,1.482-5.94-.575-.423-3.089.916-5.273,3.157-2.135,2.192-3.32,4.593-1.423,5.986C208.172,386.158,209.954,384.328,211.434,381.524Z"/><path class="b" d="M280.075,386.92c-.219-4.4.608-8.252,1.638-8.457.984-.2,3.394,3.008,4.847,7.165,1.421,4.063,1.505,7.831-1.74,8.476C281.481,394.77,280.3,391.375,280.075,386.92Z"/><path class="b" d="M288.922,381.537c-1.461-2.768-2.085-5.5-1.484-5.941.577-.422,3.091.917,5.275,3.158,2.135,2.191,3.319,4.593,1.423,5.985C292.184,386.171,290.4,384.341,288.922,381.537Z"/><path class="b" d="M276.285,384.053c.291-3.118-.177-5.879-.9-6.057-.694-.169-2.505,2.031-3.665,4.939-1.135,2.841-1.312,5.514.973,6.074C275.043,389.585,275.989,387.211,276.285,384.053Z"/><path class="b" d="M341.764,362.742c-1.884-3.98-2.593-7.856-1.72-8.44.835-.558,4.287,1.478,7.218,4.763,2.866,3.209,4.383,6.658,1.632,8.5C346.064,369.456,343.672,366.773,341.764,362.742Z"/><path class="b" d="M347.879,354.38c-2.407-2-4.027-4.281-3.641-4.92.37-.611,3.2-.337,6.079.9,2.81,1.207,4.824,2.971,3.6,4.984C352.665,357.412,350.318,356.4,347.879,354.38Z"/><path class="b" d="M337.166,361.546c-.922-2.991-2.41-5.364-3.147-5.25-.707.108-1.538,2.835-1.5,5.966.04,3.06.9,5.6,3.222,5.238C338.133,367.132,338.1,364.576,337.166,361.546Z"/><path class="b" d="M389.514,316.772c-3.261-2.955-5.4-6.264-4.816-7.137.559-.836,4.527-.278,8.489,1.634,3.875,1.868,6.6,4.471,4.757,7.225C396.054,321.328,392.817,319.767,389.514,316.772Z"/><path class="b" d="M391.967,306.7c-2.988-.924-5.358-2.413-5.244-3.151.108-.706,2.833-1.539,5.96-1.5,3.056.038,5.59.9,5.233,3.224C397.548,307.673,394.994,307.64,391.967,306.7Z"/><path class="b" d="M384.809,317.429c-2-2.41-4.277-4.032-4.915-3.645-.611.371-.336,3.209.9,6.086,1.2,2.813,2.968,4.827,4.979,3.607C387.838,322.22,386.831,319.87,384.809,317.429Z"/><path class="b" d="M416.057,256.011c-4.144-1.482-7.383-3.721-7.178-4.751.2-.986,4.075-1.989,8.468-1.742,4.294.241,7.8,1.6,7.157,4.853C423.84,257.714,420.253,257.511,416.057,256.011Z"/><path class="b" d="M414.474,245.769c-3.114.291-5.872-.177-6.05-.9-.17-.7,2.029-2.508,4.932-3.669,2.839-1.136,5.509-1.313,6.069.974C420,244.525,417.628,245.473,414.474,245.769Z"/><path class="b" d="M411.961,258.419c-2.766-1.463-5.493-2.087-5.935-1.484-.422.576.916,3.093,3.155,5.279,2.188,2.137,4.588,3.323,5.978,1.424C416.59,261.685,414.762,259.9,411.961,258.419Z"/><path class="b" d="M417.35,189.705c-4.394.219-8.243-.609-8.448-1.639-.2-.986,3.005-3.4,7.158-4.854,4.059-1.421,7.822-1.506,8.467,1.743C425.192,188.3,421.8,189.483,417.35,189.705Z"/><path class="b" d="M411.973,180.849c-2.765,1.462-5.493,2.087-5.934,1.484-.422-.576.916-3.093,3.154-5.279,2.189-2.137,4.588-3.323,5.979-1.424C416.6,177.583,414.774,179.368,411.973,180.849Z"/><path class="b" d="M414.486,193.5c-3.113-.291-5.872.176-6.05.9-.169.694,2.03,2.507,4.933,3.669,2.839,1.136,5.509,1.313,6.068-.974C420.013,194.743,417.641,193.794,414.486,193.5Z"/><path class="b" d="M393.2,127.951c-3.975,1.885-7.847,2.6-8.43,1.722-.559-.836,1.476-4.292,4.756-7.226,3.207-2.869,6.652-4.388,8.49-1.634C399.9,123.646,397.226,126.042,393.2,127.951Z"/><path class="b" d="M384.845,121.829c-1.995,2.411-4.277,4.032-4.915,3.645-.611-.371-.336-3.209.9-6.086,1.205-2.813,2.968-4.828,4.979-3.606C387.874,117.039,386.867,119.388,384.845,121.829Z"/><path class="b" d="M392,132.554c-2.988.923-5.359,2.412-5.244,3.151.108.706,2.832,1.539,5.96,1.5,3.056-.038,5.591-.9,5.233-3.225C397.584,131.585,395.03,131.618,392,132.554Z"/><path class="b" d="M347.277,80.15c-2.952,3.266-6.258,5.4-7.131,4.821-.835-.559-.276-4.531,1.633-8.5,1.866-3.879,4.467-6.6,7.218-4.763C351.828,73.6,350.269,76.843,347.277,80.15Z"/><path class="b" d="M337.22,77.694c-.922,2.992-2.41,5.364-3.148,5.251-.7-.109-1.537-2.836-1.5-5.966.038-3.061.9-5.6,3.221-5.239C338.187,72.108,338.154,74.664,337.22,77.694Z"/><path class="b" d="M347.933,84.86c-2.408,2-4.028,4.282-3.641,4.92.37.612,3.205.337,6.079-.9,2.811-1.206,4.823-2.971,3.6-4.984C352.719,81.828,350.372,82.836,347.933,84.86Z"/><path class="b" d="M286.579,53.58c-1.479,4.147-3.716,7.39-4.745,7.185-.985-.2-1.987-4.08-1.74-8.476.241-4.3,1.6-7.812,4.847-7.166C288.28,45.789,288.078,49.378,286.579,53.58Z"/><path class="b" d="M276.349,55.164c.291,3.117-.177,5.878-.9,6.056-.693.17-2.5-2.03-3.665-4.938-1.135-2.842-1.311-5.514.974-6.074C275.106,49.632,276.053,52.006,276.349,55.164Z"/><path class="b" d="M288.985,57.68c-1.461,2.768-2.085,5.5-1.483,5.941.576.422,3.091-.917,5.274-3.158,2.135-2.191,3.32-4.592,1.423-5.985C292.247,53.045,290.465,54.876,288.985,57.68Z"/><path class="a" d="M250.284,129.694s-5.323-26.614-33.895-42.2S181.6,53.618,181.6,53.618l-.028.011s8.527,17.343-.67,48.585,5.811,53.841,5.811,53.841"/><path class="a" d="M186.71,156.055S164.147,141,132.937,150.21s-48.533.671-48.533.671l-.011.028s19.524,5.583,33.844,34.829c15.4,31.459,46.307,34,46.307,34"/><path class="a" d="M164.544,219.735s-31.15,4.281-46.318,33.891c-14.847,28.982-33.845,34.829-33.845,34.829l.012.027s17.57-9.334,48.533.671c31.653,10.229,56.848-8.442,56.848-8.442"/><path class="a" d="M189.774,280.711s-19.548,22.434-8.9,56.455c9.726,31.081.67,48.585.67,48.585l.027.012s6.221-18.3,34.793-33.881S250.284,309.7,250.284,309.7"/><path class="a" d="M250.284,309.7s5.322,26.614,33.894,42.2,34.793,33.879,34.793,33.879l.027-.01s-8.527-17.343.67-48.586-5.811-53.841-5.811-53.841"/><path class="a" d="M313.857,283.336s22.563,15.053,53.773,5.846,48.534-.672,48.534-.672l.011-.028s-17.864-6.458-33.845-34.829c-18.066-32.072-47.41-34.3-47.41-34.3"/><path class="a" d="M334.92,219.354s28.361-.641,47.422-33.588c16.3-28.186,33.844-34.83,33.844-34.83l-.011-.027s-17,7.336-48.534-.671c-34.931-8.869-56.665,8.779-56.665,8.779"/><path class="a" d="M310.976,159.017s19.424-24.711,8.719-56.791c-10.307-30.893-.67-48.586-.67-48.586L319,53.629s-6.221,18.3-34.793,33.881-33.921,42.184-33.921,42.184"/><line class="c" x1="22.976" y1="55.605" transform="translate(192.901 80.94)"/><line class="c" x1="55.524" y1="23.055" transform="translate(111.697 162.199)"/><line class="c" x1="55.547" y2="23.001" transform="translate(111.674 254.138)"/><line class="c" x1="23.03" y2="55.584" transform="translate(192.848 302.846)"/><line class="c" x2="22.977" y2="55.605" transform="translate(284.689 302.846)"/><line class="c" x2="55.523" y2="23.055" transform="translate(333.347 254.138)"/><line class="c" y1="23.001" x2="55.546" transform="translate(333.347 162.253)"/><line class="c" y1="55.583" x2="23.03" transform="translate(284.689 80.962)"/><path class="a" d="M284.689,136.545s5.257-26.628-15.183-51.968-19.193-44.631-19.193-44.631h-.029s1.248,19.29-19.193,44.631-15.213,51.968-15.213,51.968"/><path class="a" d="M215.878,136.545s-15.091-22.549-47.445-26-45.1-17.973-45.1-17.973l-.021.021s15.9,12.637,17.954,45.144c2.205,34.965,29.786,49.148,29.786,49.148"/><path class="a" d="M171.056,186.886s-30.415-7.978-55.749,13.568c-24.8,21.088-44.583,19.212-44.583,19.212v.03s19.8-1.893,44.583,19.213c25.334,21.574,55.749,13.977,55.749,13.977"/><path class="a" d="M171.056,252.886s-26.637,13.237-29.807,48.747c-2.9,32.441-17.954,45.143-17.954,45.143l.021.022s12.743-14.524,45.1-17.973,47.466-25.979,47.466-25.979"/><path class="a" d="M215.878,302.846s-5.257,26.628,15.183,51.969,19.193,44.63,19.193,44.63h.03s-1.248-19.29,19.193-44.63,15.212-51.969,15.212-51.969"/><path class="a" d="M284.689,302.846s15.092,22.551,47.446,26,45.1,17.972,45.1,17.972l.021-.02s-14.034-12.811-17.953-45.144C354.866,265.1,328.607,251.8,328.607,251.8"/><path class="a" d="M328.607,251.8s26.449,10.272,56.653-12.865c25.84-19.793,44.583-19.213,44.583-19.213V219.7s-18.506.266-44.583-19.213c-28.882-21.575-55.707-13.6-55.707-13.6"/><path class="a" d="M329.553,186.886s27.391-15.388,29.765-49.128c2.286-32.49,17.954-45.143,17.954-45.143l-.021-.021s-12.742,14.523-45.1,17.973-47.466,25.978-47.466,25.978"/><path class="c" d="M284.689,136.545s5.257-26.628-15.183-51.968-19.193-44.631-19.193-44.631h-.029s1.248,19.29-19.193,44.631-15.213,51.968-15.213,51.968"/><path class="c" d="M278.013,135.255c.181-.97,4.255-24.021-13.8-46.4a107.087,107.087,0,0,1-13.916-22,107,107,0,0,1-13.916,22c-18.055,22.384-14.007,45.438-13.825,46.409"/><path class="c" d="M278.018,135.225"/><path class="c" d="M215.878,136.545s-15.091-22.549-47.445-26-45.1-17.973-45.1-17.973l-.021.021s15.9,12.637,17.954,45.144c2.205,34.965,29.786,49.148,29.786,49.148"/><path class="c" d="M211.326,141.664c-.556-.815-15.04-21.3-43.614-24.349a107.455,107.455,0,0,1-24.651-5.443,93.322,93.322,0,0,1,5,25.437c1.92,30.467,25.144,43.016,26.133,43.534"/><path class="c" d="M171.056,186.886s-30.415-7.978-55.749,13.568c-24.8,21.088-44.583,19.212-44.583,19.212v.03s19.8-1.893,44.583,19.213c25.334,21.574,55.749,13.977,55.749,13.977"/><path class="c" d="M171.056,193.783a67.261,67.261,0,0,0-13.9-1.585,57.122,57.122,0,0,0-37.447,13.443,98.766,98.766,0,0,1-21.287,14.035,98.534,98.534,0,0,1,21.29,14.046,58.423,58.423,0,0,0,38.258,13.665,71.82,71.82,0,0,0,13.084-1.291"/><path class="c" d="M171.056,252.886s-26.637,13.237-29.807,48.747c-2.9,32.441-17.954,45.143-17.954,45.143l.021.022s12.743-14.524,45.1-17.973,47.466-25.979,47.466-25.979"/><path class="c" d="M174.112,258.966c-.951.485-23.318,12.237-26.089,43.272a101.23,101.23,0,0,1-5.423,25.42,107.023,107.023,0,0,1,25.092-5.6c28.577-3.048,43.425-23.65,43.983-24.463"/><path class="c" d="M215.878,302.846s-5.257,26.628,15.183,51.969,19.193,44.63,19.193,44.63h.03s-1.248-19.29,19.193-44.63,15.212-51.969,15.212-51.969"/><path class="c" d="M222.556,304.136c-.183.97-4.255,24.02,13.8,46.4a107.07,107.07,0,0,1,13.917,22,107.018,107.018,0,0,1,13.916-22c18.054-22.383,14.007-45.439,13.826-46.408"/><path class="c" d="M284.689,302.846s15.092,22.551,47.446,26,45.1,17.972,45.1,17.972l.021-.02s-14.034-12.811-17.953-45.144C354.866,265.1,328.607,251.8,328.607,251.8"/><path class="c" d="M288.771,297.418c.559.815,15.51,21.61,44.082,24.657a106.62,106.62,0,0,1,25.633,5.8,112.829,112.829,0,0,1-5.941-25.4c-3.945-32.563-26.778-44.479-27.009-44.6"/><path class="c" d="M328.607,251.8s26.449,10.272,56.653-12.865c25.84-19.793,44.583-19.213,44.583-19.213V219.7s-18.506.266-44.583-19.213c-28.882-21.575-55.707-13.6-55.707-13.6"/><path class="c" d="M331.024,245.439a39.171,39.171,0,0,0,12.781,1.875c9.271,0,22.7-2.58,37.322-13.783a117.093,117.093,0,0,1,22.916-13.914,122.7,122.7,0,0,1-22.85-13.678c-15.206-11.357-29.571-13.732-38.923-13.732a43.435,43.435,0,0,0-11.81,1.666"/><path class="c" d="M329.553,186.886s27.391-15.388,29.765-49.128c2.286-32.49,17.954-45.143,17.954-45.143l-.021-.021s-12.742,14.523-45.1,17.973-47.466,25.978-47.466,25.978"/><path class="c" d="M326.2,180.961c.99-.565,24.26-14.2,26.336-43.681a95.376,95.376,0,0,1,5.114-25.432,107.29,107.29,0,0,1-24.775,5.487c-28.863,3.08-43.145,23.694-43.279,23.892"/><path class="c" d="M326.225,180.949"/><line class="d" y1="43.304" transform="translate(250.284 86.39)"/><line class="d" x1="30.588" y1="30.621" transform="translate(156.3 125.299)"/><line class="d" x1="49.795" transform="translate(117.327 219.339)"/><line class="d" x1="30.588" y2="30.621" transform="translate(156.195 282.801)"/><line class="d" y2="43.304" transform="translate(250.135 309.132)"/><line class="d" x2="30.588" y2="30.621" transform="translate(313.531 282.906)"/><line class="d" x2="49.795" transform="translate(333.297 219.487)"/><line class="d" y1="30.621" x2="30.588" transform="translate(313.636 125.404)"/><path class="e" d="M329.749,219.727a2.437,2.437,0,0,0,1.533,2.287,12.015,12.015,0,0,1-4.02,23.235,2.451,2.451,0,0,0-2.224,1.655c-.012.031-.022.062-.034.093a2.458,2.458,0,0,0,.641,2.694,11.964,11.964,0,0,1-11.72,20.344,2.454,2.454,0,0,0-2.653.795l-.1.114a2.456,2.456,0,0,0-.32,2.75,11.957,11.957,0,0,1-17.935,15.121,2.447,2.447,0,0,0-2.76-.155l-.163.094a2.455,2.455,0,0,0-1.239,2.465,11.951,11.951,0,0,1-22.019,8.034,2.452,2.452,0,0,0-2.535-1.089c-.064.012-.13.024-.2.034A2.455,2.455,0,0,0,262,300.09a11.948,11.948,0,0,1-23.433,0,2.455,2.455,0,0,0-2.011-1.892c-.065-.01-.13-.022-.2-.034a2.449,2.449,0,0,0-2.534,1.089,11.95,11.95,0,0,1-22.019-8.034,2.458,2.458,0,0,0-1.24-2.465l-.163-.094a2.447,2.447,0,0,0-2.76.155,11.957,11.957,0,0,1-17.935-15.121,2.454,2.454,0,0,0-.32-2.75l-.1-.114a2.453,2.453,0,0,0-2.652-.795,11.964,11.964,0,0,1-11.721-20.344,2.456,2.456,0,0,0,.641-2.694l-.033-.093a2.453,2.453,0,0,0-2.224-1.655,12.015,12.015,0,0,1-4.02-23.235,2.438,2.438,0,0,0,1.533-2.287v-.057a2.436,2.436,0,0,0-1.534-2.293,12.014,12.014,0,0,1,4.1-23.235,2.417,2.417,0,0,0,2.2-1.633l.03-.082a2.416,2.416,0,0,0-.64-2.671A11.969,11.969,0,0,1,186.769,169.4a2.416,2.416,0,0,0,2.635-.776l.055-.066a2.418,2.418,0,0,0,.31-2.738,11.965,11.965,0,0,1,18-15.151,2.45,2.45,0,0,0,2.778.175l.043-.024a2.456,2.456,0,0,0,1.238-2.5,11.96,11.96,0,0,1,22.1-8.038,2.454,2.454,0,0,0,2.554,1.119l.036-.007a2.456,2.456,0,0,0,2.017-1.925,11.958,11.958,0,0,1,23.513,0,2.457,2.457,0,0,0,2.017,1.925l.037.007a2.452,2.452,0,0,0,2.553-1.119,11.96,11.96,0,0,1,22.1,8.038,2.458,2.458,0,0,0,1.238,2.5l.043.024a2.451,2.451,0,0,0,2.779-.175,11.965,11.965,0,0,1,18,15.151,2.418,2.418,0,0,0,.309,2.738l.055.066a2.416,2.416,0,0,0,2.635.776,11.969,11.969,0,0,1,11.788,20.361,2.417,2.417,0,0,0-.64,2.671c.011.028.021.054.031.082a2.416,2.416,0,0,0,2.2,1.633,12.014,12.014,0,0,1,4.1,23.235,2.435,2.435,0,0,0-1.533,2.293Z"/><path class="e" d="M250.284,304.024a6.331,6.331,0,0,1-6.165-5.07,8.078,8.078,0,0,0-6.579-6.343,9.007,9.007,0,0,0-1.635-.161A8.032,8.032,0,0,0,229,296.286a6.365,6.365,0,0,1-5.381,3.034,6.291,6.291,0,0,1-6.2-7.26,8.094,8.094,0,0,0-4-8.213,8.428,8.428,0,0,0-4.3-1.212,8.044,8.044,0,0,0-5,1.744,6.393,6.393,0,0,1-3.965,1.383,6.173,6.173,0,0,1-4.014-1.468,6.331,6.331,0,0,1-1.454-7.873,8.086,8.086,0,0,0-.951-9.124,8.216,8.216,0,0,0-6.348-3.057,8.009,8.009,0,0,0-2.554.419,6.287,6.287,0,0,1-2.044.339,6.223,6.223,0,0,1-5.454-3.138,6.334,6.334,0,0,1,1.326-7.9,8.264,8.264,0,0,0-5.227-14.381,6.341,6.341,0,0,1-2.125-12.262,8.193,8.193,0,0,0,0-15.238,6.341,6.341,0,0,1,2.162-12.263,8.225,8.225,0,0,0,5.219-14.35,6.329,6.329,0,0,1-1.357-7.933,6.234,6.234,0,0,1,5.459-3.142,6.333,6.333,0,0,1,2.1.359,7.919,7.919,0,0,0,2.626.448,8.256,8.256,0,0,0,7.19-12.159,6.329,6.329,0,0,1,1.426-7.941,6.186,6.186,0,0,1,4.022-1.469,6.381,6.381,0,0,1,4.023,1.434,8.055,8.055,0,0,0,5.075,1.8,8.259,8.259,0,0,0,8.161-9.45,6.328,6.328,0,0,1,4.055-6.957,6.255,6.255,0,0,1,2.146-.382,6.354,6.354,0,0,1,5.431,3.108,8.122,8.122,0,0,0,6.968,3.931,8.289,8.289,0,0,0,1.142-.078l.364-.059a8.162,8.162,0,0,0,6.572-6.447,6.292,6.292,0,0,1,12.378,0,8.169,8.169,0,0,0,6.592,6.453l.339.054a8.21,8.21,0,0,0,1.147.079,8.122,8.122,0,0,0,6.968-3.933,6.352,6.352,0,0,1,5.431-3.106,6.3,6.3,0,0,1,6.2,7.339,8.173,8.173,0,0,0,4.01,8.322,8.268,8.268,0,0,0,4.152,1.128,8.047,8.047,0,0,0,5.073-1.8,6.382,6.382,0,0,1,4.027-1.436,6.18,6.18,0,0,1,4.02,1.469,6.327,6.327,0,0,1,1.428,7.94,8.254,8.254,0,0,0,7.191,12.16,7.88,7.88,0,0,0,2.625-.449,6.361,6.361,0,0,1,2.1-.358,6.234,6.234,0,0,1,5.459,3.142,6.329,6.329,0,0,1-1.359,7.933,8.227,8.227,0,0,0,5.221,14.35,6.341,6.341,0,0,1,2.167,12.262,8.193,8.193,0,0,0-.005,15.238,6.341,6.341,0,0,1-2.116,12.263,8.265,8.265,0,0,0-5.238,14.378,6.333,6.333,0,0,1,1.33,7.9A6.223,6.223,0,0,1,317.784,265a6.314,6.314,0,0,1-2.042-.337,7.978,7.978,0,0,0-2.557-.421,8.34,8.34,0,0,0-7.3,12.178,6.336,6.336,0,0,1-1.457,7.876,6.169,6.169,0,0,1-4.014,1.468,6.388,6.388,0,0,1-3.965-1.386,8.05,8.05,0,0,0-5-1.741,8.42,8.42,0,0,0-8.3,9.423,6.328,6.328,0,0,1-4.057,6.878,6.227,6.227,0,0,1-2.144.384,6.367,6.367,0,0,1-5.382-3.034,8.022,8.022,0,0,0-6.909-3.836,8.378,8.378,0,0,0-1.441.126,8.157,8.157,0,0,0-6.772,6.376A6.33,6.33,0,0,1,250.284,304.024Z"/><ellipse class="e" cx="55.691" cy="55.75" rx="55.691" ry="55.75" transform="translate(194.593 164.041)"/><ellipse class="d" cx="64.241" cy="64.309" rx="64.241" ry="64.309" transform="translate(186.043 155.482)"/><line class="d" y2="8.559" transform="translate(250.284 155.482)"/><line class="d" x2="2.213" y2="8.268" transform="translate(233.682 157.67)"/><line class="d" x2="4.275" y2="7.413" transform="translate(218.211 164.085)"/><line class="d" x2="6.046" y2="6.052" transform="translate(204.926 174.29)"/><line class="d" x2="7.405" y2="4.28" transform="translate(194.731 187.589)"/><line class="d" x2="8.259" y2="2.215" transform="translate(188.323 203.076)"/><line class="d" x2="8.55" transform="translate(186.138 219.696)"/><line class="d" y1="2.215" x2="8.259" transform="translate(188.323 234.1)"/><line class="d" y1="4.28" x2="7.405" transform="translate(194.731 247.523)"/><line class="d" y1="6.052" x2="6.046" transform="translate(204.926 259.05)"/><line class="d" y1="7.413" x2="4.275" transform="translate(218.211 267.894)"/><line class="d" y1="8.268" x2="2.213" transform="translate(233.682 273.454)"/><line class="d" y1="8.559" transform="translate(250.284 275.351)"/><line class="d" x1="2.213" y1="8.268" transform="translate(264.673 273.454)"/><line class="d" x1="4.274" y1="7.413" transform="translate(278.082 267.894)"/><line class="d" x1="6.046" y1="6.052" transform="translate(289.596 259.05)"/><line class="d" x1="7.405" y1="4.28" transform="translate(298.431 247.523)"/><line class="d" x1="8.259" y1="2.215" transform="translate(303.985 234.1)"/><line class="d" x1="8.551" transform="translate(305.879 219.696)"/><line class="d" x1="8.259" y2="2.215" transform="translate(303.985 203.076)"/><line class="d" x1="7.405" y2="4.28" transform="translate(298.431 187.589)"/><line class="d" x1="6.046" y2="6.052" transform="translate(289.596 174.29)"/><line class="d" x1="4.274" y2="7.413" transform="translate(278.082 164.085)"/><line class="d" x1="2.213" y2="8.268" transform="translate(264.673 157.67)"/><path class="d" d="M261.9,219.791a11.615,11.615,0,1,1-11.614-11.628A11.621,11.621,0,0,1,261.9,219.791Z"/><path class="b" d="M254.558,219.791a4.274,4.274,0,1,1-4.274-4.278A4.276,4.276,0,0,1,254.558,219.791Z"/><path class="b" d="M254.053,188.163c-.746,5.056-2.559,9.254-3.777,9.254-1.166,0-3.184-4.194-3.9-9.254-.7-4.948.058-9.255,3.9-9.255C254.227,178.908,254.809,183.041,254.053,188.163Z"/><path class="b" d="M237.8,190.5c1.879,4.752,2.407,9.294,1.351,9.9-1.009.584-4.852-2.037-8-6.063-3.075-3.935-4.572-8.044-1.246-9.966C233.326,182.4,235.894,185.686,237.8,190.5Z"/><path class="b" d="M224.888,200.662c4,3.174,6.727,6.845,6.118,7.9-.583,1.01-5.22.664-9.955-1.248-4.629-1.869-7.977-4.677-6.057-8.006C216.969,195.883,220.835,197.445,224.888,200.662Z"/><path class="b" d="M218.784,215.923c5.05.747,9.244,2.561,9.244,3.78,0,1.167-4.189,3.188-9.244,3.9-4.943.7-9.245-.058-9.245-3.9C209.539,215.748,213.667,215.166,218.784,215.923Z"/><path class="b" d="M221.119,232.2c4.748-1.881,9.286-2.409,9.9-1.353.583,1.01-2.036,4.857-6.058,8.007-3.931,3.078-8.035,4.576-9.955,1.247C213.026,236.671,216.31,234.1,221.119,232.2Z"/><path class="b" d="M231.269,245.118c3.172-4,6.838-6.734,7.894-6.124,1.009.583.663,5.225-1.247,9.965-1.867,4.634-4.672,7.986-8,6.063C226.5,253.045,228.057,249.175,231.269,245.118Z"/><path class="b" d="M246.515,251.229c.746-5.056,2.558-9.254,3.776-9.254,1.166,0,3.185,4.193,3.9,9.254.7,4.948-.058,9.254-3.9,9.254C246.34,260.483,245.759,256.352,246.515,251.229Z"/><path class="b" d="M262.769,248.891c-1.878-4.752-2.406-9.3-1.351-9.905,1.01-.583,4.852,2.038,8,6.063,3.075,3.936,4.572,8.044,1.246,9.967C267.241,256.993,264.673,253.705,262.769,248.891Z"/><path class="b" d="M275.679,238.73c-4-3.175-6.727-6.845-6.118-7.9.583-1.011,5.22-.664,9.956,1.247,4.628,1.869,7.976,4.678,6.056,8.007C283.6,243.508,279.732,241.946,275.679,238.73Z"/><path class="b" d="M281.783,223.469c-5.051-.747-9.244-2.561-9.244-3.781,0-1.167,4.189-3.187,9.244-3.9,4.943-.7,9.245.058,9.245,3.9C291.028,223.643,286.9,224.226,281.783,223.469Z"/><path class="b" d="M279.448,207.2c-4.747,1.881-9.285,2.409-9.894,1.353-.583-1.011,2.035-4.858,6.056-8.007,3.932-3.079,8.035-4.577,9.955-1.248C287.541,202.721,284.257,205.291,279.448,207.2Z"/><path class="b" d="M269.3,194.273c-3.172,4.006-6.838,6.735-7.893,6.125-1.01-.583-.664-5.226,1.246-9.966,1.867-4.634,4.673-7.985,8-6.063C274.071,186.346,272.511,190.216,269.3,194.273Z"/><path class="f" d="M144.349,422.7c27.466-34.175,63.533-91.086,68.981-99.738a2.341,2.341,0,0,1,1.964-1.1c5.926-.072,30.813-2.424,33.477-36.666a300.119,300.119,0,0,0-.756-53.071c-2.894-25.277.174-50.932.174-50.932,1.522-7.6,1.434-26.286,1.434-26.286.076-.955.139-1.93.191-2.9.053.974.116,1.949.193,2.9,0,0-.089,18.689,1.433,26.286,0,0,3.069,25.655.174,50.932a300.119,300.119,0,0,0-.756,53.071c2.663,34.242,27.551,36.594,33.478,36.666a2.34,2.34,0,0,1,1.963,1.1c5.448,8.652,41.514,65.563,68.982,99.738,0,0,32.21-27.361,31.863-76.543-20.5-12.421-55.829-44.024-62.917-50.427-.65-.586-1.307-1.144-2-1.686-2.993-2.356-14.062-12.513-13.9-33.789.174-23.388-2.363-56.76-5.665-64.651s-9.1-18.843-11.065-28.843-10.116-32.676-12.387-40.938-11.4-57.936-15.6-59.916a3.17,3.17,0,0,0-3.329,1.628,6.212,6.212,0,0,0-2.627-.143c-9.569,1.3-7.159,27.823-7.159,27.823l-.679,33.74-.677-33.74s2.409-26.522-7.16-27.823a6.211,6.211,0,0,0-2.627.143,3.171,3.171,0,0,0-3.329-1.628c-4.2,1.98-13.33,51.655-15.6,59.916S210,156.761,208.034,166.762s-7.764,20.951-11.066,28.843-5.838,41.263-5.664,64.651c.157,21.276-10.911,31.433-13.9,33.789-.689.542-1.347,1.1-2,1.686-7.088,6.4-42.422,38.006-62.917,50.427"/><path class="g" d="M316.352,282.133a4,4,0,0,0-1.827,3.693,2.375,2.375,0,0,0,.352,1.1,2.716,2.716,0,0,0,1.677.99,4.4,4.4,0,0,0,2.026.064,3.249,3.249,0,1,0-1.8-6.234"/><path class="g" d="M283.013,329.037a3.463,3.463,0,0,0,3.9-.152,4.323,4.323,0,0,0,1.168-1.519c1.265-2.581-1.866-5.316-4.485-4.718C280.7,323.31,280.8,327.623,283.013,329.037Z"/><path class="h" d="M263.343,81.154s-.177-7.571-1.345-11.933c-.668-2.493-4.331-1.828-4.331-1.828-9.569,1.3-7.16,27.823-7.16,27.823"/><path class="i" d="M254.552,154.2s-3.1.586-4.623-.545"/><path class="i" d="M256.93,183.766a15.223,15.223,0,0,1-5.218.122"/><path class="j" d="M263.208,137.284s-3.329,2.069-4.288-1.892-.081-14.636-.081-14.636"/><path class="k" d="M260.731,66.13s-1.327-1.484-.394,12.055"/><path class="j" d="M250.782,130.418a278.73,278.73,0,0,1-.275-35.2c.8-12.873,8.137-13.482,8.137-13.482s5.292-2.911,5.607,1.37.928,12.2.39,16.713c0,0,2.327,7.878,4.021,16.2s6.773,23.854,7.517,28.124,1.64,15.183,2.373,19.025,6.126,23.655,9.27,29.8,4.333,13.619,3.6,17.5"/><path class="j" d="M264.641,99.817a2.2,2.2,0,0,1-3.706-.588c-1.623-2.734-2.291-17.495-2.291-17.495"/><path class="k" d="M263.343,81.154s-.177-7.571-1.345-11.933c-.668-2.493-4.331-1.828-4.331-1.828-9.569,1.3-7.16,27.823-7.16,27.823"/><path class="j" d="M387.159,346.158c-20.495-12.421-55.829-44.024-62.917-50.427-.65-.586-1.308-1.144-2-1.686-2.993-2.356-14.062-12.513-13.9-33.789.174-23.388-2.363-56.76-5.665-64.651s-9.1-18.843-11.066-28.843-10.115-32.676-12.386-40.938-11.4-57.936-15.6-59.916A3.148,3.148,0,0,0,260.2,67.72"/><path class="j" d="M287.789,233.193c-.6-11.071-4.775-19.115-7.022-26.338s-4.962-19.631-5.506-28.107-7.76-20.778-8.811-28.722a48.988,48.988,0,0,0-3.242-12.742c.29-2.432.588-4.518-.282-12.119s-4.087-4.409-4.087-4.409-8.076-.894-9.2,17.71c0,0-.227,8.839.383,16.447,0,0-.088,18.689,1.434,26.286,0,0,3.068,25.655.174,50.932a300.119,300.119,0,0,0-.756,53.071c2.663,34.242,27.551,36.6,33.477,36.666a2.338,2.338,0,0,1,1.963,1.1c5.449,8.652,41.515,65.563,68.983,99.738"/><path class="i" d="M292.319,237.245s6.57,18.815-1.3,37.965"/><path class="l" d="M300.526,345.992a86.327,86.327,0,0,0,.649,19.77c.43,2.891,1.049,5.859,2.74,8.243s4.717,4.047,7.549,3.323c3.168-.809,4.572-3.47,5.822-6.491"/><path class="g" d="M299.948,351.855a1.8,1.8,0,0,0-.7,1.339.96.96,0,0,0,1.211.75,1.054,1.054,0,0,0,.616-1.324,1.17,1.17,0,0,0-1.323-.692"/><path class="g" d="M300.723,358.158a.871.871,0,0,0-1,.547,1.106,1.106,0,0,0,.785,1.439,1.076,1.076,0,0,0,1.213-1.084,1.047,1.047,0,0,0-1.367-.853"/><path class="g" d="M301.511,364.636a1.048,1.048,0,1,0-.279,2.075,1.03,1.03,0,1,0,.017-2.054"/><path class="g" d="M303.059,370.756a.984.984,0,0,0-1.121.792,1.221,1.221,0,0,0,.691,1.252.873.873,0,0,0,.848,0,.806.806,0,0,0,.261-.306,1.127,1.127,0,0,0-.938-1.645"/><path class="g" d="M306.322,375.046a.648.648,0,0,0-.668.434,1.278,1.278,0,0,0,.032.847,1.135,1.135,0,0,0,.349.552.829.829,0,0,0,1.091-.142,1.035,1.035,0,0,0,.091-1.138,1.388,1.388,0,0,0-.966-.667"/><path class="g" d="M311.559,376.112a.647.647,0,0,0-.409.616.983.983,0,0,0,.332.693.818.818,0,0,0,1.12.077.777.777,0,0,0,.152-.628,1.083,1.083,0,0,0-.548-.806.875.875,0,0,0-.95.087"/><path class="g" d="M315.591,372.266c-.294-.038-.446.345-.455.642a1.309,1.309,0,0,0,.214.873.907.907,0,0,0,1.421-.167,1.137,1.137,0,0,0-.44-1.46.963.963,0,0,0-1.027-.015"/><path class="m" d="M310.307,377.5a37.257,37.257,0,0,1-.068,6.144"/><path class="m" d="M304.1,389.978c1.287-.674,1.9-2.138,2.547-3.44s1.611-2.681,3.055-2.843c-1.583,2.1-.981,5.336-2.974,7.057"/><path class="m" d="M306.125,390.268a11.739,11.739,0,0,0,1.58-3.314,6.488,6.488,0,0,1,2.483-3.728,14.242,14.242,0,0,1-1.162,7.415"/><path class="m" d="M312.03,390.244q-.443-2.8-.979-5.583c-.112-.576-.307-1.249-.863-1.435-.148-.05.389-.027.524.051a4.922,4.922,0,0,1,2.008,2.515,14.659,14.659,0,0,1,.734,3.188"/><path class="m" d="M310.915,383.066a7.046,7.046,0,0,1,3.162,2.858c.378.653.65,1.367,1.071,1.994a2.714,2.714,0,0,0,1.786,1.28"/><path class="m" d="M310.479,383.016a28.064,28.064,0,0,1,.275,7.882"/><path class="m" d="M310.1,383.4a13.435,13.435,0,0,0-.914,3.807,10.571,10.571,0,0,1-1.31,3.369"/><path class="m" d="M310.86,383.459a9.434,9.434,0,0,1,.623,1.154c.786,1.831.482,4.053,1.542,5.74"/><path class="l" d="M308.78,359.045a4.251,4.251,0,0,0,1.839,5.756c1.75.8,3.819.266,5.553-.567a27.037,27.037,0,0,0,5.286-3.523,63.225,63.225,0,0,0,22.929-45.944c.06-1.556-.04-3.341-1.255-4.314"/><path class="l" d="M310.11,360.578c-.377,2.6-.272,5.845,2.043,7.084,2.079,1.113,4.6-.151,6.535-1.5a63.672,63.672,0,0,0,19.237-22.027,82.672,82.672,0,0,0,8.847-27.987,6.251,6.251,0,0,0-.39-4.077c-.716-1.194-2.643-1.71-3.5-.609"/><path class="l" d="M308.1,358.13c-1.13.575-1.942,2.9-1.288,3.984a3.8,3.8,0,0,0,3.253,1.636,9.482,9.482,0,0,0,3.665-.918c7.822-3.261,14.434-8.862,20.438-14.843,7.829-7.8,15.129-16.952,16.955-27.852.211-1.259.238-3.694-.463-4.761s-1.819-.893-2.5.19"/><path class="l" d="M314.02,366.711a2.215,2.215,0,0,0,.1,3.074,4.215,4.215,0,0,0,3.171,1.052c2.883-.08,5.469-1.7,7.873-3.294a147.161,147.161,0,0,0,20.545-15.8,66.27,66.27,0,0,0,15.2-20.828c.7-1.578,1.324-3.334.86-4.995s-2.518-2.941-3.972-2.013"/><path class="g" d="M325.442,365.746a1.24,1.24,0,0,0-.325,1.1,1.085,1.085,0,0,0,.787.815,1,1,0,1,0-.194-1.877"/><path class="g" d="M330.58,362.284a1.292,1.292,0,0,0-.479,1.64,1.041,1.041,0,0,0,1.554.011,1.128,1.128,0,0,0,.2-1.236.935.935,0,0,0-1.123-.46"/><path class="g" d="M335.39,358.949a.912.912,0,0,0-.541,1.387,1.31,1.31,0,0,0,1.613.332,1.14,1.14,0,0,0,.6-1.529,1.108,1.108,0,0,0-.9-.439,3.258,3.258,0,0,0-1.019.195"/><path class="g" d="M340.578,354.63c-.36-.038-.62.368-.639.73a1.247,1.247,0,0,0,.989,1.291,1,1,0,0,0,1.111-1.059,1.04,1.04,0,0,0-.672-.766,1.612,1.612,0,0,0-1.047.007"/><path class="g" d="M346.005,349.848a1.8,1.8,0,0,0-.787,1.328,1.216,1.216,0,1,0,.63-1.048"/><path class="g" d="M350.276,345.515a.677.677,0,0,0-.612.552.984.984,0,0,0,.258.822,1.325,1.325,0,0,0,1.991-.134.878.878,0,0,0,.133-.78.913.913,0,0,0-.517-.486,1.465,1.465,0,0,0-1.255.064"/><path class="g" d="M354.242,340.248a1.217,1.217,0,0,0-.473,1.557,1.011,1.011,0,0,0,1.127.535,1,1,0,0,0,.652-.726,1.467,1.467,0,0,0-.14-.99,1.179,1.179,0,0,0-.525-.559.667.667,0,0,0-.73.09"/><path class="g" d="M357.993,335.336a.58.58,0,0,0-.682.086.876.876,0,0,0-.253.67,1.2,1.2,0,0,0,1.295,1.12,1.148,1.148,0,0,0,.908-1.428,1.1,1.1,0,0,0-1.576-.553"/><path class="g" d="M360.567,329.815a.425.425,0,0,0-.524.158,1.007,1.007,0,0,0-.146.572,1.138,1.138,0,0,0,.346.959,1.006,1.006,0,0,0,1.274-.295,1.476,1.476,0,0,0,.374-1.234,1.05,1.05,0,0,0-.911-.848.6.6,0,0,0-.49.178.361.361,0,0,0,.007.487"/><path class="g" d="M361.268,323.917a1.093,1.093,0,0,0-1.25,1.06,1.014,1.014,0,0,0,.142.584.9.9,0,0,0,1.16.272,1.022,1.022,0,0,0,.454-1.133,1.194,1.194,0,0,0-.93-.829"/><path class="g" d="M321.006,368.579a1.2,1.2,0,0,0-.447,1.08c0,.509.231,1.143.739,1.161a.91.91,0,0,0,.745-.5,1.421,1.421,0,0,0,.15-1.318.875.875,0,0,0-1.149-.443"/><path class="g" d="M315.555,369.547a.508.508,0,0,0-.576.176,1.124,1.124,0,0,0-.2.6,1.328,1.328,0,0,0,.051.582.935.935,0,0,0,1.237.477,1.082,1.082,0,0,0,.526-1.264,1.282,1.282,0,0,0-1.114-.855"/><path class="n" d="M343.08,310.207a89.616,89.616,0,0,1-32.4,43.921,22.865,22.865,0,0,1-4.455,2.335,3.724,3.724,0,0,1-2.241-1.182c-.554-.669-.7-2.105.042-2.55,8.046-4.828,15.43-12.8,21.2-20.3,5.879-7.637,10.357-15.084,13.316-24.319a2.986,2.986,0,0,1,2.874-.642C342.317,307.856,343.4,309.264,343.08,310.207Z"/><path class="l" d="M305.354,352.118c-.167.029-.107.284,0,.42a26.738,26.738,0,0,0,2.783,3.071"/><path class="l" d="M308.513,349.692a6.775,6.775,0,0,0,3.7,3.324"/><path class="l" d="M312.1,346.706a11.188,11.188,0,0,1,4.218,3.047"/><path class="l" d="M315.3,343.841a8.92,8.92,0,0,1,4.24,3.042"/><path class="l" d="M319.154,340.306a28.238,28.238,0,0,1,3.542,2.931"/><path class="l" d="M322.17,336.349a9.915,9.915,0,0,1,4.08,3.479"/><path class="l" d="M324.95,332.917c.152-.256.542-.1.777.084l3.509,2.714"/><path class="l" d="M328.242,328.656a7.2,7.2,0,0,1,4.18,2.654"/><path class="l" d="M330.73,324.631a8.706,8.706,0,0,1,4.414,2.726"/><path class="l" d="M333.394,320.4a10.765,10.765,0,0,1,4.392,1.753"/><path class="l" d="M335.71,316.067a5.334,5.334,0,0,1,4.517,1.8"/><path class="l" d="M337.554,311.607a6.649,6.649,0,0,1,4.234,1.508"/><path class="l" d="M306.979,350.748a7.57,7.57,0,0,0,3.081,3.793"/><path class="l" d="M313.967,345.245l3.867,2.774"/><path class="l" d="M320.639,337.988c-.1.183.123.365.3.459a17.312,17.312,0,0,1,3.809,2.663"/><path class="l" d="M326.775,330.719a12.528,12.528,0,0,1,4.467,2.632"/><path class="l" d="M332.442,322.15a15.875,15.875,0,0,1,4.426,2.173"/><path class="l" d="M336.374,313.956a10.7,10.7,0,0,1,4.674,1.61"/><path class="l" d="M300.738,345.835a2.836,2.836,0,0,0,2.809,3.6,5.256,5.256,0,0,0,2.733-1.5,81.336,81.336,0,0,0,26.209-43.711c.28-1.26.485-2.726-.345-3.715"/><path class="g" d="M306.72,345.983a1.182,1.182,0,1,0,.355-.13"/><path class="g" d="M310.731,341.867a1.155,1.155,0,0,0-.546,1.566,1.2,1.2,0,0,0,1.625.408,1.25,1.25,0,0,0,.378-1.648,1.306,1.306,0,0,0-1.641-.464"/><path class="g" d="M314.252,337.838c-.285.067-.352.437-.356.73a1.968,1.968,0,0,0,.2,1.079,1.1,1.1,0,0,0,1.591.2,1.255,1.255,0,0,0,.13-1.651,1.46,1.46,0,0,0-1.645-.428"/><path class="g" d="M317.5,333.935a.986.986,0,0,0-.356,1.225,1.32,1.32,0,0,0,1.114.728.867.867,0,0,0,.55-.122.788.788,0,0,0,.243-.3,1.193,1.193,0,0,0-1.488-1.638"/><path class="g" d="M320.445,329.911a.971.971,0,0,0-.093,1.294,1.13,1.13,0,0,0,1.558.156,1.164,1.164,0,0,0,.136-1.571,1.2,1.2,0,0,0-1.575-.2"/><path class="g" d="M323.044,325.267a1.344,1.344,0,0,0,.345,1.756,1.024,1.024,0,0,0,1.523-.641,1.108,1.108,0,0,0-.638-1.052,2.171,2.171,0,0,0-1.279-.152"/><path class="g" d="M325.727,320.588a1.844,1.844,0,0,0-.26,1.617,1.149,1.149,0,0,0,1.354.728,1.42,1.42,0,0,0,.815-1.055,1.215,1.215,0,0,0-.029-.81,1.019,1.019,0,0,0-.5-.46,1.5,1.5,0,0,0-1.519.169"/><path class="g" d="M327.906,316.434c-.4-.041-.655.462-.6.86a1.265,1.265,0,0,0,1.357,1.058,1.117,1.117,0,0,0,.876-1.417,1,1,0,0,0-1.565-.358"/><path class="g" d="M329.668,311.266a1.059,1.059,0,0,0-.241,1.439,1.072,1.072,0,0,0,1.374.269,1.1,1.1,0,0,0,.41-1.346,1.129,1.129,0,0,0-1.28-.6"/><path class="g" d="M331.051,306.234a1.159,1.159,0,0,0-.4.958,1.425,1.425,0,0,0,.174.723,1.115,1.115,0,0,0,1.673.2,1.145,1.145,0,0,0-.187-1.688,1.179,1.179,0,0,0-1.642.487"/><path class="g" d="M332.521,301.517a.909.909,0,0,0-.647.543.943.943,0,0,0,.67,1.218.961.961,0,0,0,1.091-.875.979.979,0,0,0-1.022-.964"/><path class="g" d="M302.278,347.962a.976.976,0,0,0-1.015.765,1.176,1.176,0,0,0,.538,1.2,1.194,1.194,0,0,0,1.227.033,1.015,1.015,0,0,0,.454-1.114,1.589,1.589,0,0,0-1.03-.9"/><path class="o" d="M332.168,300.992a86.52,86.52,0,0,1-26.023,39.381c-2.237,1.919-4.822,4.658-7.762,4.861a5.067,5.067,0,0,1-4.608-2.423c-.929-1.572-1.527-4.283.019-5.255a72.321,72.321,0,0,0,31.077-42.329c-.07.153.162-.086.092.067a3.349,3.349,0,0,1,3.343-.385,8.213,8.213,0,0,1,2.812,2.1A3.906,3.906,0,0,1,332.168,300.992Z"/><path class="p" d="M293.906,337.426a31.655,31.655,0,0,0,5.037,7.207"/><path class="p" d="M295.576,336.661a43.989,43.989,0,0,0,5.863,7.416"/><path class="p" d="M297.078,335.238a.553.553,0,0,0,.132.452,39.864,39.864,0,0,0,5.826,7.52"/><path class="p" d="M298.548,334.348l4.114,5.931a5.819,5.819,0,0,0,1.622,1.76"/><path class="p" d="M300.032,333.3a52.313,52.313,0,0,0,5.873,7.309"/><path class="p" d="M301.338,332.215a33.113,33.113,0,0,0,6.435,6.719"/><path class="p" d="M302.733,331.349,305,333.842a16.231,16.231,0,0,0,4.189,3.652"/><path class="p" d="M303.9,329.786a55.845,55.845,0,0,0,5.257,5.713,3.412,3.412,0,0,0,1.119.794"/><path class="p" d="M305.571,328.612q2.061,2.3,4.122,4.593a5.6,5.6,0,0,0,2.115,1.693"/><path class="p" d="M306.874,327.276a6.8,6.8,0,0,0,1.41,1.917q.791.845,1.583,1.687a7.846,7.846,0,0,0,3.2,2.395"/><path class="p" d="M308.1,325.532a13.216,13.216,0,0,0,6.261,6.418"/><path class="p" d="M309.382,324.587a17.852,17.852,0,0,0,6.665,5.816"/><path class="p" d="M310.33,323.2a36.473,36.473,0,0,0,2.977,3.345,9.938,9.938,0,0,0,3.3,2.385"/><path class="p" d="M311.422,321.842l2.167,2.2c.576.584,1.153,1.169,1.78,1.7a27.433,27.433,0,0,0,2.727,1.943"/><path class="p" d="M312.539,320.272a29.478,29.478,0,0,0,6.966,5.571"/><path class="p" d="M313.811,318.9a2.559,2.559,0,0,1,.574.582,8.137,8.137,0,0,0,.951.9,25.335,25.335,0,0,0,5.145,3.691"/><path class="p" d="M293.239,338.512a9.877,9.877,0,0,0,1.842,4.151,5.981,5.981,0,0,0,2.463,2.422"/><path class="p" d="M314.651,317.527l4.588,3.416a7.294,7.294,0,0,1,1.97,1.9"/><path class="p" d="M315.644,315.968a27.323,27.323,0,0,1,6.8,5.549"/><path class="p" d="M316.549,314.776a18.323,18.323,0,0,1,7.242,5.134"/><path class="p" d="M317.242,313.627a17.32,17.32,0,0,1,6.209,3.651,2.7,2.7,0,0,1,.817,1.087"/><path class="p" d="M318.071,311.922a23.834,23.834,0,0,1,4.995,3.126,7.279,7.279,0,0,1,1.929,1.854"/><path class="p" d="M318.873,310.7a4.315,4.315,0,0,1,1.813.55,21.983,21.983,0,0,1,5.382,3.74"/><path class="p" d="M319.681,309.185a.54.54,0,0,1,.463.02,18.038,18.038,0,0,1,6.631,4.272"/><path class="p" d="M320.244,307.768a13.145,13.145,0,0,1,5.244,2.417,26.1,26.1,0,0,1,2.135,1.9"/><path class="p" d="M321.029,306.532c2.7.29,5.1,1.821,7.306,3.409"/><path class="p" d="M321.768,304.9a13.752,13.752,0,0,1,7.24,4.023"/><path class="p" d="M322.05,303.265a16.247,16.247,0,0,1,6.226,2.932,10.687,10.687,0,0,1,1.329,1.185"/><path class="p" d="M322.7,301.885a11.236,11.236,0,0,1,7.717,3.779"/><path class="p" d="M323.424,300.661a7.57,7.57,0,0,1,4.1,1.3,32.882,32.882,0,0,1,3.429,2.266"/><path class="p" d="M323.961,298.81a15.355,15.355,0,0,1,7.393,3.732"/><path class="p" d="M324.419,297.432a15,15,0,0,1,7.469,3.487"/><path class="p" d="M324.777,296.288a6.653,6.653,0,0,1,3.044.276,6.43,6.43,0,0,1,4.052,2.476"/><path class="g" d="M292.552,332.577c1.664.769,3.943.491,4.92-1.059a5.255,5.255,0,0,0,.637-2.138,4.475,4.475,0,0,0-.492-3.283C293.723,320.88,285.282,329.224,292.552,332.577Z"/><path class="g" d="M296.422,323.219a4.342,4.342,0,0,0,2.893,3.654,5.9,5.9,0,0,0,1.979.251,2.8,2.8,0,0,0,1.176-.223,2.725,2.725,0,0,0,.9-.8,6.025,6.025,0,0,0,1.315-3.023C305.284,317.421,295.887,317.113,296.422,323.219Z"/><path class="g" d="M303.224,318.155a4.013,4.013,0,0,0,1.5,2.1,4.753,4.753,0,0,0,1.88.935,3.752,3.752,0,0,0,3.76-5.984C308,312.2,302.156,313.932,303.224,318.155Z"/><path class="g" d="M312.9,314.66c5.191-1.368,2.972-8.908-2.133-7.148C306.342,309.037,308.269,315.881,312.9,314.66Z"/><path class="g" d="M312.631,303.748a3.945,3.945,0,0,0,2.36,3.8,3.529,3.529,0,0,0,4.194-1.325,4.68,4.68,0,0,0,.605-2.23A3.583,3.583,0,1,0,312.631,303.748Z"/><path class="g" d="M317.641,300.29a3.51,3.51,0,0,0,4.148-.188,5.324,5.324,0,0,0,1.085-1.414,3.547,3.547,0,0,0,.61-2.42c-.407-1.919-3.965-3.308-5.615-2.458C315.459,295.054,315.544,298.858,317.641,300.29Z"/><path class="g" d="M318.435,289.966a4.052,4.052,0,0,0,2.551,3.615,3.635,3.635,0,0,0,4.158-1.3C328.173,287.753,318.235,283.744,318.435,289.966Z"/><path class="g" d="M284.481,335.4a5.189,5.189,0,0,0,3.465,1.021,2.628,2.628,0,0,0,1.483-.278,2.662,2.662,0,0,0,.873-1.183c1.537-3.28-.141-6.579-4.079-6.257C283.163,328.951,282.35,333.449,284.481,335.4Z"/><path class="l" d="M286.949,325.084a2.948,2.948,0,0,0,.971,3.5,4.663,4.663,0,0,0,3.751.7,11.788,11.788,0,0,0,3.59-1.565,59.169,59.169,0,0,0,21.8-23.251,49.189,49.189,0,0,0,2.791-6.191,11.97,11.97,0,0,0,.923-4.888,5.072,5.072,0,0,0-2.413-4.152"/><path class="l" d="M305.934,356.3c-.987,1.146.048,3.09,1.5,3.5a6.282,6.282,0,0,0,4.349-.862,53.987,53.987,0,0,0,19.35-16.524,77.85,77.85,0,0,0,11.341-22.92c.924-2.922,1.722-5.975,1.363-9.019-.075-.632-.641-1.454-1.142-1.061"/><path class="i" d="M236.316,81.154s.177-7.571,1.345-11.933c.668-2.493,4.33-1.828,4.33-1.828,9.569,1.3,7.16,27.823,7.16,27.823"/><path class="i" d="M207.34,237.245s-6.571,18.815,1.3,37.965"/><path class="i" d="M245.106,154.2s3.1.586,4.623-.545"/><path class="i" d="M242.728,183.766a15.23,15.23,0,0,0,5.219.122"/><path class="j" d="M236.45,137.284s3.33,2.069,4.288-1.892.082-14.636.082-14.636"/><path class="h" d="M238.926,66.13s1.327-1.484.4,12.055"/><path class="j" d="M248.876,130.418a278.535,278.535,0,0,0,.275-35.2c-.8-12.873-8.137-13.482-8.137-13.482s-5.292-2.911-5.606,1.37-.928,12.2-.39,16.713c0,0-2.328,7.878-4.022,16.2s-6.773,23.854-7.516,28.124-1.641,15.183-2.373,19.025-6.126,23.655-9.271,29.8-4.333,13.619-3.594,17.5"/><path class="j" d="M235.018,99.817a2.2,2.2,0,0,0,3.705-.588c1.623-2.734,2.291-17.495,2.291-17.495"/><path class="j" d="M112.5,346.158c20.5-12.421,55.83-44.024,62.917-50.427.651-.586,1.309-1.144,2-1.686,2.993-2.356,14.062-12.513,13.9-33.789-.174-23.388,2.363-56.76,5.664-64.651s9.1-18.843,11.066-28.843,10.116-32.676,12.387-40.938,11.4-57.936,15.6-59.916a3.147,3.147,0,0,1,3.421,1.812"/><path class="j" d="M211.869,233.193c.6-11.071,4.776-19.115,7.023-26.338s4.961-19.631,5.505-28.107,7.76-20.778,8.811-28.722a48.988,48.988,0,0,1,3.242-12.742c-.289-2.432-.587-4.518.283-12.119s4.087-4.409,4.087-4.409,8.075-.894,9.2,17.71c0,0,.228,8.839-.383,16.447,0,0,.089,18.689-1.433,26.286,0,0-3.069,25.655-.175,50.932a300.065,300.065,0,0,1,.757,53.071c-2.459,31.609-23.856,36.044-31.793,36.6a6.089,6.089,0,0,0-4.706,2.84c-8.019,12.679-41.847,65.618-67.924,98.063"/><path class="i" d="M238.926,66.13s.9-1.01.687,6.54c-.035,1.237-.129,3.146-.292,5.515"/><path class="o" d="M215.5,324.251a86.6,86.6,0,0,1-36.74-33.986c-2.068.135-3.84,1.634-5.468,2.917a33.381,33.381,0,0,0-8.208,9.47c4.154,6.435,8.625,13.018,14.025,18.449,7.536,7.578,16.289,14.5,26.534,17.546a7.968,7.968,0,0,0,2.783-2.361A35.511,35.511,0,0,0,215.5,324.251Z"/><path class="q" d="M166.206,304.116a48.325,48.325,0,0,1,12.755-12.833"/><path class="q" d="M167.5,305.47a70.518,70.518,0,0,1,12.741-12.475"/><path class="q" d="M168.5,307.171a76.275,76.275,0,0,1,12.654-12.294"/><path class="q" d="M169.618,309.059a137.624,137.624,0,0,1,13.06-12.4"/><path class="q" d="M170.7,310.753a177.559,177.559,0,0,1,12.8-12.314"/><path class="q" d="M172.167,312.564a80.091,80.091,0,0,1,12.88-13.1"/><path class="q" d="M173.157,314.239a78.257,78.257,0,0,1,12.753-12.591"/><path class="q" d="M174.53,315.89A91.3,91.3,0,0,1,187.788,303"/><path class="q" d="M176.241,317.849a91.735,91.735,0,0,1,12.651-12.82"/><path class="q" d="M177.428,319.206a101.334,101.334,0,0,0,13.208-13.114"/><path class="q" d="M178.756,320.627a77.884,77.884,0,0,0,12.959-13.446"/><path class="q" d="M180.165,321.94a106.2,106.2,0,0,0,12.841-13.225"/><path class="q" d="M181.5,323.476A70.757,70.757,0,0,0,194.432,309.8"/><path class="q" d="M182.659,324.77a75.415,75.415,0,0,0,12.9-13.234"/><path class="q" d="M184.52,325.951a68.061,68.061,0,0,0,12.186-13.423"/><path class="q" d="M186.017,327.366a47.848,47.848,0,0,0,12.247-13.708"/><path class="q" d="M187.9,328.893a50.042,50.042,0,0,0,11.893-13.9"/><path class="q" d="M189.728,330.226a55.345,55.345,0,0,0,11.795-13.937"/><path class="q" d="M191.522,331.759a43.549,43.549,0,0,0,11.713-14.224"/><path class="q" d="M193.532,332.565a38.226,38.226,0,0,0,11.68-14.387"/><path class="q" d="M195.391,333.955c.141-.1.281-.208.421-.314,4.75-3.591,7.849-8.895,10.823-14.054"/><path class="q" d="M197.637,335.024c4.682-3.613,7.761-8.866,10.725-13.984"/><path class="q" d="M199.762,336.261a64.121,64.121,0,0,0,10.514-14.513"/><path class="q" d="M201.9,337.185a53.9,53.9,0,0,0,10.132-14.6"/><path class="q" d="M204.1,338.089a45.877,45.877,0,0,0,9.52-14.659"/><path class="q" d="M164.762,303.373c0-.138.246.029.151.129s-.259.045-.387,0c-1.449-.555-3.073.5-3.859,1.842-1.514,2.576-.913,5.844-.021,8.7a52.766,52.766,0,0,0,22.727,29.054,24.957,24.957,0,0,0,8.065,3.412c2.88.56,7.045.713,9.575-.774,1.756-1.034,3.265-2.949,2.888-4.951"/><path class="g" d="M159.285,307.043a2.717,2.717,0,0,0,2.943.413,2.659,2.659,0,0,0,1.409-2.973c-.334-.99-1.825-1.556-2.8-1.685C158.452,302.479,157.66,305.575,159.285,307.043Z"/><path class="g" d="M157.887,309.98a3.464,3.464,0,0,0-.242,1.254,2.328,2.328,0,0,0,1.53,2.035,2.689,2.689,0,0,0,2.542-.467,3.2,3.2,0,0,0,1.137-2.361,1.882,1.882,0,0,0-.3-1.191A2.654,2.654,0,0,0,157.887,309.98Z"/><path class="g" d="M159.529,315.745a2.936,2.936,0,0,0,.964,2.609,2.685,2.685,0,0,0,3.21.429,3.279,3.279,0,0,0,1-1.238,3.04,3.04,0,0,0,.387-1.2C165.265,313.435,160.085,312.7,159.529,315.745Z"/><path class="g" d="M162.319,323.519a2.965,2.965,0,0,0,2.086,1.171,1.592,1.592,0,0,0,.952-.148,2.081,2.081,0,0,0,.571-.552,4.7,4.7,0,0,0,.708-1.1c.642-1.576-.76-3.765-2.558-3.518A2.735,2.735,0,0,0,162.319,323.519Z"/><path class="g" d="M167.444,330.407a2.215,2.215,0,0,0,.978.042,2.337,2.337,0,0,0,1.024-.528,4.041,4.041,0,0,0,1.224-1.863,2.1,2.1,0,0,0,.089-1.175,2.268,2.268,0,0,0-.507-.855c-1.03-1.205-3.218-2.068-4.4-.629A3.137,3.137,0,0,0,167.444,330.407Z"/><path class="g" d="M168.972,331.545a2.932,2.932,0,0,0-.36,1.2,2.244,2.244,0,0,0,.56,1.4,3.118,3.118,0,0,0,2.6,1.211,2.567,2.567,0,0,0,2.05-3.78C172.637,329.392,170.055,329.283,168.972,331.545Z"/><path class="g" d="M173.278,338.333a2.776,2.776,0,0,0,2.193,1.736,2.555,2.555,0,0,0,2.483-1.231,3.261,3.261,0,0,0,.372-1.545c.029-1.529-1.416-3.287-3.089-2.96S172.713,336.867,173.278,338.333Z"/><path class="g" d="M178.241,342.143a2.822,2.822,0,0,0,2.025,1.422,2.517,2.517,0,0,0,1.179.038A3,3,0,0,0,183,342.3a2.732,2.732,0,0,0-1.874-4.355C179.158,337.67,177.472,340.419,178.241,342.143Z"/><path class="g" d="M184.59,341.968a3.513,3.513,0,0,0-1.01,1.781,2.069,2.069,0,0,0-.057,1.06A2.221,2.221,0,0,0,184.585,346a4.21,4.21,0,0,0,1.465.627,2.746,2.746,0,0,0,2.6-.975,2.631,2.631,0,0,0,.283-2.746A3.084,3.084,0,0,0,184.59,341.968Z"/><path class="g" d="M189.888,346.326a2.1,2.1,0,0,0,.322.989,2.8,2.8,0,0,0,1.461.967,2.535,2.535,0,0,0,1.433.173,2.106,2.106,0,0,0,1.034-.688c1.2-1.357,1.167-3.845-.849-4.433A2.869,2.869,0,0,0,189.888,346.326Z"/><path class="g" d="M196.989,343.935a2.238,2.238,0,0,0-.706,1.872,3.5,3.5,0,0,0,1.079,1.962,3.082,3.082,0,0,0,1.535.973,2.233,2.233,0,0,0,.831,0,2.826,2.826,0,0,0,2.246-3.017C201.706,343.636,198.539,342.525,196.989,343.935Z"/><path class="g" d="M205.062,343.084a2.812,2.812,0,0,0,1.076-2.49,3.216,3.216,0,0,0-1.443-2.333c-.3-.194-2.744,3.465-2.775,3.988C201.827,343.856,204.119,343.783,205.062,343.084Z"/><path class="m" d="M158.221,310.229c-.677-.9-2.233-.57-2.878.355a4.875,4.875,0,0,0-.519,3.269c.75,7.944,4.534,15.248,8.449,22.2,4.975,8.831,10.668,17.858,19.526,22.785a14.193,14.193,0,0,0,5.918,1.986,7.013,7.013,0,0,0,5.7-2.109,7.963,7.963,0,0,0,1.639-3.5,14.1,14.1,0,0,0,.166-5.5"/><path class="m" d="M151.7,315.186a2.025,2.025,0,0,0-2.354.521,4.553,4.553,0,0,0-1.011,2.353c-.871,4.774.991,9.6,3.1,13.971,5.519,11.467,13.1,22.116,23.145,29.936a24.186,24.186,0,0,0,6.12,3.706,7.784,7.784,0,0,0,4.652.5,4.051,4.051,0,0,0,3.106-3.214"/><path class="m" d="M149.882,316.411a4.261,4.261,0,0,0-3.031.818,3.919,3.919,0,0,0-.9,2.647,17.829,17.829,0,0,0,1.142,7.606,30.142,30.142,0,0,0,3.38,5.845c4.338,6.317,8.872,12.55,14.323,17.936s11.889,9.925,19.171,12.311c1.624.532,3.428.949,5.006.294s2.586-2.826,1.5-4.148"/><path class="m" d="M157.12,310.778a4.927,4.927,0,0,0-4.794,1.526,7.435,7.435,0,0,0-1.516,4.629c-.244,6.273,3.255,12.028,6.856,17.171,3.824,5.463,7.961,10.795,13.139,15s11.514,7.231,18.178,7.488a9.737,9.737,0,0,0,6.007-1.348c1.711-1.2,2.708-3.61,1.756-5.47"/><path class="g" d="M152.089,311.37a1.09,1.09,0,0,0-.582,1.912.678.678,0,0,0,.431.18c.333,0,.566-.331.69-.641a1.586,1.586,0,0,0,.127-.9.78.78,0,0,0-.594-.628"/><path class="g" d="M150.865,315.045a1.015,1.015,0,1,0,.943.846.788.788,0,0,0-.207-.427,1.3,1.3,0,0,0-1.081-.207"/><path class="g" d="M151.129,319.4c-.529-.122-1.015.47-.96,1.01a1.127,1.127,0,0,0,1.081.995,1.013,1.013,0,0,0,.973-1.053.921.921,0,0,0-1.176-.753"/><path class="g" d="M152.01,323.726a1.009,1.009,0,0,0-.575,1.223,1,1,0,0,0,1.2.608.988.988,0,0,0,.612-1.2.973.973,0,0,0-1.2-.59"/><path class="g" d="M154.329,327.809a.718.718,0,0,0-.832.075,1.045,1.045,0,0,0-.343.8,1.224,1.224,0,0,0,1.284,1.221,1.037,1.037,0,1,0-.552-1.979"/><path class="g" d="M156.388,331.226a1.231,1.231,0,0,0-.624,1.273,1.082,1.082,0,0,0,1.088.861.968.968,0,0,0,.873-1.036.874.874,0,0,0-1.126-.683"/><path class="g" d="M159.069,335.031a.8.8,0,0,0-1.024.337,1.124,1.124,0,0,0,.07,1.134,1.28,1.28,0,0,0,1.324.577,1.059,1.059,0,0,0,.8-1.147.9.9,0,0,0-1.158-.685c0-.086.007-.172.011-.258"/><path class="g" d="M161.665,338.563c-.211-.164-.486.126-.553.384a1.523,1.523,0,0,0,.167,1.2,1.116,1.116,0,0,0,1.061.509.96.96,0,1,0-.38-1.88"/><path class="g" d="M165.07,342.256a.882.882,0,0,0-.947.663,1.154,1.154,0,0,0,.776,1.4,1.044,1.044,0,0,0,1.253-.924.953.953,0,0,0-1.227-.883"/><path class="g" d="M168.465,345.9a.51.51,0,0,0-.719-.031.861.861,0,0,0-.239.74,1.227,1.227,0,0,0,1.015,1.086,1.012,1.012,0,0,0,1.112-.9.863.863,0,0,0-1.077-.834"/><path class="g" d="M171.9,348.925c.051-.053-.029-.132-.1-.15a.721.721,0,0,0-.793.454,1.078,1.078,0,0,0,.13.953,1.2,1.2,0,0,0,1.19.566.889.889,0,0,0,.7-1.034,1.334,1.334,0,0,0-1.033-.789"/><path class="g" d="M176.051,351.379a.609.609,0,0,0-.664.16.952.952,0,0,0-.232.671,1.174,1.174,0,0,0,.653,1.044,1.01,1.01,0,1,0,.346-1.93"/><path class="g" d="M180.478,353.529a.8.8,0,0,0-.669.088.758.758,0,0,0-.288.59,1.016,1.016,0,0,0,.947,1.032.933.933,0,0,0,.91-1.024.861.861,0,0,0-1.192-.605"/><path class="g" d="M184.726,354.76a1.267,1.267,0,0,0-.885,1.322,1.173,1.173,0,0,0,1.21,1,1.093,1.093,0,0,0,.955-1.21,1.024,1.024,0,0,0-1.308-.764"/><path class="g" d="M189.357,355.444a1.238,1.238,0,0,0-.544,1.391.984.984,0,0,0,1.3.575,1.078,1.078,0,0,0,.418-.4,1.24,1.24,0,0,0-.079-1.471.907.907,0,0,0-1.371.076"/><path class="g" d="M194.333,354.379c-.416.022-.6.587-.439.97a1.047,1.047,0,1,0,1.365-1.381.792.792,0,0,0-.954.229"/><path class="o" d="M185.242,367.859c-5.338-.2-10.251-2.918-14.608-6.008a79.621,79.621,0,0,1-22.66-24.791c-2.806-4.821-5.16-10.32-4.283-15.827-.259.276-1,.212-1.381.207a4.116,4.116,0,0,0-4.014,4.1,19.985,19.985,0,0,0,.984,6.129A71.475,71.475,0,0,0,181.866,374.1c1.229.438,2.881-1.108,3.39-2.309A6.322,6.322,0,0,0,185.242,367.859Z"/><path class="m" d="M138.359,327.782a10.316,10.316,0,0,1,5.135-4.77"/><path class="m" d="M139.227,330.893a25.09,25.09,0,0,1,4.678-4.779"/><path class="m" d="M140.445,334.449a14.031,14.031,0,0,1,4.122-4.014"/><path class="m" d="M141.79,337.154a.1.1,0,0,0,.043.146,31.651,31.651,0,0,0,4.016-3.606"/><path class="m" d="M143.516,340.546a20.2,20.2,0,0,0,4.045-3.4"/><path class="m" d="M145.252,344.273a30.619,30.619,0,0,0,4.469-3.934"/><path class="m" d="M147.593,347.918a19.154,19.154,0,0,0,4.552-4.026"/><path class="m" d="M150.379,351.307q2.219-1.8,4.268-3.789"/><path class="m" d="M153.547,354.841a1.143,1.143,0,0,0,.53-.233,21.119,21.119,0,0,0,4.213-3.7"/><path class="m" d="M156.883,358.507a27.518,27.518,0,0,0,4.347-4.4"/><path class="m" d="M160.175,361.363a19.424,19.424,0,0,0,3.986-4.579"/><path class="m" d="M163.667,364.236a10.97,10.97,0,0,0,3.471-4.4"/><path class="m" d="M167.167,366.624a11.053,11.053,0,0,0,3.429-4.106"/><path class="m" d="M171.082,368.766c-.007-.036-.06.022-.029.041s.068-.009.093-.035a17.093,17.093,0,0,0,3.064-4.142"/><path class="m" d="M174.991,370.979a12.25,12.25,0,0,0,3.161-4.815"/><path class="m" d="M178.934,372.932a8.091,8.091,0,0,0,2.991-5.044"/><text class="r" transform="translate(252.57 521.499)"><tspan x="-126.936" y="0">Namast</tspan></text></g></svg>