<svg xmlns="http://www.w3.org/2000/svg" width="152.595" height="139.861" viewBox="0 0 152.595 139.861"><defs><style>.a{fill:#ffcb4b;}.b{fill:#e59012;}.c{fill:#f8ac16;}.d{fill:#0c2650;}.e{fill:#1d5c9c;}.f{fill:#3782c5;}.g{fill:#c7e4f7;}.h{fill:#fff;}.i{fill:#f2a20e;}.j{fill:#2c2c2c;opacity:0.4;}.k{fill:#d16c19;}.l{fill:#f5ad00;}.m,.p{fill:#b6541b;}.n{fill:#ffd300;}.o{fill:#ef980b;}.p{opacity:0.55;mix-blend-mode:multiply;isolation:isolate;}.q{fill:#ca7119;}</style></defs><g transform="translate(-1077.042 -723.643)"><g transform="translate(1137.531 723.643)"><g transform="translate(0 1.954)"><path class="a" d="M1118.545,728.54l-4.241-2.447c-3.229-1.867-6.257-2.195-8.533-1.016h-.007l-4.246,2.394,1.7.092a8.962,8.962,0,0,0-.93,2.24c2.7.116,5.406.662,6.559,2.5a3.614,3.614,0,0,1,.872-.554l4.71,5.424,4.115-2.326V728.54Z" transform="translate(-1097.743 -724.387)"/><path class="b" d="M1119.215,756.792c-3.715-2.145-7.12-6.635-8.68-11.424l-2.773-8.557c-1.016-3.124-.848-5.837.457-7.438a4.823,4.823,0,0,1,.415-.418c-1.153-1.843-3.862-2.389-6.559-2.5a18.309,18.309,0,0,0,.725,10.14l2.253,6.971-.79,1.053s5.264,13.3,5.532,13.475c.184.115,2.618.607,4.2.906a25.285,25.285,0,0,0,5.222,4.112l13.115,7.57v4.705l4.125-2.326h0v-6.312Z" transform="translate(-1097.528 -721.034)"/><path class="c" d="M1117.645,761.03c-3.715-2.148-7.121-6.63-8.678-11.429l-2.776-8.549c-1.016-3.127-.84-5.842.457-7.443s3.453-1.714,5.873-.323l4.246,2.455v-6.317l-4.246-2.445c-4.264-2.463-8.173-2.248-10.474.57s-2.6,7.78-.822,13.28L1104,749.38c2.442,7.536,7.806,14.585,13.643,17.962l17.237,9.954v-6.317Z" transform="translate(-1100.08 -722.949)"/></g><g transform="translate(8.27)"><g transform="translate(11.731 80.232)"><g transform="translate(0 0)"><path class="d" d="M1151.718,788.945c-10.059,5.805-26.366,5.805-36.412,0s-10.059-15.221,0-21.029,26.353-5.8,36.412,0S1161.776,783.135,1151.718,788.945Z" transform="translate(-1107.594 -738.979)"/><path class="e" d="M1161.326,763.455l-6.388.034c-.462-.312-.953-.62-1.465-.919-10.471-6.049-27.451-6.049-37.922,0-.662.375-1.268.772-1.851,1.179l-6,.037v9.731h0c0,3.959,2.618,7.929,7.853,10.949,10.471,6.044,27.451,6.044,37.922,0,5.23-3.019,7.853-6.989,7.853-10.949h0Z" transform="translate(-1107.698 -747.971)"/><path class="f" d="M1133.615,758.038c-6.559.126-13.057,1.628-18.064,4.524-.662.375-1.268.772-1.851,1.179l-6,.037v9.731c0,3.959,2.618,7.929,7.853,10.949,5.012,2.891,11.505,4.4,18.064,4.519Z" transform="translate(-1107.698 -747.963)"/><path class="g" d="M1111.382,760.213l-3.683.029v9.731a11.03,11.03,0,0,0,3.683,7.837Z" transform="translate(-1107.698 -744.427)"/><path class="g" d="M1153.473,780.631c-10.471,6.047-27.451,6.047-37.922,0s-10.471-15.848,0-21.9,27.451-6.047,37.922,0S1163.941,774.581,1153.473,780.631Z" transform="translate(-1107.698 -754.201)"/><path class="h" d="M1153.47,770.674c-10.471,6.047-27.451,6.047-37.922,0-4.973-2.87-7.578-6.59-7.829-10.348-.276,4.159,2.326,8.368,7.829,11.545,10.471,6.041,27.451,6.041,37.922,0,5.5-3.177,8.105-7.386,7.827-11.545C1161.048,764.086,1158.444,767.8,1153.47,770.674Z" transform="translate(-1107.696 -744.244)"/></g><g transform="translate(7.356)"><path class="e" d="M1143.118,760.938c-.328-.229-.688-.454-1.063-.667-7.6-4.385-19.921-4.385-27.514,0a15.7,15.7,0,0,0-1.332.853l-1.691.013v9.051a15.089,15.089,0,0,0,3.022,2.258c7.593,4.387,19.915,4.387,27.514,0,3.8-2.192,5.706-5.073,5.706-7.943v-3.592Z" transform="translate(-1108.842 -749.679)"/><path class="f" d="M1114.541,760.267a15.7,15.7,0,0,0-1.332.853l-1.691.013v9.051a15.087,15.087,0,0,0,3.022,2.258,27.819,27.819,0,0,0,13.115,3.282V756.985A27.756,27.756,0,0,0,1114.541,760.267Z" transform="translate(-1108.842 -749.675)"/><path class="f" d="M1113.176,758.565l-2.676.013v3.353a7.961,7.961,0,0,0,2.676,5.685Z" transform="translate(-1110.499 -747.106)"/><path class="f" d="M1143.712,773.376c-7.6,4.39-19.921,4.39-27.514,0s-7.6-11.495,0-15.885,19.915-4.387,27.514,0S1151.31,768.991,1143.712,773.376Z" transform="translate(-1110.499 -754.201)"/></g></g><g transform="translate(23.807 67.779)"><path class="h" d="M1116.616,763.975c5.75,3.327,15.084,3.327,20.834,0s5.763-8.712,0-12.03-15.084-3.316-20.834,0S1110.858,760.657,1116.616,763.975Z" transform="translate(-1112.297 -749.458)"/></g><g transform="translate(19.09 80.233)"><path class="c" d="M1112.749,758.756c3.1-2.3,2.51-4.555,2.51-4.555l2.347,2.833c7.141-3.445,17.568-3.445,24.7,0l2.353-2.836s-.6,2.253,2.5,4.555,2.095,6.832,2.095,6.832l-.007-.011c0,2.862-1.883,5.711-5.656,7.89-7.527,4.348-19.747,4.348-27.288,0-3.765-2.177-5.648-5.028-5.648-7.879C1110.659,765.583,1109.646,761.064,1112.749,758.756Z" transform="translate(-1110.501 -754.201)"/></g><g transform="translate(43.753 80.233)"><path class="b" d="M1125.46,759.437s-5.566-3.3-5.566-3.994a1.181,1.181,0,0,1,.3-.517,25.985,25.985,0,0,1,6.847,2.111l2.353-2.836s-.6,2.253,2.5,4.555,2.1,6.832,2.1,6.832l-.008-.011a7.383,7.383,0,0,1-1.7,4.561c.058-.352.649-5.015-2.857-6.54C1125.77,762.015,1125.46,759.437,1125.46,759.437Z" transform="translate(-1119.894 -754.201)"/></g><g transform="translate(23.807 71.162)"><path class="b" d="M1116.616,765.268c5.75,3.324,15.084,3.324,20.834,0s5.763-8.707,0-12.03-15.084-3.321-20.834,0S1110.858,761.947,1116.616,765.268Z" transform="translate(-1112.297 -750.746)"/></g><g transform="translate(0.005 22.254)"><path class="c" d="M1180.309,732.119c-.383,21.483-11.461,24.082-17.384,32.124-5.53,7.5-4.9,18.358-4.787,19.774,0,.05.013.108.013.155h0c0,2.423-1.6,4.844-4.8,6.688-6.393,3.694-16.759,3.694-23.155,0-3-1.728-4.576-3.965-4.765-6.236l-.034.005v-.457h0c0-.047.01-.1.01-.152.11-1.4.743-12.269-4.789-19.776-5.929-8.042-17-10.642-17.384-32.124Z" transform="translate(-1103.232 -732.119)"/></g><path class="b" d="M1125.258,755.508s-.9,2.565-3.689,9.906-1.483,25.925-1.483,25.925l4.76.326a16.732,16.732,0,0,0,1.609-.806c3.2-1.843,4.8-4.264,4.8-6.688h0c0-.047-.013-.1-.013-.155-.11-1.415-.743-12.27,4.787-19.774,5.923-8.042,17-10.642,17.384-32.124H1149.2Z" transform="translate(-1076.332 -709.865)"/><g transform="translate(0.001)"><path class="a" d="M1114.52,761.633c15.05,8.688,39.455,8.688,54.51,0s15.05-22.782,0-31.465c-15.055-8.7-39.455-8.7-54.51,0C1099.467,738.85,1099.467,752.942,1114.52,761.633Z" transform="translate(-1103.23 -723.643)"/></g><path class="h" d="M1114.52,747.249c15.05,8.688,39.455,8.688,54.51,0,7.092-4.1,10.836-9.394,11.248-14.758.457,6.018-3.292,12.12-11.248,16.715-15.055,8.688-39.461,8.691-54.51,0-7.958-4.595-11.708-10.7-11.253-16.709C1103.674,737.858,1107.426,743.151,1114.52,747.249Z" transform="translate(-1103.23 -709.26)"/><g transform="translate(6.195 3.577)"><path class="i" d="M1115.069,756.892c12.629,7.289,33.109,7.289,45.741,0s12.64-19.12,0-26.414-33.112-7.3-45.741,0S1102.43,749.6,1115.069,756.892Z" transform="translate(-1105.589 -725.006)"/></g><path class="b" d="M1115.069,756.17a44.648,44.648,0,0,0,18.86,5.3,4.471,4.471,0,0,0,.977-4.377c-3.363-10.067-2.056-30.919-2.056-30.919l-6.089-.727a40.08,40.08,0,0,0-11.692,4.306C1102.43,737.05,1102.43,748.876,1115.069,756.17Z" transform="translate(-1099.394 -720.706)"/><path class="h" d="M1160.808,732.135c-12.632-7.3-33.112-7.294-45.741,0-5.96,3.437-9.1,7.872-9.444,12.374-.386-5.049,2.759-10.174,9.444-14.031,12.629-7.3,33.109-7.3,45.741,0,6.69,3.852,9.83,8.977,9.439,14.029C1169.906,740.006,1166.765,735.572,1160.808,732.135Z" transform="translate(-1099.392 -721.428)"/><path class="b" d="M1143.545,740.919a53.705,53.705,0,0,1-31.665.005c.333-.228.677-.449,1.042-.664,8.174-4.716,21.412-4.716,29.575,0C1142.865,740.475,1143.216,740.7,1143.545,740.919Z" transform="translate(-1089.168 -702.381)"/><g transform="translate(22.168 73.257)"><path class="h" d="M1111.683,752.442c.016-.173.04-.48.05-.9.249,2.211,1.806,4.377,4.739,6.073,6.4,3.692,16.762,3.692,23.155,0,2.867-1.657,4.445-3.768,4.745-5.926.016.341.029.6.045.749,0,.05.013.108.013.155h0c0,2.423-1.6,4.844-4.8,6.688-6.393,3.694-16.759,3.694-23.155,0-3-1.728-4.576-3.965-4.765-6.236l-.034.005v-.457h0C1111.673,752.547,1111.683,752.489,1111.683,752.442Z" transform="translate(-1111.673 -751.544)"/></g></g><g transform="translate(53.179 39.289)"><path class="b" d="M1146.071,753.717c-2.295-5.469-6.215-10.208-10.477-12.666l-4.24-2.445h0l-4.12,2.321.2,1.441,5.7,6.078,8.095,11.569,1.339-.738a6.685,6.685,0,0,1-.643,3.156l-2.778,5.348a5,5,0,0,1-1.715,1.935c.9,2.237,1.234,4.595-.213,6.648l-.95-.008.3.78c-.11.115-.223.226-.349.339.168.018.331.029.5.034l.467,1.231,4.128-2.332h-.011a7.817,7.817,0,0,0,2.812-3.119l2.775-5.348C1148.678,764.506,1148.369,759.189,1146.071,753.717Z" transform="translate(-1109.115 -738.607)"/><path class="b" d="M1148.654,756.949c-1.78,1.155-4.293,1.014-6.963-.533l-17.237-9.954h0l-4.119,2.327,1.2,2.051,2.922.787v1.155l17.237,9.946a14.349,14.349,0,0,0,5.75,1.98C1150,762.434,1149.73,759.6,1148.654,756.949Z" transform="translate(-1120.334 -725.838)"/><path class="a" d="M1135.595,741.052l-4.24-2.445h0l-4.12,2.321.2,1.441,5.7,6.078,4.487,6.412,7.029-4.057A25.517,25.517,0,0,0,1135.595,741.052Z" transform="translate(-1109.115 -738.607)"/><g transform="translate(0 2.321)"><path class="c" d="M1137.566,776.386l-17.232-9.954V760.12l17.232,9.954c3.723,2.145,7.129,1.594,8.685-1.41l2.773-5.34c1.016-1.959.845-4.868-.454-7.976a14.846,14.846,0,0,0-5.876-7.1l-4.24-2.447v-6.312l4.24,2.447c4.261,2.463,8.179,7.2,10.476,12.663s2.6,10.791.819,14.228l-2.775,5.346C1148.769,778.891,1143.411,779.757,1137.566,776.386Z" transform="translate(-1120.334 -739.491)"/></g></g></g><g transform="translate(1077.042 783.522)"><g transform="translate(19.65)"><path class="j" d="M1114.323,790.929c-16.042,0-29.045-5.183-29.045-11.584s13-11.584,29.045-11.584,29.044,5.188,29.044,11.584S1130.365,790.929,1114.323,790.929Z" transform="translate(-1083.303 -711.804)"/><g transform="translate(2.938 47.314)"><path class="k" d="M1110.126,787.994c-13.522,0-24.481-4.936-24.481-11.022s10.959-10.208,24.481-10.208,24.479,4.119,24.479,10.208S1123.645,787.994,1110.126,787.994Z" transform="translate(-1085.645 -760.74)"/><path class="l" d="M1096.881,766.763c-1.035,0-2.059.023-3.064.073V787.91c1.005.055,2.029.084,3.064.084.93,0,1.843-.026,2.746-.068v-21.1C1098.724,766.779,1097.811,766.763,1096.881,766.763Z" transform="translate(-1072.361 -760.74)"/><path class="l" d="M1096.608,766.816v20.923c1.084-.084,2.148-.2,3.172-.346V767.118C1098.756,766.989,1097.692,766.89,1096.608,766.816Z" transform="translate(-1067.823 -760.654)"/><path class="l" d="M1091.877,767.176v20.073c1.032.163,2.093.3,3.175.394V766.837C1093.97,766.921,1092.909,767.039,1091.877,767.176Z" transform="translate(-1075.514 -760.62)"/><path class="m" d="M1130.861,769.208c-.462-.3-.953-.593-1.481-.872v.872h-37.99v-1.129a17.16,17.16,0,0,0-2,1.129h-3.741v5.624c0,2.7,2.164,5.175,5.745,7.089v-7.089h37.99v6.805c3.269-1.875,5.225-4.232,5.225-6.805v-5.624Z" transform="translate(-1085.645 -758.601)"/><path class="n" d="M1110.126,786.5c-13.522,0-24.481-4.934-24.481-11.015s10.959-11.02,24.481-11.02,24.479,4.934,24.479,11.02S1123.645,786.5,1110.126,786.5Z" transform="translate(-1085.645 -764.469)"/><path class="k" d="M1106.87,782.166c-10.613,0-19.222-3.749-19.222-8.37s8.609-8.37,19.222-8.37,19.217,3.747,19.217,8.37S1117.488,782.166,1106.87,782.166Z" transform="translate(-1082.389 -762.915)"/><path class="o" d="M1106.87,781.432c-10.613,0-19.222-3.471-19.222-7.746s8.609-7.751,19.222-7.751,19.217,3.471,19.217,7.751S1117.488,781.432,1106.87,781.432Z" transform="translate(-1082.389 -762.084)"/><g transform="translate(17.035 4.944)"><g transform="translate(0.341 0.257)"><path class="k" d="M1105.554,773.137a1.747,1.747,0,0,1,.347,1.105,1.874,1.874,0,0,1-.48,1.3,3.574,3.574,0,0,1-1.274.872,7.774,7.774,0,0,1-1.806.509,15,15,0,0,1-2.095.2l0,1.573-1.883-.013v-1.594a26.688,26.688,0,0,1-3.23-.37,20.181,20.181,0,0,1-2.867-.7l1.982-2.205c.423.15.88.289,1.368.425.407.116.882.223,1.423.333a13.721,13.721,0,0,0,1.654.239l.01-1.14c-.491-.073-.977-.157-1.463-.255-.738-.147-1.37-.3-1.906-.459a6,6,0,0,1-1.315-.554,2.249,2.249,0,0,1-.775-.7,1.69,1.69,0,0,1-.234-.9,1.98,1.98,0,0,1,.415-1.239,3.653,3.653,0,0,1,1.16-.914,7,7,0,0,1,1.712-.617,11.421,11.421,0,0,1,2.085-.281l0-1.313,1.883.01-.005,1.321c.52.039,1.027.095,1.512.163s.95.155,1.4.249.872.189,1.255.294c.4.1.767.192,1.087.286l-1.983,2.074c-.338-.121-.722-.239-1.124-.341-.346-.1-.738-.194-1.163-.276-.444-.087-.875-.15-1.313-.2V771.2a3.591,3.591,0,0,1,.438.076c.163.029.331.058.5.089.774.131,1.465.273,2.087.436a8.811,8.811,0,0,1,1.586.557A2.86,2.86,0,0,1,1105.554,773.137Zm-4.834,1.594c.166-.06.234-.158.234-.271s-.089-.228-.278-.323a3.626,3.626,0,0,0-.753-.236l0,.961a2.489,2.489,0,0,0,.8-.131m-2.014-3.757v-.985c-.627.037-.943.184-.943.433,0,.134.082.234.236.323a2.984,2.984,0,0,0,.706.228" transform="translate(-1092.263 -766.45)"/></g><path class="n" d="M1105.432,773.045a1.79,1.79,0,0,1,.352,1.108,1.893,1.893,0,0,1-.491,1.3,3.615,3.615,0,0,1-1.273.88,7.873,7.873,0,0,1-1.8.5,15.054,15.054,0,0,1-2.1.2V778.6l-1.885-.008V777a26.761,26.761,0,0,1-3.222-.373,19.823,19.823,0,0,1-2.878-.7l1.985-2.205c.428.15.885.294,1.368.425.407.116.882.228,1.428.341a14.538,14.538,0,0,0,1.657.234v-1.142c-.488-.071-.969-.157-1.457-.255a18.2,18.2,0,0,1-1.909-.46,5.89,5.89,0,0,1-1.313-.549,2.182,2.182,0,0,1-.769-.7,1.691,1.691,0,0,1-.247-.9,1.954,1.954,0,0,1,.428-1.237,3.6,3.6,0,0,1,1.158-.922,7.177,7.177,0,0,1,1.707-.612,11.554,11.554,0,0,1,2.087-.286l0-1.313,1.883.013v1.321c.515.042,1.021.092,1.5.168s.956.158,1.4.247.872.194,1.258.289.748.2,1.082.291l-1.982,2.074c-.347-.123-.725-.236-1.132-.344-.339-.095-.732-.186-1.163-.273a12.8,12.8,0,0,0-1.3-.194v1.166c.136.016.281.042.441.071s.323.06.493.089c.772.131,1.471.284,2.088.441a8.385,8.385,0,0,1,1.586.556A2.846,2.846,0,0,1,1105.432,773.045Zm-4.833,1.594c.152-.066.236-.152.236-.268s-.1-.226-.284-.32a3.4,3.4,0,0,0-.748-.247v.964a2.328,2.328,0,0,0,.8-.129m-2.019-3.755V769.9c-.622.042-.94.186-.94.433,0,.134.079.236.236.323a3.124,3.124,0,0,0,.7.231" transform="translate(-1092.133 -766.352)"/></g></g><g transform="translate(5.495 40.29)"><path class="k" d="M1111.09,785.321c-13.511,0-24.471-4.936-24.471-11.025s10.959-10.211,24.471-10.211c13.527,0,24.486,4.125,24.486,10.211S1124.617,785.321,1111.09,785.321Z" transform="translate(-1086.619 -758.07)"/><path class="l" d="M1097.856,764.085c-1.034,0-2.058.029-3.069.076v21.07c1.011.055,2.035.089,3.069.089.932,0,1.843-.026,2.752-.068v-21.11C1099.7,764.106,1098.789,764.085,1097.856,764.085Z" transform="translate(-1073.341 -758.07)"/><path class="l" d="M1097.58,764.139v20.929c1.082-.089,2.143-.207,3.172-.352V764.438C1099.723,764.312,1098.661,764.213,1097.58,764.139Z" transform="translate(-1068.801 -757.982)"/><path class="l" d="M1092.852,764.5v20.073q1.536.244,3.175.4v-20.81Q1094.388,764.283,1092.852,764.5Z" transform="translate(-1076.486 -757.946)"/><path class="m" d="M1131.824,766.532a16.414,16.414,0,0,0-1.476-.869v.869h-37.988V765.4a15.723,15.723,0,0,0-2,1.129h-3.741v5.621c0,2.7,2.15,5.178,5.742,7.089v-7.089h37.988v6.806c3.271-1.877,5.227-4.238,5.227-6.806v-5.621Z" transform="translate(-1086.619 -755.927)"/><path class="n" d="M1111.09,783.823c-13.511,0-24.471-4.934-24.471-11.015s10.959-11.014,24.471-11.014c13.527,0,24.486,4.931,24.486,11.014S1124.617,783.823,1111.09,783.823Z" transform="translate(-1086.619 -761.794)"/><path class="k" d="M1107.835,779.492c-10.613,0-19.214-3.747-19.214-8.376s8.6-8.368,19.214-8.368,19.225,3.747,19.225,8.368S1118.453,779.492,1107.835,779.492Z" transform="translate(-1083.365 -760.243)"/><path class="o" d="M1107.835,778.752c-10.613,0-19.214-3.466-19.214-7.743s8.6-7.748,19.214-7.748,19.225,3.468,19.225,7.748S1118.453,778.752,1107.835,778.752Z" transform="translate(-1083.365 -759.409)"/><g transform="translate(17.03 4.944)"><g transform="translate(0.341 0.249)"><path class="k" d="M1106.526,770.465a1.73,1.73,0,0,1,.349,1.105,1.867,1.867,0,0,1-.484,1.3,3.454,3.454,0,0,1-1.278.877,7.584,7.584,0,0,1-1.8.507,15.891,15.891,0,0,1-2.1.2l-.005,1.565-1.88-.011v-1.591a27.642,27.642,0,0,1-3.227-.37,20.292,20.292,0,0,1-2.873-.7l1.98-2.206c.423.147.879.289,1.37.42.4.113.877.228,1.426.339a14.657,14.657,0,0,0,1.657.239l0-1.142c-.489-.073-.969-.155-1.46-.257a17.71,17.71,0,0,1-1.906-.457,6.317,6.317,0,0,1-1.318-.551,2.176,2.176,0,0,1-.761-.7,1.573,1.573,0,0,1-.255-.9,1.91,1.91,0,0,1,.433-1.234,3.64,3.64,0,0,1,1.155-.927,7.073,7.073,0,0,1,1.7-.607,11.949,11.949,0,0,1,2.09-.291v-1.308l1.891.011,0,1.323c.512.037,1.016.092,1.5.163s.953.155,1.4.252.874.186,1.26.289.754.2,1.087.284l-1.988,2.077c-.344-.123-.722-.234-1.126-.344-.352-.1-.738-.181-1.169-.27s-.869-.15-1.313-.2v1.168c.145.016.294.042.452.074s.321.06.494.089c.764.131,1.465.278,2.082.438a8.866,8.866,0,0,1,1.594.557A2.824,2.824,0,0,1,1106.526,770.465Zm-4.828,1.591c.155-.071.228-.155.228-.265s-.092-.228-.279-.32a3.355,3.355,0,0,0-.756-.247l0,.958a2.373,2.373,0,0,0,.811-.126m-2.024-3.752,0-.987c-.63.037-.943.184-.943.436a.365.365,0,0,0,.234.318,3.255,3.255,0,0,0,.7.234" transform="translate(-1093.235 -763.772)"/></g><path class="n" d="M1106.4,770.367a1.74,1.74,0,0,1,.352,1.106,1.921,1.921,0,0,1-.483,1.3,3.725,3.725,0,0,1-1.276.874,8.175,8.175,0,0,1-1.807.507,16.427,16.427,0,0,1-2.093.2l0,1.565-1.89-.01.008-1.6a26.249,26.249,0,0,1-3.224-.365,21.132,21.132,0,0,1-2.88-.706l1.985-2.206c.425.15.883.289,1.371.423.409.11.88.228,1.423.339a14.742,14.742,0,0,0,1.662.239V770.9c-.491-.073-.979-.155-1.46-.249-.738-.147-1.376-.3-1.909-.462a5.834,5.834,0,0,1-1.321-.557,2.1,2.1,0,0,1-.756-.693,1.606,1.606,0,0,1-.252-.9,1.941,1.941,0,0,1,.428-1.231,3.51,3.51,0,0,1,1.156-.922,6.926,6.926,0,0,1,1.714-.612,11.977,11.977,0,0,1,2.077-.289l.005-1.307,1.888.011-.008,1.323c.523.034,1.024.095,1.512.163s.948.155,1.394.247.875.192,1.265.294.754.194,1.085.284l-1.982,2.074c-.347-.118-.727-.231-1.134-.341-.346-.1-.73-.192-1.166-.273s-.864-.15-1.305-.194v1.166c.136.021.289.045.441.074s.323.06.5.084c.772.137,1.468.286,2.084.444a8.193,8.193,0,0,1,1.586.559A2.778,2.778,0,0,1,1106.4,770.367Zm-4.833,1.594c.155-.073.233-.158.233-.27s-.089-.226-.278-.318a4.012,4.012,0,0,0-.751-.252v.966a2.452,2.452,0,0,0,.8-.126m-2.014-3.76,0-.987c-.633.045-.951.186-.951.439a.354.354,0,0,0,.237.318,2.8,2.8,0,0,0,.712.231" transform="translate(-1093.105 -763.677)"/></g></g><g transform="translate(2.946 33.842)"><path class="k" d="M1110.124,782.864c-13.522,0-24.476-4.939-24.476-11.028s10.954-10.206,24.476-10.206,24.476,4.114,24.476,10.206S1123.641,782.864,1110.124,782.864Z" transform="translate(-1085.648 -755.611)"/><path class="l" d="M1096.886,761.631c-1.04,0-2.058.024-3.069.071v21.073c1.011.058,2.029.089,3.069.089q1.39,0,2.741-.074v-21.1C1098.727,761.652,1097.813,761.631,1096.886,761.631Z" transform="translate(-1072.368 -755.611)"/><path class="l" d="M1096.608,761.684V782.61c1.084-.089,2.148-.2,3.172-.355V761.983C1098.756,761.86,1097.692,761.76,1096.608,761.684Z" transform="translate(-1067.831 -755.524)"/><path class="l" d="M1091.88,762.046v20.075c1.024.163,2.085.3,3.174.4V761.7C1093.965,761.788,1092.9,761.9,1091.88,762.046Z" transform="translate(-1075.517 -755.495)"/><path class="m" d="M1130.856,764.078c-.462-.3-.953-.588-1.481-.867v.867h-37.99v-1.132a19.363,19.363,0,0,0-2,1.132h-3.734V769.7c0,2.7,2.158,5.178,5.737,7.094V769.7h37.99v6.8c3.269-1.87,5.225-4.232,5.225-6.8v-5.621Z" transform="translate(-1085.648 -753.473)"/><path class="n" d="M1110.124,781.367c-13.522,0-24.476-4.931-24.476-11.017s10.954-11.012,24.476-11.012,24.476,4.928,24.476,11.012S1123.641,781.367,1110.124,781.367Z" transform="translate(-1085.648 -759.338)"/><path class="k" d="M1106.869,777.034c-10.615,0-19.219-3.747-19.219-8.37s8.6-8.37,19.219-8.37,19.214,3.747,19.214,8.37S1117.485,777.034,1106.869,777.034Z" transform="translate(-1082.393 -757.785)"/><path class="o" d="M1106.869,776.3c-10.615,0-19.219-3.468-19.219-7.746s8.6-7.745,19.219-7.745,19.214,3.468,19.214,7.745S1117.485,776.3,1106.869,776.3Z" transform="translate(-1082.393 -756.951)"/><g transform="translate(17.027 4.944)"><g transform="translate(0.341 0.252)"><path class="k" d="M1105.554,768.01a1.7,1.7,0,0,1,.347,1.108,1.888,1.888,0,0,1-.48,1.3,3.594,3.594,0,0,1-1.274.874,7.827,7.827,0,0,1-1.8.5,15.6,15.6,0,0,1-2.1.2v1.57l-1.885-.01v-1.594a28.28,28.28,0,0,1-3.224-.37,19.472,19.472,0,0,1-2.873-.706l1.982-2.2c.423.152.883.289,1.368.425.407.113.882.229,1.423.339a14.213,14.213,0,0,0,1.664.234V768.54c-.486-.068-.974-.157-1.463-.255a18.133,18.133,0,0,1-1.906-.459,5.859,5.859,0,0,1-1.315-.549,2.2,2.2,0,0,1-.767-.7,1.632,1.632,0,0,1-.242-.89,1.915,1.915,0,0,1,.425-1.239,3.543,3.543,0,0,1,1.15-.919,7.468,7.468,0,0,1,1.712-.62,12.713,12.713,0,0,1,2.085-.283l0-1.307,1.883.008v1.323c.52.042,1.021.094,1.507.166s.956.155,1.407.249.861.189,1.244.289c.4.1.767.2,1.093.292l-1.98,2.069c-.344-.118-.73-.236-1.132-.344-.346-.092-.738-.181-1.163-.268s-.875-.15-1.313-.194v1.168c.147.016.286.042.449.068s.32.063.494.092c.769.129,1.46.279,2.082.436a8.836,8.836,0,0,1,1.586.559A2.741,2.741,0,0,1,1105.554,768.01Zm-4.834,1.594c.166-.068.237-.158.237-.271s-.092-.231-.276-.32a3.339,3.339,0,0,0-.759-.244v.958a2.541,2.541,0,0,0,.8-.123m-2.014-3.76,0-.985c-.63.039-.945.181-.945.438,0,.129.082.231.239.318a3.2,3.2,0,0,0,.7.229" transform="translate(-1092.263 -761.317)"/></g><path class="n" d="M1105.432,767.911a1.788,1.788,0,0,1,.352,1.106,1.876,1.876,0,0,1-.491,1.3,3.571,3.571,0,0,1-1.273.874,7.789,7.789,0,0,1-1.8.507,15.436,15.436,0,0,1-2.093.2l-.008,1.565-1.885-.01v-1.594a26.246,26.246,0,0,1-3.222-.37,21.323,21.323,0,0,1-2.878-.7l1.993-2.208c.42.15.877.286,1.363.423.41.113.879.226,1.426.333a13.77,13.77,0,0,0,1.657.239v-1.137c-.486-.076-.969-.16-1.457-.255-.738-.15-1.373-.3-1.9-.459a5.96,5.96,0,0,1-1.318-.554,2.149,2.149,0,0,1-.769-.7,1.676,1.676,0,0,1-.247-.9,2,2,0,0,1,.428-1.239,3.5,3.5,0,0,1,1.158-.916,6.95,6.95,0,0,1,1.707-.612,11.518,11.518,0,0,1,2.087-.289l.005-1.31,1.882.008,0,1.323c.515.034,1.021.092,1.5.168s.956.155,1.4.247.872.194,1.26.291.753.194,1.079.286l-1.982,2.074c-.347-.123-.725-.239-1.129-.341-.341-.1-.735-.192-1.166-.273s-.864-.152-1.3-.2v1.171c.136.018.289.039.441.068s.326.063.493.089c.772.137,1.471.276,2.09.439a8.413,8.413,0,0,1,1.583.559A2.909,2.909,0,0,1,1105.432,767.911Zm-4.833,1.6c.16-.071.236-.163.236-.276s-.1-.223-.284-.32a4.13,4.13,0,0,0-.748-.239v.958a2.566,2.566,0,0,0,.8-.123m-2.019-3.76,0-.987c-.627.039-.945.186-.945.433a.361.361,0,0,0,.236.32,2.978,2.978,0,0,0,.7.234" transform="translate(-1092.133 -761.221)"/></g></g><g transform="translate(2.946 26.899)"><path class="k" d="M1110.124,780.226c-13.522,0-24.476-4.944-24.476-11.028s10.954-10.214,24.476-10.214,24.476,4.122,24.476,10.214S1123.641,780.226,1110.124,780.226Z" transform="translate(-1085.648 -752.97)"/><path class="l" d="M1096.886,758.985c-1.04,0-2.058.026-3.069.079v21.073c1.011.052,2.029.089,3.069.089.927,0,1.841-.029,2.741-.076v-21.1C1098.727,759.009,1097.813,758.985,1096.886,758.985Z" transform="translate(-1072.368 -752.97)"/><path class="l" d="M1096.608,759.041v20.921c1.084-.084,2.148-.2,3.172-.349V759.335C1098.756,759.212,1097.692,759.112,1096.608,759.041Z" transform="translate(-1067.831 -752.879)"/><path class="l" d="M1091.88,759.4V779.48c1.024.163,2.085.3,3.174.394V759.058C1093.965,759.147,1092.9,759.263,1091.88,759.4Z" transform="translate(-1075.517 -752.851)"/><path class="m" d="M1130.856,761.431c-.462-.3-.953-.588-1.481-.867v.867h-37.99V760.3a20.429,20.429,0,0,0-2,1.129h-3.734v5.627c0,2.7,2.158,5.172,5.737,7.094v-7.094h37.99v6.8c3.269-1.872,5.225-4.238,5.225-6.8v-5.627Z" transform="translate(-1085.648 -750.829)"/><path class="n" d="M1110.124,778.726c-13.522,0-24.476-4.936-24.476-11.022s10.954-11.009,24.476-11.009,24.476,4.931,24.476,11.009S1123.641,778.726,1110.124,778.726Z" transform="translate(-1085.648 -756.694)"/><path class="k" d="M1106.869,774.386c-10.615,0-19.219-3.741-19.219-8.365s8.6-8.373,19.219-8.373,19.214,3.747,19.214,8.373S1117.485,774.386,1106.869,774.386Z" transform="translate(-1082.393 -755.143)"/><path class="o" d="M1106.869,773.657c-10.615,0-19.219-3.471-19.219-7.751s8.6-7.746,19.219-7.746,19.214,3.468,19.214,7.746S1117.485,773.657,1106.869,773.657Z" transform="translate(-1082.393 -754.309)"/><g transform="translate(17.027 4.944)"><g transform="translate(0.341 0.252)"><path class="k" d="M1105.554,765.363a1.7,1.7,0,0,1,.347,1.108,1.859,1.859,0,0,1-.48,1.3,3.5,3.5,0,0,1-1.274.877,7.834,7.834,0,0,1-1.8.507,15.225,15.225,0,0,1-2.1.2v1.57l-1.885-.01V769.32a28.9,28.9,0,0,1-3.224-.37,21.313,21.313,0,0,1-2.873-.7l1.982-2.211c.423.155.883.3,1.368.428.407.113.882.228,1.423.339a14.749,14.749,0,0,0,1.664.236V765.9c-.486-.071-.974-.16-1.463-.257a18.9,18.9,0,0,1-1.906-.457,5.734,5.734,0,0,1-1.315-.554,2.188,2.188,0,0,1-.767-.693,1.646,1.646,0,0,1-.242-.893,1.944,1.944,0,0,1,.425-1.244,3.543,3.543,0,0,1,1.15-.919,7.732,7.732,0,0,1,1.712-.612,11.871,11.871,0,0,1,2.085-.286l0-1.308,1.883.011v1.323c.52.037,1.021.092,1.507.16s.956.157,1.407.252.861.186,1.244.289c.4.1.767.2,1.093.289l-1.98,2.072c-.344-.121-.73-.234-1.132-.341-.346-.094-.738-.186-1.163-.268s-.875-.155-1.313-.2v1.168c.147.018.286.045.449.071s.32.06.494.089c.769.137,1.46.281,2.082.441a8.068,8.068,0,0,1,1.586.559A2.7,2.7,0,0,1,1105.554,765.363Zm-4.834,1.6c.166-.071.237-.16.237-.276s-.092-.226-.276-.32a3.637,3.637,0,0,0-.759-.242v.961a2.617,2.617,0,0,0,.8-.123m-2.014-3.765,0-.985c-.63.039-.945.186-.945.436a.38.38,0,0,0,.239.32,3.054,3.054,0,0,0,.7.228" transform="translate(-1092.263 -758.673)"/></g><path class="n" d="M1105.432,765.27a1.766,1.766,0,0,1,.352,1.105,1.889,1.889,0,0,1-.491,1.3,3.611,3.611,0,0,1-1.273.877,7.794,7.794,0,0,1-1.8.5,15.436,15.436,0,0,1-2.093.2l-.008,1.565-1.885-.008v-1.6a27.277,27.277,0,0,1-3.222-.368,19.8,19.8,0,0,1-2.878-.706l1.993-2.2c.42.15.877.294,1.363.42.41.118.879.234,1.426.339a12.814,12.814,0,0,0,1.657.239V765.8c-.486-.068-.969-.158-1.457-.255a17.762,17.762,0,0,1-1.9-.459,5.837,5.837,0,0,1-1.318-.552,2.272,2.272,0,0,1-.769-.693,1.718,1.718,0,0,1-.247-.9,1.983,1.983,0,0,1,.428-1.234,3.5,3.5,0,0,1,1.158-.916,7.056,7.056,0,0,1,1.707-.617,12.544,12.544,0,0,1,2.087-.286l.005-1.307,1.882.005,0,1.329c.515.037,1.021.089,1.5.163s.956.157,1.4.242.872.2,1.26.3.753.2,1.079.286l-1.982,2.077a11.791,11.791,0,0,0-1.129-.341c-.341-.1-.735-.194-1.166-.278s-.864-.147-1.3-.2v1.171a4.349,4.349,0,0,1,.441.076c.16.029.326.055.493.081.772.139,1.471.281,2.09.438a8.783,8.783,0,0,1,1.583.565A2.847,2.847,0,0,1,1105.432,765.27Zm-4.833,1.591c.16-.063.236-.16.236-.268s-.1-.231-.284-.32a3.565,3.565,0,0,0-.748-.244v.956a2.483,2.483,0,0,0,.8-.123m-2.019-3.757,0-.985c-.627.039-.945.181-.945.436a.37.37,0,0,0,.236.318,3.124,3.124,0,0,0,.7.231" transform="translate(-1092.133 -758.577)"/></g></g><g transform="translate(0 20.377)"><path class="k" d="M1109,777.744c-13.514,0-24.478-4.944-24.478-11.03S1095.49,756.5,1109,756.5s24.476,4.12,24.476,10.211S1122.526,777.744,1109,777.744Z" transform="translate(-1084.526 -750.483)"/><path class="l" d="M1095.761,756.5c-1.037,0-2.053.031-3.064.076V777.65c1.011.06,2.027.095,3.064.095.932,0,1.843-.029,2.751-.076v-21.1C1097.6,756.527,1096.693,756.5,1095.761,756.5Z" transform="translate(-1071.243 -750.483)"/><path class="l" d="M1095.49,756.558v20.921c1.079-.081,2.142-.2,3.169-.347V756.855C1097.632,756.726,1096.569,756.632,1095.49,756.558Z" transform="translate(-1066.703 -750.393)"/><path class="l" d="M1090.762,756.915v20.078c1.024.163,2.08.3,3.167.4V756.576Q1092.3,756.71,1090.762,756.915Z" transform="translate(-1074.389 -750.364)"/><path class="m" d="M1129.739,758.952c-.457-.3-.953-.593-1.478-.869v.869h-38V757.82a19.522,19.522,0,0,0-2,1.132h-3.742v5.622c0,2.7,2.166,5.172,5.74,7.092v-7.092h38v6.8c3.264-1.872,5.22-4.235,5.22-6.8v-5.622Z" transform="translate(-1084.526 -748.341)"/><path class="n" d="M1109,776.242c-13.514,0-24.478-4.928-24.478-11.015S1095.49,754.21,1109,754.21s24.476,4.936,24.476,11.017S1122.526,776.242,1109,776.242Z" transform="translate(-1084.526 -754.21)"/><path class="k" d="M1105.747,771.908c-10.615,0-19.217-3.747-19.217-8.368s8.6-8.376,19.217-8.376,19.222,3.749,19.222,8.376S1116.362,771.908,1105.747,771.908Z" transform="translate(-1081.268 -752.658)"/><path class="o" d="M1105.747,771.175c-10.615,0-19.217-3.471-19.217-7.745s8.6-7.751,19.217-7.751,19.222,3.471,19.222,7.751S1116.362,771.175,1105.747,771.175Z" transform="translate(-1081.268 -751.822)"/><g transform="translate(17.04 4.949)"><g transform="translate(0.336 0.25)"><path class="k" d="M1104.435,762.88a1.768,1.768,0,0,1,.352,1.105,1.852,1.852,0,0,1-.491,1.3,3.54,3.54,0,0,1-1.268.877,7.991,7.991,0,0,1-1.8.507,14.782,14.782,0,0,1-2.1.2v1.57l-1.885-.011.008-1.6a27.7,27.7,0,0,1-3.23-.362,21.081,21.081,0,0,1-2.872-.706l1.977-2.211c.431.155.885.291,1.368.425.412.113.885.229,1.431.339a13.7,13.7,0,0,0,1.654.239l.005-1.145c-.5-.071-.977-.15-1.46-.252-.735-.142-1.373-.3-1.909-.457a6.137,6.137,0,0,1-1.315-.551,2.24,2.24,0,0,1-.764-.7,1.615,1.615,0,0,1-.247-.9,1.937,1.937,0,0,1,.425-1.237,3.617,3.617,0,0,1,1.158-.924,7.243,7.243,0,0,1,1.706-.612,11.975,11.975,0,0,1,2.082-.289l.005-1.307,1.888.013-.011,1.323c.526.037,1.027.089,1.513.165s.953.152,1.407.244.864.189,1.255.294.751.194,1.082.281l-1.985,2.077c-.341-.126-.717-.236-1.126-.344-.352-.1-.735-.184-1.168-.268s-.869-.155-1.3-.2l0,1.171c.141.018.294.042.446.068s.326.063.494.086q1.158.209,2.09.444a9.1,9.1,0,0,1,1.586.557A2.939,2.939,0,0,1,1104.435,762.88Zm-4.837,1.6c.16-.071.239-.163.239-.276s-.091-.226-.278-.315a3.447,3.447,0,0,0-.756-.247v.964a2.684,2.684,0,0,0,.8-.126m-2.014-3.762v-.99c-.628.047-.943.189-.943.444a.36.36,0,0,0,.236.315,2.859,2.859,0,0,0,.707.231" transform="translate(-1091.144 -756.19)"/></g><path class="n" d="M1104.3,762.785a1.751,1.751,0,0,1,.352,1.105,1.876,1.876,0,0,1-.481,1.3,3.533,3.533,0,0,1-1.278.869,7.7,7.7,0,0,1-1.8.514,18.055,18.055,0,0,1-2.1.207l0,1.562-1.885-.005,0-1.6a27.665,27.665,0,0,1-3.229-.365,20.306,20.306,0,0,1-2.87-.709l1.983-2.206c.42.152.882.289,1.368.425.407.11.879.229,1.42.339a13.616,13.616,0,0,0,1.659.234l.008-1.139c-.491-.073-.977-.158-1.465-.252a18.394,18.394,0,0,1-1.907-.46,5.941,5.941,0,0,1-1.318-.557,2.218,2.218,0,0,1-.764-.691,1.646,1.646,0,0,1-.242-.9,1.99,1.99,0,0,1,.415-1.237,3.7,3.7,0,0,1,1.161-.919,7.386,7.386,0,0,1,1.714-.612,12.464,12.464,0,0,1,2.082-.286l0-1.308,1.888.013v1.321c.512.034,1.016.092,1.5.163s.958.155,1.4.247.872.2,1.26.289.751.2,1.082.289l-1.987,2.077c-.339-.123-.717-.236-1.129-.344-.341-.1-.727-.192-1.161-.276s-.871-.147-1.307-.192l0,1.166a3.7,3.7,0,0,1,.449.076c.158.026.321.06.491.084.767.137,1.468.281,2.088.444a7.922,7.922,0,0,1,1.586.562A2.685,2.685,0,0,1,1104.3,762.785Zm-4.824,1.6c.152-.076.229-.163.229-.276s-.092-.231-.281-.323a3.965,3.965,0,0,0-.751-.241v.958a2.713,2.713,0,0,0,.8-.118m-2.022-3.768v-.982c-.63.042-.94.184-.94.436a.36.36,0,0,0,.234.32,2.657,2.657,0,0,0,.706.226" transform="translate(-1091.016 -756.095)"/></g></g><g transform="translate(2.978 13.401)"><path class="k" d="M1110.139,775.082c-13.52,0-24.479-4.936-24.479-11.028s10.959-10.208,24.479-10.208,24.476,4.122,24.476,10.208S1123.65,775.082,1110.139,775.082Z" transform="translate(-1085.66 -747.825)"/><path class="l" d="M1096.9,753.846c-1.042,0-2.064.029-3.07.073v21.07c1.006.06,2.027.092,3.07.092.921,0,1.84-.029,2.746-.076V753.9C1098.74,753.867,1097.821,753.846,1096.9,753.846Z" transform="translate(-1072.379 -747.825)"/><path class="l" d="M1096.623,753.9v20.926c1.082-.089,2.14-.2,3.172-.354V754.2C1098.763,754.076,1097.7,753.971,1096.623,753.9Z" transform="translate(-1067.838 -747.737)"/><path class="l" d="M1091.892,754.26v20.073c1.037.166,2.09.3,3.177.4V753.919C1093.982,754.006,1092.929,754.119,1091.892,754.26Z" transform="translate(-1075.529 -747.707)"/><path class="m" d="M1130.871,756.3a14.433,14.433,0,0,0-1.479-.869v.869H1091.4v-1.137a17.9,17.9,0,0,0-2.006,1.137h-3.739v5.619c0,2.7,2.161,5.175,5.745,7.092v-7.092h37.987v6.806c3.266-1.875,5.222-4.235,5.222-6.806V756.3Z" transform="translate(-1085.66 -745.688)"/><path class="n" d="M1110.139,773.584c-13.52,0-24.479-4.933-24.479-11.017s10.959-11.015,24.479-11.015,24.476,4.934,24.476,11.015S1123.65,773.584,1110.139,773.584Z" transform="translate(-1085.66 -751.553)"/><path class="k" d="M1106.884,769.25c-10.616,0-19.222-3.749-19.222-8.376s8.606-8.365,19.222-8.365,19.217,3.747,19.217,8.365S1117.5,769.25,1106.884,769.25Z" transform="translate(-1082.406 -749.999)"/><path class="o" d="M1106.884,768.512c-10.616,0-19.222-3.466-19.222-7.746s8.606-7.746,19.222-7.746,19.217,3.468,19.217,7.746S1117.5,768.512,1106.884,768.512Z" transform="translate(-1082.406 -749.166)"/><g transform="translate(17.04 4.944)"><g transform="translate(0.336 0.255)"><path class="k" d="M1105.564,760.22a1.708,1.708,0,0,1,.349,1.111,1.88,1.88,0,0,1-.483,1.3,3.676,3.676,0,0,1-1.271.869,7.835,7.835,0,0,1-1.8.507,15.869,15.869,0,0,1-2.1.2l0,1.568-1.885-.008v-1.6a27.63,27.63,0,0,1-3.224-.37,20.8,20.8,0,0,1-2.87-.7l1.98-2.206c.423.144.882.289,1.363.42.41.118.885.228,1.434.341a14.106,14.106,0,0,0,1.654.234v-1.142q-.729-.107-1.457-.252a18.741,18.741,0,0,1-1.909-.457,6.04,6.04,0,0,1-1.318-.557,2.129,2.129,0,0,1-.762-.7,1.59,1.59,0,0,1-.244-.9,1.95,1.95,0,0,1,.42-1.231,3.718,3.718,0,0,1,1.155-.922,6.853,6.853,0,0,1,1.712-.612,11.714,11.714,0,0,1,2.082-.289l.005-1.307,1.893.01-.008,1.321c.517.039,1.021.089,1.507.168s.95.152,1.4.247.874.186,1.26.292.754.2,1.082.286l-1.982,2.074c-.342-.123-.719-.236-1.134-.344-.339-.095-.722-.184-1.161-.273s-.869-.15-1.31-.2v1.169c.144.021.289.044.444.073s.328.06.5.089c.769.128,1.465.283,2.09.438a9.085,9.085,0,0,1,1.583.557A2.849,2.849,0,0,1,1105.564,760.22Zm-4.831,1.6c.157-.068.234-.155.234-.268s-.089-.228-.278-.32a3.632,3.632,0,0,0-.751-.247v.958a2.316,2.316,0,0,0,.8-.123m-2.016-3.757.008-.985c-.638.039-.948.181-.948.436a.356.356,0,0,0,.224.315,3.056,3.056,0,0,0,.717.234" transform="translate(-1092.278 -753.533)"/></g><path class="n" d="M1105.438,760.126a1.764,1.764,0,0,1,.349,1.11,1.875,1.875,0,0,1-.489,1.3,3.544,3.544,0,0,1-1.271.874,8.087,8.087,0,0,1-1.8.512,16.812,16.812,0,0,1-2.09.2l-.011,1.568-1.877-.01v-1.6a27.9,27.9,0,0,1-3.23-.367,21.049,21.049,0,0,1-2.867-.7l1.982-2.211c.423.152.874.294,1.36.425.41.113.882.228,1.423.339a13.8,13.8,0,0,0,1.665.236v-1.142c-.486-.068-.974-.152-1.46-.252q-1.107-.217-1.9-.454a6.431,6.431,0,0,1-1.321-.557,2.339,2.339,0,0,1-.764-.7,1.686,1.686,0,0,1-.244-.9,1.933,1.933,0,0,1,.428-1.237,3.518,3.518,0,0,1,1.158-.922,7.387,7.387,0,0,1,1.7-.612,12.085,12.085,0,0,1,2.085-.284l0-1.313,1.888.013-.005,1.321c.517.037,1.019.1,1.51.166s.948.152,1.4.249.864.186,1.26.291.751.192,1.082.284l-1.991,2.074c-.338-.121-.717-.234-1.121-.341-.352-.1-.735-.187-1.171-.276s-.859-.15-1.3-.194l-.005,1.168c.141.023.291.045.449.074s.32.06.494.086c.766.137,1.465.284,2.085.444a7.991,7.991,0,0,1,1.591.559A2.829,2.829,0,0,1,1105.438,760.126Zm-4.831,1.6c.158-.068.237-.157.237-.27s-.1-.226-.292-.318a3.4,3.4,0,0,0-.745-.249v.964a2.5,2.5,0,0,0,.8-.126m-2.019-3.76v-.985c-.63.042-.943.184-.943.436a.362.362,0,0,0,.234.315,2.708,2.708,0,0,0,.709.234" transform="translate(-1092.15 -753.436)"/></g></g><g transform="translate(5.083 6.837)"><path class="k" d="M1110.943,772.579c-13.519,0-24.481-4.936-24.481-11.028s10.962-10.206,24.481-10.206,24.479,4.117,24.479,10.206S1124.46,772.579,1110.943,772.579Z" transform="translate(-1086.462 -745.325)"/><path class="l" d="M1097.7,751.346c-1.042,0-2.061.024-3.064.076V772.49c1,.058,2.022.089,3.064.089.932,0,1.846-.026,2.749-.068V751.4C1099.544,751.367,1098.63,751.346,1097.7,751.346Z" transform="translate(-1073.178 -745.325)"/><path class="l" d="M1097.426,751.4v20.926c1.087-.087,2.14-.2,3.169-.349V751.7C1099.566,751.57,1098.513,751.475,1097.426,751.4Z" transform="translate(-1068.639 -745.239)"/><path class="l" d="M1092.694,751.76v20.075q1.544.244,3.185.4V751.419C1094.786,751.5,1093.724,751.621,1092.694,751.76Z" transform="translate(-1076.331 -745.207)"/><path class="m" d="M1131.677,753.8c-.465-.3-.953-.6-1.481-.872v.872h-38v-1.134a18.134,18.134,0,0,0-2,1.134h-3.744v5.616c0,2.7,2.161,5.183,5.74,7.094v-7.094h38v6.806c3.269-1.875,5.225-4.232,5.225-6.806V753.8Z" transform="translate(-1086.462 -743.186)"/><path class="n" d="M1110.943,771.084c-13.519,0-24.481-4.934-24.481-11.014s10.962-11.017,24.481-11.017,24.479,4.939,24.479,11.017S1124.46,771.084,1110.943,771.084Z" transform="translate(-1086.462 -749.053)"/><path class="k" d="M1107.686,766.753c-10.61,0-19.22-3.75-19.22-8.37s8.61-8.376,19.22-8.376,19.212,3.752,19.212,8.376S1118.3,766.753,1107.686,766.753Z" transform="translate(-1083.204 -747.502)"/><path class="o" d="M1107.686,766.015c-10.61,0-19.22-3.471-19.22-7.745s8.61-7.748,19.22-7.748,19.212,3.471,19.212,7.748S1118.3,766.015,1107.686,766.015Z" transform="translate(-1083.204 -746.667)"/><g transform="translate(17.043 4.947)"><g transform="translate(0.331 0.249)"><path class="k" d="M1106.373,757.727a1.761,1.761,0,0,1,.349,1.105,1.849,1.849,0,0,1-.489,1.3,3.552,3.552,0,0,1-1.276.874,7.522,7.522,0,0,1-1.8.507,14.964,14.964,0,0,1-2.093.2l0,1.57-1.885-.01.005-1.591a27.871,27.871,0,0,1-3.232-.37,20.443,20.443,0,0,1-2.87-.7l1.985-2.2c.423.147.88.286,1.363.417.412.118.882.228,1.431.341a14.457,14.457,0,0,0,1.654.239v-1.147c-.481-.068-.971-.152-1.455-.255a19.5,19.5,0,0,1-1.906-.452,6.563,6.563,0,0,1-1.321-.554,2.195,2.195,0,0,1-.764-.7,1.7,1.7,0,0,1-.241-.893,1.905,1.905,0,0,1,.425-1.239,3.524,3.524,0,0,1,1.155-.919,6.836,6.836,0,0,1,1.712-.609,11.62,11.62,0,0,1,2.077-.292l.005-1.31,1.89.013-.008,1.318c.522.042,1.024.1,1.5.171s.961.155,1.4.247.869.192,1.265.291.748.2,1.082.284l-1.985,2.077c-.344-.123-.719-.239-1.126-.344-.346-.1-.733-.186-1.168-.271s-.864-.15-1.31-.2v1.168c.144.018.286.042.446.068s.323.066.494.089c.767.131,1.468.284,2.1.444a8.862,8.862,0,0,1,1.578.554A2.9,2.9,0,0,1,1106.373,757.727Zm-4.839,1.594c.16-.071.239-.157.239-.271s-.089-.231-.276-.318a3.578,3.578,0,0,0-.759-.247v.961a2.473,2.473,0,0,0,.8-.126m-2.011-3.757v-.987c-.625.037-.943.184-.943.436a.352.352,0,0,0,.239.318,2.814,2.814,0,0,0,.7.234" transform="translate(-1093.079 -751.032)"/></g><path class="n" d="M1106.244,757.63a1.739,1.739,0,0,1,.349,1.105,1.872,1.872,0,0,1-.486,1.3,3.624,3.624,0,0,1-1.276.877,8.054,8.054,0,0,1-1.8.507,15.962,15.962,0,0,1-2.1.2v1.575l-1.888-.011.011-1.6a27.593,27.593,0,0,1-3.224-.368,20.71,20.71,0,0,1-2.872-.7l1.98-2.208c.423.15.877.289,1.366.42.409.115.877.234,1.423.344a13.9,13.9,0,0,0,1.662.231l0-1.137c-.488-.074-.977-.155-1.465-.257-.732-.142-1.37-.294-1.9-.454a6.12,6.12,0,0,1-1.318-.554,2.269,2.269,0,0,1-.762-.7,1.582,1.582,0,0,1-.247-.9,1.9,1.9,0,0,1,.428-1.231,3.548,3.548,0,0,1,1.15-.924,7.283,7.283,0,0,1,1.715-.612,12.034,12.034,0,0,1,2.085-.286l0-1.31,1.883.008,0,1.323c.523.039,1.019.094,1.51.166s.953.155,1.4.252.864.186,1.258.291l1.084.278-1.987,2.077c-.341-.121-.722-.236-1.127-.341-.349-.1-.74-.187-1.168-.273s-.869-.15-1.305-.194l0,1.166c.141.023.294.047.446.076s.328.06.5.087c.764.134,1.467.284,2.085.438a8.406,8.406,0,0,1,1.589.562A2.878,2.878,0,0,1,1106.244,757.63Zm-4.828,1.594c.144-.074.234-.157.234-.273s-.1-.229-.286-.318a3.551,3.551,0,0,0-.756-.247v.964a2.733,2.733,0,0,0,.809-.126m-2.027-3.76v-.987c-.625.045-.94.187-.94.438a.358.358,0,0,0,.236.312,2.821,2.821,0,0,0,.7.236" transform="translate(-1092.953 -750.937)"/></g></g><g transform="translate(2.938)"><path class="k" d="M1110.126,769.978c-13.522,0-24.481-4.933-24.481-11.027s10.959-10.211,24.481-10.211,24.479,4.125,24.479,10.211S1123.645,769.978,1110.126,769.978Z" transform="translate(-1085.645 -742.725)"/><path class="l" d="M1096.881,748.74c-1.035,0-2.053.029-3.064.081v21.073c1.011.053,2.029.084,3.064.084.932,0,1.843-.024,2.746-.066V748.8C1098.724,748.766,1097.813,748.74,1096.881,748.74Z" transform="translate(-1072.361 -742.725)"/><path class="l" d="M1096.608,748.795v20.924c1.084-.081,2.148-.2,3.172-.349V749.094C1098.756,748.971,1097.692,748.871,1096.608,748.795Z" transform="translate(-1067.823 -742.635)"/><path class="l" d="M1091.88,749.156v20.073c1.024.165,2.085.3,3.174.4V748.815C1093.965,748.9,1092.9,749.02,1091.88,749.156Z" transform="translate(-1075.509 -742.603)"/><path class="m" d="M1130.861,751.192c-.462-.3-.953-.593-1.481-.874v.874h-37.99v-1.134a17.143,17.143,0,0,0-2,1.134h-3.741v5.616c0,2.7,2.164,5.175,5.745,7.1v-7.1h37.99v6.808c3.269-1.872,5.225-4.238,5.225-6.808v-5.616Z" transform="translate(-1085.645 -740.582)"/><path class="n" d="M1110.126,768.481c-13.522,0-24.481-4.934-24.481-11.014s10.959-11.017,24.481-11.017,24.479,4.931,24.479,11.017S1123.645,768.481,1110.126,768.481Z" transform="translate(-1085.645 -746.449)"/><path class="k" d="M1106.87,764.143c-10.613,0-19.222-3.744-19.222-8.371s8.609-8.368,19.222-8.368,19.217,3.747,19.217,8.368S1117.488,764.143,1106.87,764.143Z" transform="translate(-1082.389 -744.895)"/><path class="o" d="M1106.87,763.411c-10.613,0-19.222-3.468-19.222-7.743s8.609-7.751,19.222-7.751,19.217,3.468,19.217,7.751S1117.488,763.411,1106.87,763.411Z" transform="translate(-1082.389 -744.063)"/><g transform="translate(17.035 4.947)"><g transform="translate(0.341 0.252)"><path class="k" d="M1105.554,755.122a1.734,1.734,0,0,1,.347,1.1,1.876,1.876,0,0,1-.48,1.3,3.528,3.528,0,0,1-1.274.874,7.811,7.811,0,0,1-1.8.5,14.791,14.791,0,0,1-2.1.2l0,1.57-1.883-.01v-1.6a27.6,27.6,0,0,1-3.224-.367,19.475,19.475,0,0,1-2.873-.709l1.982-2.2c.423.15.88.294,1.368.425.407.11.882.228,1.423.333a13.086,13.086,0,0,0,1.664.239v-1.137c-.491-.076-.977-.16-1.463-.257-.738-.147-1.37-.294-1.906-.459a5.94,5.94,0,0,1-1.315-.551,2.171,2.171,0,0,1-.767-.7,1.633,1.633,0,0,1-.242-.9,1.918,1.918,0,0,1,.425-1.237,3.473,3.473,0,0,1,1.15-.916,7.121,7.121,0,0,1,1.712-.617,11.421,11.421,0,0,1,2.085-.281l0-1.313,1.883.008-.005,1.326c.52.037,1.027.092,1.512.16s.95.155,1.4.247.872.194,1.255.3c.4.1.767.192,1.093.286l-1.98,2.077c-.346-.123-.73-.239-1.132-.344-.346-.095-.738-.189-1.163-.276-.444-.087-.875-.147-1.313-.2v1.171a4.177,4.177,0,0,1,.438.076c.163.026.331.055.5.076.774.147,1.465.286,2.087.449a7.746,7.746,0,0,1,1.586.559A2.709,2.709,0,0,1,1105.554,755.122Zm-4.834,1.591c.166-.066.234-.16.234-.27s-.089-.226-.273-.315a3.466,3.466,0,0,0-.759-.247v.953a2.4,2.4,0,0,0,.8-.121m-2.014-3.76v-.985c-.627.039-.943.186-.943.438a.375.375,0,0,0,.236.318,2.767,2.767,0,0,0,.706.228" transform="translate(-1092.263 -748.429)"/></g><path class="n" d="M1105.432,755.02a1.8,1.8,0,0,1,.352,1.108,1.9,1.9,0,0,1-.491,1.3,3.568,3.568,0,0,1-1.273.872,7.7,7.7,0,0,1-1.8.507,15.416,15.416,0,0,1-2.093.2l-.008,1.567-1.885-.01v-1.6a25.745,25.745,0,0,1-3.222-.37,20.165,20.165,0,0,1-2.878-.7l1.993-2.206c.42.144.877.286,1.363.423.41.116.879.226,1.426.336a13.746,13.746,0,0,0,1.657.239v-1.145c-.488-.071-.969-.158-1.457-.252a19.6,19.6,0,0,1-1.909-.457,5.878,5.878,0,0,1-1.313-.556,2.153,2.153,0,0,1-.769-.7,1.677,1.677,0,0,1-.247-.9,1.97,1.97,0,0,1,.428-1.237,3.674,3.674,0,0,1,1.158-.927,7.29,7.29,0,0,1,1.707-.6,12.275,12.275,0,0,1,2.087-.286l0-1.31,1.885.01,0,1.318c.515.04,1.021.092,1.5.165s.956.155,1.4.25.872.194,1.258.3.748.2,1.082.284l-1.982,2.072c-.347-.121-.725-.239-1.132-.339-.339-.095-.732-.189-1.163-.276s-.864-.145-1.3-.192v1.163c.136.018.289.044.441.073s.323.063.493.092c.772.131,1.471.276,2.09.436a8.4,8.4,0,0,1,1.583.559A2.932,2.932,0,0,1,1105.432,755.02Zm-4.833,1.6c.152-.071.236-.158.236-.27s-.1-.226-.284-.32a3.2,3.2,0,0,0-.748-.236v.951a2.339,2.339,0,0,0,.8-.123m-2.019-3.757,0-.985c-.627.037-.945.184-.945.436a.364.364,0,0,0,.236.318,2.87,2.87,0,0,0,.7.231" transform="translate(-1092.133 -748.333)"/></g></g></g><path class="p" d="M1089.469,760c5.057,1.625,14.591,9.213,15.643,21.882s-1.9,17.153-1.9,17.153-9.064-.281-12.28-1.9C1093.759,792.2,1091.22,761.057,1089.469,760Z" transform="translate(-1056.841 -724.414)"/><g transform="translate(0 32.527)"><path class="k" d="M1117.325,786.187c2.258-12.54-4.24-24.232-14.564-26.419l.007-.016-4.235-.764-.081.441c-9.208.488-17.55,8.625-19.566,19.837s2.959,21.751,11.424,25.424l-.079.439,4.227.759,0-.018C1104.9,807.42,1115.075,798.721,1117.325,786.187Z" transform="translate(-1074.772 -758.592)"/><path class="l" d="M1087.332,766.61v2.242h15.985c0-.753-.037-1.5-.094-2.242Z" transform="translate(-1060.314 -746.202)"/><path class="l" d="M1087.332,771.926h14.787c.218-.733.409-1.478.567-2.24h-15.355Z" transform="translate(-1060.314 -741.201)"/><path class="l" d="M1087.332,771.369h15.6a28.9,28.9,0,0,0,.362-3.474h-15.958Z" transform="translate(-1060.314 -744.112)"/><g transform="translate(3.781 0.396)"><path class="m" d="M1111.766,770.753c-2.533-5.606-7.089-9.762-12.834-10.986l.008-.016-4.235-.764-.082.441c-5.214.278-10.161,6.963-13.829,11.324Z" transform="translate(-1074.724 -758.988)"/><path class="m" d="M1078.482,769.569c.772,8.16,5.227,15.084,11.757,17.92l-.078.439,4.227.759,0-.018c6.572.971,13.044-2.119,17.495-7.67C1103.1,781,1088.822,781.663,1078.482,769.569Z" transform="translate(-1078.482 -741.787)"/></g><path class="n" d="M1115.9,785.741c-2.306,12.805-12.774,21.635-23.381,19.724s-17.337-13.837-15.026-26.637,12.769-21.64,23.376-19.731S1118.2,772.936,1115.9,785.741Z" transform="translate(-1077.042 -758.837)"/><path class="q" d="M1108.865,781.706c-1.788,9.932-9.909,16.783-18.135,15.3s-13.446-10.731-11.658-20.661,9.9-16.783,18.137-15.3S1110.653,771.773,1108.865,781.706Z" transform="translate(-1074.312 -755.579)"/><path class="o" d="M1107.72,781.052c-1.712,9.463-9.45,15.99-17.284,14.58s-12.808-10.23-11.106-19.689,9.434-16,17.274-14.585S1109.422,771.584,1107.72,781.052Z" transform="translate(-1073.866 -755.051)"/><g transform="translate(9.725 11.458)"><path class="k" d="M1096.279,778.067a5.786,5.786,0,0,1-.087,2.261,5.928,5.928,0,0,1-1.077,2.45,5.062,5.062,0,0,1-1.733,1.436,6.049,6.049,0,0,1-2.166.588,9.749,9.749,0,0,1-2.342-.079l-.662,3.093-2.022-.457.669-3.146a16.937,16.937,0,0,1-3.313-1.47,15,15,0,0,1-2.8-2.048l3.069-3.9a14.158,14.158,0,0,0,1.292,1.145,15.259,15.259,0,0,0,1.389,1,8.915,8.915,0,0,0,1.688.848l.483-2.253c-.5-.255-.979-.53-1.468-.837a14.5,14.5,0,0,1-1.856-1.339,5.842,5.842,0,0,1-1.184-1.4,3.924,3.924,0,0,1-.53-1.554,5.467,5.467,0,0,1,.105-1.83,6.313,6.313,0,0,1,.99-2.334,5.643,5.643,0,0,1,1.633-1.557,6.186,6.186,0,0,1,2.1-.817,7.819,7.819,0,0,1,2.366-.084l.557-2.584,2.024.457-.56,2.607a11.737,11.737,0,0,1,1.552.675,14.827,14.827,0,0,1,1.4.811c.441.286.853.572,1.231.866s.727.562,1.045.806l-3.009,3.644a11.246,11.246,0,0,0-1.074-.94,10.359,10.359,0,0,0-1.142-.8,8.412,8.412,0,0,0-1.32-.688l-.5,2.3a4.088,4.088,0,0,1,.455.244c.155.1.32.2.493.291a18.451,18.451,0,0,1,2.061,1.347,6.92,6.92,0,0,1,1.473,1.47A4.363,4.363,0,0,1,1096.279,778.067Zm-5.881,2.027a.663.663,0,0,0,.373-.475.889.889,0,0,0-.173-.7,2.78,2.78,0,0,0-.706-.654l-.4,1.893a1.628,1.628,0,0,0,.911-.066m-.588-7.885.423-1.946q-1.048-.094-1.2.646a.869.869,0,0,0,.113.682,2.607,2.607,0,0,0,.665.617" transform="translate(-1080.746 -763.201)"/></g><g transform="translate(9.61 10.893)"><path class="n" d="M1096.23,777.847a5.753,5.753,0,0,1-.092,2.263,5.939,5.939,0,0,1-1.069,2.458,5.06,5.06,0,0,1-1.743,1.431,6,6,0,0,1-2.153.585,9.676,9.676,0,0,1-2.35-.079l-.659,3.1-2.03-.457.68-3.146a16.588,16.588,0,0,1-3.321-1.473,14.608,14.608,0,0,1-2.791-2.048l3.058-3.9a14.732,14.732,0,0,0,1.295,1.147,14.372,14.372,0,0,0,1.4,1,8.347,8.347,0,0,0,1.68.851l.48-2.261a16.311,16.311,0,0,1-1.459-.832,13.8,13.8,0,0,1-1.862-1.339,5.631,5.631,0,0,1-1.187-1.4,3.831,3.831,0,0,1-.523-1.549,5.446,5.446,0,0,1,.107-1.827,6.208,6.208,0,0,1,.979-2.345,5.683,5.683,0,0,1,1.63-1.552,6.217,6.217,0,0,1,2.1-.817,7.7,7.7,0,0,1,2.373-.089l.554-2.581,2.022.454-.554,2.61a12.694,12.694,0,0,1,1.546.672,15.877,15.877,0,0,1,1.41.809c.438.291.848.575,1.229.872s.73.562,1.048.811l-3.017,3.644a9.832,9.832,0,0,0-1.071-.945,11.686,11.686,0,0,0-1.137-.8,9.874,9.874,0,0,0-1.318-.693l-.5,2.311a4.13,4.13,0,0,1,.449.249c.16.092.326.194.5.278a19.558,19.558,0,0,1,2.056,1.355,7.155,7.155,0,0,1,1.476,1.465A4.511,4.511,0,0,1,1096.23,777.847Zm-5.879,2.035a.659.659,0,0,0,.368-.481.827.827,0,0,0-.165-.7,2.955,2.955,0,0,0-.712-.656l-.41,1.9a1.6,1.6,0,0,0,.919-.066m-.585-7.885.417-1.943c-.693-.071-1.095.142-1.2.638a.854.854,0,0,0,.116.688,2.545,2.545,0,0,0,.667.617" transform="translate(-1080.702 -762.986)"/></g></g></g></g></svg>