<svg xmlns="http://www.w3.org/2000/svg" width="194.084" height="185.644" viewBox="0 0 194.084 185.644"><defs><style>.a{fill:#f1f2f2;opacity:0.4;}.b{fill:#ccd2d9;}.c{fill:#fff;}.d{fill:#d34e4e;}.e{opacity:0.1;}.f{fill:#3a404a;}.g{fill:#292e35;}.h{fill:#3b455a;}.i{fill:#aa6755;}.j{fill:#eac1a4;}.k{fill:#474ebb;}.l{fill:#4b505b;}.m{fill:#7fc5a3;}.n{fill:#c2c3c4;}.o{fill:#ebb044;}.p{fill:#f2f2f2;}.q{font-size:32px;font-family:BebasKai, Bebas Kai;}</style></defs><g transform="translate(-193 -62.751)"><path class="a" d="M278.869,691a164.386,164.386,0,0,0-16.434.7c-2.063.213-4.083.681-6.151.87-4.13.377-8.186,1.082-12.331,1.406-3.338.262-6.69.416-10.018.747a37.942,37.942,0,0,1-9.671-.275,68.9,68.9,0,0,1-6.849-1.206,30.011,30.011,0,0,0-7.887-1.155c-3.746.025-7.393.028-10.978,1.235a11.029,11.029,0,0,0-3.754,2.009c-2.187,2.036-2.484,7.115-.3,9.226,3.679,3.553,11.53,4.947,16.687,5.013,5.65.072,11.139-.317,16.8-.546,5.258-.213,10.5-.515,15.77-.505,10.757.022,21.515,0,32.253-.667,10.088-.626,20.2-.411,30.312-.411,10.367,0,20.665.076,30.958,1.354,4.485.557,9.054.752,13.561,1.143a70.738,70.738,0,0,0,11.936-.33,30.228,30.228,0,0,0,9.8-2.436c2.428-1.077,6.756-4.422,7.5-6.992,2.087-7.206-29.416-7.032-34.253-7.016-5.411.018-10.865.183-16.272-.008a41.112,41.112,0,0,1-6.735-.945,57.214,57.214,0,0,0-6.681-.525c-9.35-.789-18.721-.674-28.1-.674C284.977,691.018,281.922,690.993,278.869,691Z" transform="translate(0 -461.693)"/><g transform="translate(252.008 62.751)"><g transform="translate(10.215 0)"><g transform="translate(17.13)"><g transform="translate(1.173 2.779)"><path class="b" d="M540.054,78.069a3.994,3.994,0,0,1-.907,2.47c-3.313,4.781-10.938,9.847-16,6.529.585-.107,2.1-.068,3.3-.32,2.839-.6,4.727-3.627,6.281-6.348.952-1.668,1.225-6.47,3.053-7.1C537.519,72.7,539.926,76.247,540.054,78.069Z" transform="translate(-523.144 -73.233)"/></g><path class="c" d="M520.757,72.861a26.044,26.044,0,0,1,4.332-6.609,8.992,8.992,0,0,1,6.556-3.5,1.753,1.753,0,0,1,.87.176,2.416,2.416,0,0,1,.73.789c1.146,1.679,3.356,3.931,3.53,6.264A17.737,17.737,0,0,0,524.341,73.8c-2.652,2.054-4.256,5.847-4.536,5.84C517.142,79.579,520.149,74.183,520.757,72.861Z" transform="translate(-518.721 -62.751)"/></g><g transform="translate(0 2.659)"><g transform="translate(0.033 3.023)"><path class="b" d="M454.239,89.6A3.938,3.938,0,0,0,455.5,91.9c3.984,4.189,12.27,7.963,16.78,3.867-.593-.011-2.085.273-3.3.216-2.894-.134-5.209-2.82-7.148-5.258-1.189-1.494-2.172-6.194-4.072-6.52C455.945,83.889,454.093,87.781,454.239,89.6Z" transform="translate(-454.231 -84.183)"/></g><path class="c" d="M470.372,81.1a25.581,25.581,0,0,0-5.262-5.83,8.874,8.874,0,0,0-7-2.4,1.775,1.775,0,0,0-.833.314,2.464,2.464,0,0,0-.6.9c-.883,1.843-2.731,4.425-2.556,6.758a17.6,17.6,0,0,1,12.852,1.771c2.926,1.6,5.074,5.089,5.349,5.037C474.942,87.151,471.169,82.306,470.372,81.1Z" transform="translate(-454.108 -72.78)"/></g></g><g transform="translate(0 14.801)"><g transform="translate(3.471 0.282)"><path class="d" d="M482.838,164.906l-50.781,4.123-3.385-45.263,50.781-4.123Z" transform="translate(-428.672 -119.643)"/></g><path class="d" d="M474.157,130.009,416.433,134.7l-.855-11.43,57.724-4.687Z" transform="translate(-415.578 -118.579)"/></g><g class="e" transform="translate(6.489 26.513)"><path d="M440.055,166.7l48.618-3.948.3,4.077Z" transform="translate(-440.055 -162.757)"/></g><g transform="translate(25.239 15.577)"><path class="c" d="M520.493,168.117l-6.285.51-3.428-45.83a.815.815,0,0,1,.7-.9l4.751-.386a.8.8,0,0,1,.83.779Z" transform="translate(-510.778 -121.506)"/></g></g><g transform="translate(323.829 123.773)"><g transform="translate(26.979 20.066)"><path class="d" d="M790.956,368.613l17.138,18.58-13.026,11.06-1.926-2.323,5.1-10.6-9.992-8.81Z" transform="translate(-788.252 -368.613)"/></g><g transform="translate(19.236 63.902)"><path class="f" d="M773.758,536.428l.774,17.941-2.267,30.507-3.393.241-4.123-27.707-5.7-23.445Z" transform="translate(-759.045 -533.965)"/><g transform="translate(9.816 50.487)"><path class="g" d="M796.2,726.5l3.8,1.574,1.7-1.965-1.965-1.7-3.669.26Z" transform="translate(-796.072 -724.4)"/></g></g><g transform="translate(9.184 58.622)"><path class="f" d="M721.876,515.443l-.745,13.562,2.209,40.324,3.4.169,5.092-26.447,4.491-29Z" transform="translate(-721.132 -514.049)"/><g transform="translate(0.005 54.861)"><path class="g" d="M726.66,723l-3.766,1.653-1.745-1.929,1.929-1.745,3.674.184Z" transform="translate(-721.149 -720.984)"/></g></g><g transform="translate(6.114 18.93)"><path class="h" d="M733.12,365.465l-10.6-1.136s-5.9.63-9.9,14.637c-2.226,7.793-2.9,20.07-3.067,29.43.25,1.335,1.7,7.183,7.856,6.191,10.563-1.7,16.185-3.407,20.785-2.555,3.918.852,3.587-4.543,3.156-8.66l-1.561-12.739Z" transform="translate(-709.551 -364.329)"/></g><g transform="translate(13.847)"><g transform="translate(3.077 6.064)"><path class="i" d="M761.038,316.6a19.9,19.9,0,0,0-8.1-.587,2.235,2.235,0,0,0-1.533.826,2.332,2.332,0,0,0-.248.645c-.675,2.51-1.532,6.229.12,8.541a4.133,4.133,0,0,0,1.193,1.075,5.876,5.876,0,0,0,1.977.775,10.586,10.586,0,0,1-.6,1.822c.612.922,3.465,1.033,3.993.149q.044-1.148.089-2.3a5.688,5.688,0,0,0,1-.519,6.448,6.448,0,0,0,2.49-3.386c.508-1.485,1.223-2.9,1.688-4.41a2.132,2.132,0,0,0,.012-1.679,2.272,2.272,0,0,0-1.575-.845Z" transform="translate(-750.326 -315.797)"/></g><path class="h" d="M743.614,301.229a8.331,8.331,0,0,1,4.544-1.125c3.755.272,5.13,3.029,5.331,6.481,1.034-1.314,2.976-2.968,3.093-4.66a7.918,7.918,0,0,0-.871-4.469c-.726-1.119-2.582-1.734-3.686-2.382l-3.121-1.834a1.579,1.579,0,0,0-1.564-.2l-7.378,1.907c-.472.122-1.01.3-1.185.756a1.55,1.55,0,0,0,.02.877,36.275,36.275,0,0,1,.948,3.875c.15.751.6,4.6,1.928,4.158a17.273,17.273,0,0,0,.753-2.109A3.058,3.058,0,0,1,743.614,301.229Z" transform="translate(-738.72 -292.925)"/></g><g transform="translate(0 18.93)"><path class="h" d="M705.57,364.329l-3.919,1.192L687.34,380.514l-.852,4.941,6.841,11.3,1.847-4.14-2.9-8.348,4.6-3.237,6.133-13.8Z" transform="translate(-686.488 -364.329)"/></g></g><g transform="translate(255.524 119.125)"><g transform="translate(32.725)"><g transform="translate(19.883)"><path class="j" d="M630.5,280.129l.708-4.352-1.847-.384-1.145,2.873-.789-.587-.152,3.8,1.866.658Z" transform="translate(-627.278 -275.394)"/></g><g transform="translate(0 6.083)"><path class="k" d="M552.279,322.116l12.249-10.306,7.634-13.47,2.533.677-3.817,16.722-12.943,15.614Z" transform="translate(-552.279 -298.34)"/></g></g><g transform="translate(27.759 78.729)"><g transform="translate(2.984 40.146)"><path class="g" d="M544.985,725.663l.18,1.871,3.789,1.623,1.625-2-1.984-1.747-3.789-1.623Z" transform="translate(-544.805 -723.791)"/></g><path class="l" d="M533.548,576.445l2.917,37.342,3.651.5,3.022-31.827,2.5-10.1Z" transform="translate(-533.548 -572.359)"/></g><g transform="translate(14.471 73.016)"><g transform="translate(2.368)"><path class="l" d="M494.548,550.809l-2.189,44.373,3.33.627,6.939-33.575,3.817-9.722Z" transform="translate(-492.359 -550.809)"/></g><g transform="translate(0 43.902)"><path class="g" d="M488.829,718.974l-3.957,1.21-1.445-2.227,2.156-1.549,3.6.678Z" transform="translate(-483.427 -716.408)"/></g></g><g transform="translate(6.659 23.775)"><path class="k" d="M471.038,366.389c2.7-2.232,9.2-.949,12.618-.949-.329,0,10.643,43.135,11.422,45.6,1.29,4.088,1.286,8.9.922,13.135-3.671,1.009-7.109,2.9-10.885,3.388-3.106.4-6.243-.168-9.363-.445-3.689-.326-7.4-.239-11.1-.523a27.018,27.018,0,0,1-10.695-2.7,77.424,77.424,0,0,0,5.99-18.374c.307-2.843.357-5.736.771-8.619.481-3.353,1.059-6.7,1.863-9.989a75.146,75.146,0,0,1,3.619-11.038c1.133-2.724,2.485-7.186,4.613-9.284Q470.922,366.485,471.038,366.389Z" transform="translate(-453.96 -365.073)"/></g><g transform="translate(20.191 9.5)"><g transform="translate(0 1.673)"><path class="h" d="M514.275,321.134c-1.708.311-3.814,1.771-4.226,3.573-.2.868.084,1.667-.165,2.587-.484,1.817,1.714,4.493-.462,5.755a5.578,5.578,0,0,1-3.788.209.947.947,0,0,1-.438-.157.667.667,0,0,1-.159-.711,2.7,2.7,0,0,1,.383-.67c1.495-2.248,1.133-5.473,1.714-8.033s1.953-5.1,4.484-6.149a5.812,5.812,0,0,1,2.494,3.62Z" transform="translate(-505.001 -317.538)"/></g><g transform="translate(3.88 3.216)"><path class="j" d="M522.887,336.412a5.658,5.658,0,0,1-3.09-4.128,11.332,11.332,0,0,1,.41-5.3c1.611-5.726,8.8-4.086,10.473.811C532.14,332.067,527.666,338.456,522.887,336.412Z" transform="translate(-519.636 -323.358)"/></g><g transform="translate(6.415)"><path class="h" d="M538.281,330.648a5.033,5.033,0,0,1-2.065-1.963c-.756-1.514-.437-3.867-.527-5.509-.095-1.731-.252-3.618-1.439-4.882a4.105,4.105,0,0,0-2.806-1.162c-.738-.075-.79.2-1.38-.248a3.2,3.2,0,0,1-.849-1.827,3.076,3.076,0,0,1,.98-2.47,4.313,4.313,0,0,1,3.5-1.349c4.821.3,8.19,3.466,9.146,8.283.459,2.316-.238,4.79.272,7.025.315,1.379,1.1,2.347,1.326,3.807.588,3.788,2.233,8.708,1.749,12.531a.54.54,0,0,1-.162.383c-.233.173-.537-.088-.707-.324l-2.977-4.124a7.178,7.178,0,0,1-1.01-1.715c-.562-1.56-.04-3.47-1.01-4.814A6.675,6.675,0,0,0,538.281,330.648Z" transform="translate(-529.197 -311.227)"/></g></g><g transform="translate(0 3.685)"><path class="j" d="M430.032,294.125l-1.192-4.245,1.792-.588,1.46,2.726.718-.672.577,3.756-1.78.863Z" transform="translate(-428.841 -289.292)"/><g transform="translate(2.106 5.811)"><path class="k" d="M461.651,332.605l-13.328-8.866-9.1-12.529-2.441.957,5.67,16.188,14.613,14.063Z" transform="translate(-436.784 -311.21)"/></g></g></g><g transform="translate(197.161 117.852)"><g transform="translate(10.18)"><path class="j" d="M247.267,275.137l3.048-4.545,2.549,1.1-1.2,3.533,1.467.084-3.216,3.6-2.817-.867Z" transform="translate(-247.095 -270.592)"/></g><g transform="translate(29.76 29.215)"><path class="m" d="M320.95,380.789l4.271,1.465,6.91,10.356,8.849-5.92,2.812,3.338-4.463,6.622-8.035,5.738L320.95,391.563Z" transform="translate(-320.95 -380.789)"/></g><g transform="translate(9.695 9.592)"><g transform="translate(3.913 47.056)"><g transform="translate(10.114)"><path class="n" d="M314.251,486.635l.3,26.289-2.8,33.842h-3.809l-4.558-31.222-5.213-31.275Z" transform="translate(-298.173 -484.268)"/><g transform="translate(9.793 62.044)"><path class="g" d="M335.111,720.357l4.119,2.06,2.06-2.06-2.06-2.06h-4.119Z" transform="translate(-335.111 -718.298)"/></g></g><path class="n" d="M260.1,486.635l-.075,15.209,2.569,44.921H266.4l6.372-29.81,3.4-32.688Z" transform="translate(-260.024 -484.268)"/><g transform="translate(0.177 62.044)"><path class="g" d="M266.872,720.357l-4.119,2.06-2.06-2.06,2.06-2.06h4.119Z" transform="translate(-260.693 -718.298)"/></g></g><g transform="translate(0 18.096)"><path class="o" d="M245.291,415.515c-.082,2.413-.029,5.641.986,5.761a1,1,0,0,0,.541-.143c1.767-.858,3.026-2.072,4.768-2.9a21.52,21.52,0,0,1,5.927-1.637,61.627,61.627,0,0,1,9.141-.8c2.615-.023,5.335,1.17,7.808,1.826a8.624,8.624,0,0,1,2.517,1.49c1.168.8,1.68,1.121,1.52-.52-.26-2.679-.53-5.357-.859-8.028a99.071,99.071,0,0,0-3.066-15.8c-.578-1.97-1.245-3.914-1.913-5.856l-2.436-7.095a8.875,8.875,0,0,0-5.7-6.038,11.133,11.133,0,0,0-8.287.112c-2.787,1.383-4.113,6.093-5.467,8.61-1.187,2.206-2.682,8.222-3.127,10.6-.534,2.862-1.028,5.711-1.417,8.552a87.739,87.739,0,0,0-.822,9.4C245.4,413.4,245.33,414.363,245.291,415.515Z" transform="translate(-245.265 -375.03)"/></g><g transform="translate(7.906)"><g transform="translate(3.202 7.499)"><path class="j" d="M292.972,347.029a.61.61,0,0,1-.21.12,1.163,1.163,0,0,1-.5.014l-2.043-.242c.225-2.085-.994-2.557-2.182-3.9-1.2-1.36-.833-3.193-.766-4.857a3.55,3.55,0,0,1,.238-1.361,2.975,2.975,0,0,1,1.922-1.387,7.241,7.241,0,0,1,6,.66,3.173,3.173,0,0,1,1.151,1.167,4.3,4.3,0,0,1,.181,2.509,8.465,8.465,0,0,1-1.286,3.671c-.685,1.02-1.99,1.509-2.14,2.733A1.385,1.385,0,0,1,292.972,347.029Z" transform="translate(-287.163 -335.06)"/></g><g transform="translate(12.408 7.795)"><path class="h" d="M322.219,339.065a3.565,3.565,0,0,0-.233,1.575,3.023,3.023,0,0,0,1.671-2,3.062,3.062,0,0,0,.2-1.223,1.45,1.45,0,0,0-.541-1.067.914.914,0,0,0-1.408.395C321.772,337.344,322.393,338.277,322.219,339.065Z" transform="translate(-321.886 -336.176)"/></g><path class="h" d="M292.244,312.854a1.865,1.865,0,0,0-.82-1.568,3.8,3.8,0,0,1-1.335-1.117c-.228-.4-.262-.9-.488-1.306a3.279,3.279,0,0,0-2.07-1.2c-1.933-.621-2.974-1.337-5.021-.543-1.456.565-3.336.641-4.688,1.465a4.738,4.738,0,0,0-1.438,1.513,8.54,8.54,0,0,0-.8,7.36,9.1,9.1,0,0,0,.722,1.395,5.6,5.6,0,0,0,2.076,2.386c.06-.413.368-.642.464-1.048a3.21,3.21,0,0,0,.031-.9c-.059-1.17-.418-3.021.751-3.6,1.478-.734,4.25-.072,5.673.549,1.259.55,3.385,1.265,4.727.676C291.272,316.374,292.286,314.2,292.244,312.854Z" transform="translate(-275.084 -306.774)"/></g></g><g transform="translate(0 5.229)"><path class="o" d="M230.535,313.364l-13.068-3.851,4.837-16.338-3.986-2.859L208.7,309.23l2.661,6.549,12.486,6.445Z" transform="translate(-208.696 -290.316)"/></g></g><g transform="translate(327.95 156.868)"><path class="i" d="M708.124,419.38l1.014,2.238-3.69,1.6-3.416-2.363,1.8-3.1Z" transform="translate(-702.031 -417.761)"/></g><g transform="translate(197.28 152.431)"><rect class="p" width="142.303" height="54.391" transform="translate(0 8.912) rotate(-3.591)"/></g><g transform="translate(201.267 156.174)"><path class="c" d="M227.148,470.853l-2.966-47.27,134.491-8.44,2.967,47.27Zm-2.062-46.473,2.859,45.569,132.79-8.333-2.859-45.569Z" transform="translate(-224.182 -415.143)"/></g><text class="q" transform="matrix(0.998, -0.062, 0.062, 0.998, 218.017, 199.73)"><tspan x="0" y="0">SCHEMES</tspan></text><g transform="translate(326.057 141.17)"><g transform="translate(0)"><g transform="translate(0 43.687)"><path class="d" d="M709.224,557.882,724.2,531.46l-7.167-4.063-7.167-4.063-14.979,26.423,10.027-.983Z" transform="translate(-694.891 -523.334)"/></g><g transform="translate(27.625 47.796)"><path class="d" d="M806.052,572.171l-6.961-29.565,8.019-1.888,8.019-1.888,6.96,29.565-9.348-3.758Z" transform="translate(-799.092 -538.831)"/></g><g transform="translate(2.308)"><path class="o" d="M757.865,394.944l4.345-2.782-3.372-3.9,3.477-3.812-4.267-2.9,2.371-4.581-4.872-1.7,1.1-5.039-5.145-.377-.237-5.154-5.067.967-1.563-4.917L739.994,363l-2.782-4.344-3.9,3.372-3.812-3.476-2.9,4.267-4.582-2.371-1.7,4.872-5.039-1.1-.377,5.145-5.154.237.967,5.068-4.916,1.563,2.246,4.645-4.345,2.782,3.372,3.9-3.476,3.812,4.267,2.9-2.372,4.582,4.872,1.7-1.1,5.039,5.145.377.237,5.153,5.067-.967,1.563,4.917,4.645-2.246,2.782,4.344,3.9-3.371,3.812,3.476,2.9-4.267,4.582,2.371,1.7-4.872,5.039,1.1.377-5.145,5.153-.237-.967-5.067,4.917-1.563Z" transform="translate(-703.596 -358.546)"/><g transform="translate(11.234 11.234)"><path class="c" d="M746.157,416.477a18.123,18.123,0,1,1,15.37,20.509A18.123,18.123,0,0,1,746.157,416.477Z" transform="translate(-745.972 -400.922)"/></g></g></g><g transform="translate(19.982 16.888)"><path class="o" d="M784.029,422.514l2.626,7.546a.4.4,0,0,0,.271.253l7.687,2.1a.4.4,0,0,1,.136.7l-6.345,4.843a.4.4,0,0,0-.157.337l.376,7.985a.4.4,0,0,1-.625.348l-6.547-4.553a.4.4,0,0,0-.368-.045l-7.455,2.832a.4.4,0,0,1-.523-.489l2.3-7.656a.4.4,0,0,0-.07-.365l-4.983-6.235a.4.4,0,0,1,.3-.649l7.968-.179a.4.4,0,0,0,.325-.181l4.375-6.686A.4.4,0,0,1,784.029,422.514Z" transform="translate(-770.263 -422.247)"/><g transform="translate(2.658 23.521)"><path class="b" d="M780.288,510.969Z" transform="translate(-780.288 -510.969)"/></g></g></g><g transform="translate(375.85 149.445)"><path class="i" d="M888.97,392.168l.57,2.39-3.928.873-2.9-2.97,2.356-2.7Z" transform="translate(-882.708 -389.761)"/></g><g transform="translate(244.81 152.237)"><path class="j" d="M390.829,400.293l4.361,1.636,1.082,4.628-2.53.576-2.05-2.8-1.685-.1-1.583-2.556Z" transform="translate(-388.425 -400.293)"/></g></g></svg>