<svg xmlns="http://www.w3.org/2000/svg" xmlns:xlink="http://www.w3.org/1999/xlink" width="175.624" height="167.137" viewBox="0 0 175.624 167.137"><defs><style>.a{fill:#b63a3a;}.b{fill:#efcd82;}.c{fill:#dba585;}.d{fill:url(#a);}.e{fill:#e8bd5d;}.f{fill:#c99a7d;}.g{fill:#363957;}.h{fill:#dba686;}.i{fill:#3b5e90;}.j{fill:#47558d;}.k{fill:#cfc3bc;}.l{fill:#f3e4dc;}.m{fill:#997761;}.n{fill:#dca787;}.o{fill:#8ec2b6;}.p{fill:#e6d8d1;}.q{fill:#7380d6;}.r{fill:#2c323d;}.s{fill:#2c3d54;}.t{fill:#2f4159;}.u{fill:#c75454;}.v{fill:#f1ce6f;}.w{fill:#dab659;}.x{fill:#bd8a6d;}.y{fill:#232536;}.z{fill:#42466c;}.aa{fill:#2b2d43;}.ab{fill:#d7c9c2;}.ac{fill:#3a3d5d;}.ad{fill:#2e3048;}.ae{fill:#2c3548;}.af{fill:#404367;}.ag{fill:#5d629a;}.ah{fill:#cb4949;}.ai{fill:#eee0d7;}</style><linearGradient id="a" x1="0.636" y1="0.507" x2="-0.205" y2="1.35" gradientUnits="objectBoundingBox"><stop offset="0" stop-color="#eebe63"/><stop offset="1" stop-color="#dc3b57"/></linearGradient></defs><g transform="translate(-147.323 -421.365)"><g transform="translate(147.323 421.365)"><rect class="a" width="59.348" height="73.349" transform="translate(58.43 93.788)"/><rect class="b" width="54.875" height="54.876" transform="translate(0 112.262)"/><rect class="b" width="54.875" height="54.876" transform="translate(120.749 112.262)"/><g transform="translate(165.54 41.834)"><path class="c" d="M1239.715,754.624s.93-1.319,1.068-1.475a3.275,3.275,0,0,1,1.359-.417,3.806,3.806,0,0,1,1.682.114.586.586,0,0,1,.242.426,1.13,1.13,0,0,1-.081.564.683.683,0,0,1,.044.659.594.594,0,0,1-.067.66.5.5,0,0,1-.029.55,4.5,4.5,0,0,0-.755.264,13.513,13.513,0,0,1-2.884.369S1239.427,756.291,1239.715,754.624Z" transform="translate(-1239.657 -752.69)"/></g><g transform="translate(164.104 21.353)"><path class="d" d="M1241.575,676.813c-.871-.95.318-2.337.318-2.337a6.788,6.788,0,0,0-2.207,1.163,4.778,4.778,0,0,1-.544-.85c-.723-1.55.973-3.1.973-3.1a5.929,5.929,0,0,0-3.856,4.327,2.386,2.386,0,0,0-.207-.2c-.792-.655.464-1.963.464-1.963s-2.049.861-1.7,2.032.687,1.065-.4,2.3-.019,3.131,1.984,2.7c.364-.079.7.363.865.127a2.14,2.14,0,0,0,2.246-.037,1.882,1.882,0,0,0,1.751-.131C1243.4,679.661,1242.448,677.764,1241.575,676.813Z" transform="translate(-1233.979 -671.688)"/><path class="e" d="M1237.657,707.878v.965a.817.817,0,0,0,.818.817h.11a.162.162,0,0,1,.161.147l1.811,19.581a.322.322,0,0,0,.641,0l1.811-19.581a.161.161,0,0,1,.161-.147h.11a.818.818,0,0,0,.817-.817v-.965a.162.162,0,0,0-.161-.162h-6.117A.161.161,0,0,0,1237.657,707.878Z" transform="translate(-1236.727 -698.607)"/><path class="e" d="M1244.387,720.231h-4.372a.587.587,0,0,1-.586-.587h0a.586.586,0,0,1,.586-.586h4.372a.586.586,0,0,1,.586.586h0A.587.587,0,0,1,1244.387,720.231Z" transform="translate(-1238.051 -707.082)"/></g><g transform="translate(167.41 41.989)"><path class="f" d="M1249.178,753.327s-1.665.327-1.647.6a.433.433,0,0,0,.194.364l-.625.446s-.246.529.4.643c0,0-.282.469.357.505,0,0-.047.393.245.462a5.68,5.68,0,0,0,1.356-.187s.2-.154.029-.55a.585.585,0,0,0,.067-.66.643.643,0,0,0-.044-.659s.349-.652-.16-.99C1249.352,753.3,1249.248,753.313,1249.178,753.327Z" transform="translate(-1247.054 -753.304)"/></g><g transform="translate(166.379 42.277)"><path class="c" d="M1243.314,754.442a5.751,5.751,0,0,1,1.654.765c.121.1.22.219.173.37s-.326.272-.818.157a4.3,4.3,0,0,0-1.181-.037S1242.671,755.431,1243.314,754.442Z" transform="translate(-1242.976 -754.442)"/></g><g transform="translate(139.412 38.265)"><path class="g" d="M1139.832,738.828a1.987,1.987,0,0,0-2.667.7c-1.264,1.6-.809,3.136-.545,4.572s1.537,4.682,1,6.118a2.11,2.11,0,0,0,.15,2.182s4.348,1.113,3.841-5.427S1139.832,738.828,1139.832,738.828Z" transform="translate(-1136.319 -738.576)"/></g><path class="h" d="M1232.529,756.167a14.51,14.51,0,0,1-3.412,2.571c-1.3.481,1.07,1.858,1.07,1.858l2.85-2.915Z" transform="translate(-1065.952 -713.454)"/><g transform="translate(145.018 43.466)"><path class="i" d="M1158.495,768.593s-.064-1.718,1.262-2.132a23.828,23.828,0,0,1,4.188-.562c.592-.064,6.339-1.445,6.5-1.58s2.545-1.65,4.309-2.581,4.185-2.595,4.185-2.595l.848,2.084s-5.561,4.944-7.448,5.571c-2.017.671-11.775,3.539-11.775,3.539S1158.417,771.225,1158.495,768.593Z" transform="translate(-1158.493 -759.144)"/></g><g transform="translate(153.358 107.964)"><path class="j" d="M1194.955,1018.061s1.791,2.411,1.545,2.794-2.129.436-3.274,0-1.174-3.263-1.693-4.477c-.217-.508.248-2.009.9-2.117a2.75,2.75,0,0,1,1.363.211S1193.12,1016.181,1194.955,1018.061Z" transform="translate(-1191.478 -1014.237)"/></g><g transform="translate(153.898 107.929)"><path class="c" d="M1195.4,1014.349a11.412,11.412,0,0,1,.515,2.007c.114.814,1.275,2.54,1.221,2.759a2.11,2.11,0,0,1-2.13-.147,6.626,6.626,0,0,1-1.119-3.18,7.827,7.827,0,0,0-.278-1.362S1194.83,1013.749,1195.4,1014.349Z" transform="translate(-1193.613 -1014.101)"/></g><g transform="translate(153.364 109.891)"><path class="j" d="M1191.5,1021.86v2.524h.328v-1.951Z" transform="translate(-1191.502 -1021.86)"/></g><g transform="translate(137.705 107.965)"><path class="j" d="M1133.109,1018.1s1.727,2.371,1.481,2.753-2.129.436-3.276,0-1.173-3.263-1.692-4.477c-.217-.508.247-2.009.9-2.117a2.932,2.932,0,0,1,1.419.233A3.544,3.544,0,0,0,1133.109,1018.1Z" transform="translate(-1129.568 -1014.242)"/></g><g transform="translate(138.513 107.875)"><path class="c" d="M1134.331,1014.232a16.245,16.245,0,0,0,.355,1.911c.218.792,1.392,2.594,1.338,2.812a2.11,2.11,0,0,1-2.13-.147,5.886,5.886,0,0,1-1.119-3.18,5.245,5.245,0,0,1,.137-1.63A1.332,1.332,0,0,1,1134.331,1014.232Z" transform="translate(-1132.766 -1013.888)"/></g><g transform="translate(137.71 109.891)"><path class="j" d="M1129.59,1021.86v2.524h.328v-1.951Z" transform="translate(-1129.59 -1021.86)"/></g><g transform="translate(135.899 63.755)"><path class="g" d="M1135.234,844.6s1.536,7.149,1.89,8.95,1.341,10.519,1.447,12,1.6,7.069,1.533,7.6,2.3,11.036,2.3,11.036-2.445.665-2.857.217c-.349-.38-3.862-9.988-3.862-12.635,0-3.659-2.492-8.431-2.782-9.272-2.695-7.813-2.878-9.913-3.3-10.408s-.461.305-.707,1.4-.776,10.554-1.094,11.754-.071,5.259-.247,7.306-.38,11.219-.38,11.219a5.475,5.475,0,0,1-2.612.015c-.243-.114-.855-10.218-.891-12.654s-.073-5.793-.141-6.846c-.655-10.092-2.262-11.534.27-18.677C1128.545,832.23,1135.234,844.6,1135.234,844.6Z" transform="translate(-1122.428 -839.388)"/></g><g transform="translate(136.76 49.833)"><path class="i" d="M1133.8,784.413a16.712,16.712,0,0,0,2.161.869c.557.112,2.718,2.92,3.1,3.944s0,2.562-.779,4.367-.045,2.406-.4,4.211.234,6.522.3,7.525-9.876,1.307-11.948-.52c0,0,1.247-4.4,1.514-4.842a6.818,6.818,0,0,0,.6-3.232c-.245-.624-1.877-5.929-1.877-5.929s-1.334-4.074-.129-5.01c1.048-.814,3.9-1.1,4.414-1.281A8.759,8.759,0,0,1,1133.8,784.413Z" transform="translate(-1125.83 -784.329)"/></g><g transform="translate(145.194 49.346)"><path class="k" d="M1159.234,786.549l.974-1.141-.846-3.006A19.81,19.81,0,0,0,1159.234,786.549Z" transform="translate(-1159.187 -782.402)"/></g><g transform="translate(141.677 45.871)"><path class="c" d="M1149.1,770.852a38.14,38.14,0,0,0-.253,3.9s-1.668,1.671-3.563-1.95a4.973,4.973,0,0,0,.2-3.526C1144.877,767.244,1149.1,770.852,1149.1,770.852Z" transform="translate(-1145.28 -768.656)"/></g><g transform="translate(143.321 51.967)"><path class="c" d="M1153.7,792.767v1.526l-1.919-1.433Z" transform="translate(-1151.783 -792.767)"/></g><g transform="translate(141.761 49.834)"><path class="k" d="M1149.09,787.99l-.8-.985-2.683-2.674.167,1.586Z" transform="translate(-1145.61 -784.331)"/></g><g transform="translate(145.368 49.346)"><path class="l" d="M1160.725,785.408l1.228.339-2.075-3.345Z" transform="translate(-1159.879 -782.402)"/></g><g transform="translate(141.03 49.834)"><path class="l" d="M1146.133,787l-1.122,1.47-2.292-3.842.731-.3Z" transform="translate(-1142.72 -784.331)"/></g><g transform="translate(142.314 47.437)"><path class="m" d="M1150.911,776.129l-.059.579s-1.321.258-3.055-1.857A3.765,3.765,0,0,0,1150.911,776.129Z" transform="translate(-1147.797 -774.852)"/></g><g transform="translate(140.831 38.474)"><path class="h" d="M1146.194,749.686c.521-.019,1.978-.19,2.7-3.546.878-4.1-1.062-6.227-2.723-6.621s-3.193.184-4.044,2.327c0,0-.622,1.671.387,4.647S1145.635,749.707,1146.194,749.686Z" transform="translate(-1141.934 -739.404)"/></g><g transform="translate(140.366 38.249)"><path class="g" d="M1143.485,741.511s2.231.139,4.3,3.255c0,0,.971-3.749-1.566-5.459a3.46,3.46,0,0,0-4.932.505s-.888.2-.917,1.889-1.161,4.227,1.325,5.432a8.257,8.257,0,0,1-.018-2.363C1141.9,744.331,1142.66,744.628,1143.485,741.511Z" transform="translate(-1140.093 -738.511)"/></g><g transform="translate(141.43 43.48)"><path class="h" d="M1144.948,759.481c-.113-.292-.42-.41-.588-.1s.032,1.525.482,1.658S1145.176,760.072,1144.948,759.481Z" transform="translate(-1144.301 -759.199)"/></g><g transform="translate(125.981 70.534)"><path class="n" d="M1083.252,869.635a1.445,1.445,0,0,1-.043-.458s.081-.268.126-.463a1.41,1.41,0,0,0,.03-.151,2.625,2.625,0,0,1,.138-.83c.136-.349.74-1.531.74-1.531l1.1.336,1,.015a17.154,17.154,0,0,1,.319,2.574.91.91,0,0,1-.031.094,3.4,3.4,0,0,1-.368.586c-.027.052-.323.546-.494.572a.561.561,0,0,1-.524-.155,1.352,1.352,0,0,1-.731-.122.837.837,0,0,1-.7-.248S1083.372,869.867,1083.252,869.635Z" transform="translate(-1083.201 -866.201)"/></g><path class="i" d="M1100.791,787.694s-2.419-.991-4.148.03-2.244,2.757-2.812,3.393-2.376,3.592-2.71,4.056-1.477,3.326-2.5,5.593-2.462,6.659-2.462,6.659l2.51.374s1.512-4.14,2.394-6.537,4.3-6,5.681-7.622S1102.279,789.509,1100.791,787.694Z" transform="translate(-959.431 -736.687)"/><g transform="translate(25.898 0)"><path class="a" d="M639.227,711.985s-8.184-4.29-16.68-.705-20.545,11.25-28.8,5.985-17.7,2.656-17.7,2.656,15.128-1.3,11.545,14.408c-2.174,9.527,16.664,9.215,22.563,1.884s5.882-9.652,11.261-9.8c9.147-.259,10.324-9.1,14.879-6.4S639.227,711.985,639.227,711.985Z" transform="translate(-576.047 -678.848)"/><g transform="translate(60.294 53.141)"><path class="h" d="M814.627,802.544s2.884,6.263,3.883,7.512,3.252,5.176,3.158,5.932a6.337,6.337,0,0,1-1.074,3.128,13.9,13.9,0,0,0-1.287,5.989c.076,1.107.738,7.587.615,8.125s1.74.664,1.729-.069a81.406,81.406,0,0,1,1.687-10.25c.58-2.033,2.533-5.814,2.4-6.936s-1.378-6.506-1.851-8.122c-.845-2.884-2.477-7.915-2.765-8.562C820.8,798.57,813.522,793.957,814.627,802.544Z" transform="translate(-814.513 -797.409)"/></g><g transform="translate(47.667 51.961)"><path class="h" d="M774.253,793.082s-2.229,2.665-1.469,5.664,2.626,9.619,2.739,10.7.8,2.788-.068,2.755a15.45,15.45,0,0,0-4.953.26c-1.589.354-3.833-.067-5.454.037-.642.041-.607,1.267-.045,1.737.441.368,11.461,2.282,13.478,1.846.877-.19,1.292-1.259,1.556-4.527.119-1.473-.054-6.53.153-8.286a29.854,29.854,0,0,0,0-4.477S783.3,791.05,774.253,793.082Z" transform="translate(-764.573 -792.742)"/></g><g transform="translate(54.429 52.34)"><path class="o" d="M804.832,797.266a20.854,20.854,0,0,1-5.778,4.251,3.66,3.66,0,0,1-.678.128,9.884,9.884,0,0,0-2.575-4.03,4.939,4.939,0,0,0-4.483-1.233c0-.055.035-.146.044-.2h0a5.56,5.56,0,0,1,.932-1.929l0,0,0,0c6.745,2.212,11.315,1.506,11.85,1.412l.053-.01C804.389,796.045,804.832,797.266,804.832,797.266Z" transform="translate(-791.318 -794.243)"/></g><g transform="translate(70.572 8.194)"><path class="c" d="M855.191,624.467a2.337,2.337,0,0,1,.022-.823,3.808,3.808,0,0,0,.015-.976,8.957,8.957,0,0,1,.169-1.563,6.7,6.7,0,0,0,.552-.848c.05-.215.1-.664.282-.611s.254.468.254.468a.276.276,0,0,1,.234-.2.477.477,0,0,1,.448.182s.187-.157.332-.123a.6.6,0,0,1,.414.258.557.557,0,0,1,.377.039.508.508,0,0,1,.275.4s.356.08.389.281a1.757,1.757,0,0,1-.069.525,5.876,5.876,0,0,1-1.364,2.187,2.608,2.608,0,0,0-.724,1.9Z" transform="translate(-855.164 -619.642)"/></g><g transform="translate(37.434 51.063)"><path class="c" d="M727.815,789.192a2.32,2.32,0,0,0-.705.423,3.778,3.778,0,0,1-.842.493,8.9,8.9,0,0,0-1.277.916,6.785,6.785,0,0,1-.468.9c-.163.149-.53.411-.394.546s.533-.008.533-.008a.275.275,0,0,0-.056.3c.162.3.378.3.378.3s-.043.24.056.35a.6.6,0,0,0,.428.233.558.558,0,0,0,.22.31.506.506,0,0,0,.486.042s.245.271.436.2a1.718,1.718,0,0,0,.423-.318,5.87,5.87,0,0,0,1.234-2.263,2.609,2.609,0,0,1,1.3-1.567Z" transform="translate(-724.099 -789.192)"/></g><g transform="translate(37.918 53.188)"><path class="f" d="M726.134,798.607s.759-.995,1.19-1.01.176.36.176.36.245-.375.569-.211,0,.587,0,.587a.362.362,0,0,1,.52.043c.256.277-.091.567-.091.567s.558-.124.485.336a1.877,1.877,0,0,1-.945,1.2s-.208.081-.436-.2a.5.5,0,0,1-.706-.352s-.63-.086-.485-.583A.437.437,0,0,1,726.134,798.607Z" transform="translate(-726.014 -797.597)"/></g><path class="p" d="M821.816,657.038a37.11,37.11,0,0,0,2.226-2.99,30.108,30.108,0,0,0,2.1-5.889c.27-1.406,3.794-10.721,3.794-10.721l2.426.246s-2.868,9.445-3.138,10.223c-.4,1.147-1.524,5.382-1.825,6.343-.242.772-.988,2.673-1.258,3.791-.244,1.007-1.064,3.5-1.064,3.5Z" transform="translate(-759.675 -624.745)"/><path class="q" d="M806.928,808.129s-1.472,1.8-12.119,1.8c0,0-6.362-12.681-4.075-16.353,2.011-3.229,12.236-1.038,12.236-1.038S805.3,796.247,806.928,808.129Z" transform="translate(-736.081 -740.088)"/><g transform="translate(51.983 31.68)"><path class="p" d="M789.426,712.532a17.349,17.349,0,0,0,2.321.6c.583.04,3.159,2.621,3.68,3.617s.338,2.616-.221,4.561.271,2.461.145,4.351,1.17,6.943,1.37,7.957-10.55,3.913-12.906,2.321c0,0,1.364-5.968,1.578-6.458a7.705,7.705,0,0,0-.554-4.916c-.34-.6-2.068-4.205-2.068-4.205s-1.888-4.324-.781-5.438c.962-.969,3.836-1.64,4.336-1.89A9,9,0,0,1,789.426,712.532Z" transform="translate(-781.641 -712.531)"/></g><g transform="translate(53.561 19.953)"><path class="c" d="M789.438,667.115c.834-.621,4.026-2.5,6.2,1.65s.72,8.036-1.772,7.9-4.818-2.753-5.671-5.034A3.632,3.632,0,0,1,789.438,667.115Z" transform="translate(-787.885 -666.15)"/></g><g transform="translate(53.147 19.604)"><path class="r" d="M794.417,667.734s-1-3.82-4.787-2.787-3.835,4.428-2.83,6.579a5.761,5.761,0,0,0,2.923,2.855s-.7-1.776-.12-2.474,3.2-2.544,3.79-5.129A3.513,3.513,0,0,1,794.417,667.734Z" transform="translate(-786.245 -664.771)"/></g><g transform="translate(51.292 20.583)"><path class="r" d="M784.143,671.678a2.641,2.641,0,1,1-2.568-3.037A2.824,2.824,0,0,1,784.143,671.678Z" transform="translate(-778.909 -668.641)"/></g><g transform="translate(56.295 27.894)"><path class="c" d="M802.707,699.353a39.448,39.448,0,0,0,.256,4.015s-1.481,1.924-3.894-1.521a5.115,5.115,0,0,0-.263-3.625C797.926,696.226,802.707,699.353,802.707,699.353Z" transform="translate(-798.698 -697.556)"/></g><g transform="translate(58.615 33.705)"><path class="c" d="M809.816,720.542l.2,1.558-2.147-1.211Z" transform="translate(-807.87 -720.542)"/></g><g transform="translate(55.593 25.62)"><path class="c" d="M796.962,688.774a.6.6,0,0,0-.93.02c-.2.279-.17.918.483,1.555S798.8,691.064,796.962,688.774Z" transform="translate(-795.922 -688.565)"/></g><g transform="translate(56.977 29.468)"><path class="m" d="M804.74,704.674l.016.6s-1.314.438-3.362-1.491A3.871,3.871,0,0,0,804.74,704.674Z" transform="translate(-801.394 -703.782)"/></g><path class="p" d="M800.015,711.026a6.2,6.2,0,0,0,3.52-.164l.262.86.456,3.531s-2.622-.9-3.572-2.114c-.074-.094-.943-1.3-.943-1.3Z" transform="translate(-743.179 -679.604)"/><g transform="translate(40.518 33.091)"><path class="p" d="M749.839,718.112a4.874,4.874,0,0,0-2.277,1.291,10.017,10.017,0,0,0-1.639,3.009c-.245.536-3.281,5.75-3.459,5.861s-1.619,2.009-2.777,3.6c-1.244,1.713-3.388,4.627-3.388,4.627l1.924,1.531s4.787-5.636,5.969-7.207c1.262-1.679,5.764-6.608,5.764-6.608S753.523,719.458,749.839,718.112Z" transform="translate(-736.299 -718.112)"/></g><path class="s" d="M837.106,941.789c-2.148-1.877-1.574-3.8-1.574-3.8a3.189,3.189,0,0,0-1.557-.131c-.7.174-1.071,1.838-.792,2.37l.217,2.727h.355l-.116-1.482c.414,1.408.808,3.175,1.761,3.454,1.278.373,3.312.152,3.545-.283S837.106,941.789,837.106,941.789Z" transform="translate(-768.099 -849.164)"/><g transform="translate(65.717 88.485)"><path class="c" d="M837.676,937.555a17.582,17.582,0,0,0,.549,2.037c.3.838,1.73,2.687,1.689,2.928a2.289,2.289,0,0,1-2.317.024,6.393,6.393,0,0,1-1.485-3.344,15.535,15.535,0,0,1-.152-1.708A1.327,1.327,0,0,1,837.676,937.555Z" transform="translate(-835.96 -937.199)"/></g><path class="c" d="M746.777,863.32a6.1,6.1,0,0,0-1.837-.178c-.517.131-3.482.23-3.941.669s-1.25,1.4-1.495,1.288-1.307-.837-.309-2.3,1.3-1.825,1.9-1.924a8.143,8.143,0,0,0,2.864-1.134l-1.832-1.248.262-.385a17.068,17.068,0,0,0,3.161,1.187c.639.006,2.04,1.416,2.188,2.617A1.221,1.221,0,0,1,746.777,863.32Z" transform="translate(-697.63 -789.618)"/><path class="t" d="M740.709,863.81s.927-1.756,1.938-2.059,2.927-.222,3.925-1.559c0,0-.274-.933-2.266-1.154a21.776,21.776,0,0,1-2.206-.932l-.262.385,1.832,1.248a9.487,9.487,0,0,1-3.286,1.122s-2.419,2.449-1.933,3.586a1.4,1.4,0,0,0,.737.769C739.7,865.389,740.709,863.81,740.709,863.81Z" transform="translate(-697.341 -789.618)"/><g transform="translate(60.503)"><g transform="translate(15.185 8.639)"><rect class="u" width="6.98" height="3.218" transform="translate(0 6.361) rotate(-65.685)"/></g><path class="v" d="M820.013,587.967q-.194-.1-.4-.191l-4.279,9.472c.135.059.27.116.405.169a3.044,3.044,0,0,0,6.06.376,5.186,5.186,0,0,0,1.1-.524,4.243,4.243,0,0,1,2.438-.433l4.807,2.171c-.319,1.174-.07,2.263.657,2.609l2.315-5.123c-.741-.316-1.722.217-2.393,1.231l-4.806-2.171a4.248,4.248,0,0,1-1.287-2.115,5.172,5.172,0,0,0-.333-1.17,3.044,3.044,0,0,0-4.286-4.3Zm.76,10.3a2.178,2.178,0,0,1-4.134-.542,9.145,9.145,0,0,0,4.223.308A2.235,2.235,0,0,1,820.773,598.27Zm3.2-7.092a2.159,2.159,0,0,1-.116.221,9.143,9.143,0,0,0-3.023-2.966,2.178,2.178,0,0,1,3.139,2.745Z" transform="translate(-815.339 -587.235)"/><g transform="translate(0 5.031)"><path class="w" d="M824.632,608.3a5.173,5.173,0,0,0-.333-1.17c-2,3.947-8.062,2.991-8.062,2.991l-.9,1.99c.135.059.27.116.405.169a3.044,3.044,0,0,0,6.06.376,5.173,5.173,0,0,0,1.1-.523,4.242,4.242,0,0,1,2.438-.433l4.807,2.171c-.319,1.174-.07,2.263.657,2.609l2.315-5.123c-.741-.316-1.722.217-2.393,1.231l-4.806-2.171A4.248,4.248,0,0,1,824.632,608.3Zm-3.859,4.833a2.178,2.178,0,0,1-4.134-.542,9.146,9.146,0,0,0,4.223.308A2.247,2.247,0,0,1,820.773,613.137Z" transform="translate(-815.339 -607.134)"/></g></g><g transform="translate(71.459 8.453)"><path class="f" d="M859.014,620.98s-.493,1.151-.295,1.533.4-.025.4-.025-.206.4.1.6.512-.285.512-.285a.362.362,0,0,0,.294.431c.367.087.449-.357.449-.357s.166.547.531.257a1.878,1.878,0,0,0,.578-1.412s-.031-.221-.39-.281a.5.5,0,0,0-.653-.442s-.385-.505-.746-.135A.437.437,0,0,0,859.014,620.98Z" transform="translate(-858.672 -620.666)"/></g></g><g transform="translate(7.405 23.702)"><path class="c" d="M494.654,718.11s-.66-1.151-.756-1.33a3.2,3.2,0,0,1,.085-1.382,3.7,3.7,0,0,1,.679-1.495.569.569,0,0,1,.47-.075,1.1,1.1,0,0,1,.488.267.668.668,0,0,1,.617.185.58.58,0,0,1,.579.287.486.486,0,0,1,.491.215,4.383,4.383,0,0,0-.017.779,13.2,13.2,0,0,1-.651,2.756S496.075,718.944,494.654,718.11Z" transform="translate(-467.994 -705.507)"/><path class="x" d="M499.244,722.793a3.274,3.274,0,0,1,.623.591c.092.189,1.314-.687,1.314-.687S499.75,722.16,499.244,722.793Z" transform="translate(-472.025 -711.99)"/><g transform="translate(15.374)"><g transform="translate(15.407 8.084)"><rect class="q" width="6.98" height="3.218" transform="translate(0 6.492) rotate(-68.441)"/></g><path class="v" d="M456.615,681.806c-.132-.059-.266-.118-.4-.173l-3.819,9.666c.137.053.274.1.412.149a3.045,3.045,0,0,0,6.071.085,5.151,5.151,0,0,0,1.071-.577,4.249,4.249,0,0,1,2.415-.548l4.9,1.938c-.261,1.187.039,2.263.782,2.574l2.065-5.228c-.755-.281-1.709.3-2.33,1.344l-4.9-1.938a4.251,4.251,0,0,1-1.388-2.052,5.164,5.164,0,0,0-.388-1.153,3.045,3.045,0,0,0-4.489-4.089Zm1.254,10.254a2.178,2.178,0,0,1-4.155-.342,9.144,9.144,0,0,0,4.233.105A1.978,1.978,0,0,1,457.869,692.06Zm2.86-7.238a2.09,2.09,0,0,1-.1.227,9.148,9.148,0,0,0-3.163-2.817,2.178,2.178,0,0,1,3.267,2.59Z" transform="translate(-452.393 -680.977)"/><g transform="translate(0 4.918)"><path class="w" d="M461.493,701.582a5.161,5.161,0,0,0-.388-1.153c-1.81,4.039-7.91,3.375-7.91,3.375l-.8,2.03c.137.053.274.1.412.15a3.045,3.045,0,0,0,6.071.085,5.145,5.145,0,0,0,1.071-.577,4.249,4.249,0,0,1,2.415-.548l4.9,1.938c-.261,1.187.039,2.263.782,2.574l2.065-5.228c-.755-.281-1.709.3-2.33,1.344l-4.9-1.938A4.251,4.251,0,0,1,461.493,701.582Zm-3.623,5.012a2.178,2.178,0,0,1-4.155-.342,9.144,9.144,0,0,0,4.233.105A1.978,1.978,0,0,1,457.869,706.594Z" transform="translate(-452.393 -700.429)"/></g></g><path class="c" d="M394.289,864.188a1.671,1.671,0,0,0,.253,1.011c.286.287,1.257.93,1.257,1.484a1.231,1.231,0,0,1-.5,1.075c-.257.176.019,1.242-.534,1.357a1.353,1.353,0,0,1-1.3-.42c-.21-.287-.65-.1-1.051-.592s-1.184-.822-.631-2.369.975-2.839.975-2.839Z" transform="translate(-391.589 -816.899)"/><path class="f" d="M496.539,714s-.271,1.631-.014,1.707a.42.42,0,0,0,.4-.053l.193.722s.4.406.723-.146c0,0,.332.418.583-.152,0,0,.342.177.505-.066a5.487,5.487,0,0,0,.294-1.3s-.072-.236-.491-.215a.57.57,0,0,0-.579-.287.627.627,0,0,0-.617-.185s-.474-.542-.958-.192C496.577,713.838,496.55,713.936,496.539,714Z" transform="translate(-469.91 -705.441)"/><path class="c" d="M494.05,721.428a5.619,5.619,0,0,1,1.264-1.247.343.343,0,0,1,.4-.031c.12.1.136.39-.137.8a4.16,4.16,0,0,0-.437,1.064S494.732,722.353,494.05,721.428Z" transform="translate(-468.144 -710.207)"/><g transform="translate(6.4 81.89)"><path class="y" d="M419.435,1004.855s-.553,2.344-.775,3.116-1.458,2.427-1.679,3.2.065,1.189.434,1.274a4.25,4.25,0,0,0,2.476-.16c1.145-.429,1.712-2.083,2.33-3,.58-.855,1.243-1.107.883-2.287a4.394,4.394,0,0,1-.29-2.147Z" transform="translate(-416.903 -1004.855)"/></g><g transform="translate(22.43 70.665)"><path class="z" d="M483.677,961.927l-.551,1.157-2.825-1.467.552-1.157Z" transform="translate(-480.301 -960.46)"/></g><g transform="translate(20.531 71.822)"><path class="y" d="M474.69,965.037a25.473,25.473,0,0,1,2.995,1.111c.634.373,1.17,2.229,2.879,3.272s1.551,2.227,1.27,2.391-5.282-2.165-6.267-2.81l-.552-.6-.617.124-1.606-.834S473.361,965.591,474.69,965.037Z" transform="translate(-472.791 -965.037)"/></g><g transform="translate(8.039 43.279)"><path class="aa" d="M426.622,854.59a29.67,29.67,0,0,0-.921,6.035c0,2.523.242,10.4,0,11.643s-.691,7.014-.761,8.05-1.554,12.265-1.554,12.265,1.658,1,5.286.276c0,0,.207-11.678.414-13.4s.829-7.394,1.244-8.015,4.008-15.652,3.49-18.381S426.622,854.59,426.622,854.59Z" transform="translate(-423.386 -852.146)"/></g><g transform="translate(16.454 43.506)"><path class="aa" d="M462.036,853.259s8.983,7.486,9.951,9.109,1.589,1.832,1.174,3.559-6.53,15.651-6.53,16.1-4.265-1.375-4.542-1.409,1.605-2.7,2.192-4.4,3.161-8.569,3.645-9.432-9.726-6.15-10.8-7.428S456.508,851.819,462.036,853.259Z" transform="translate(-456.665 -853.045)"/></g><g transform="translate(0.579 12.449)"><path class="ab" d="M393.878,765.044s1.6,1.049,2.189.812,2.907-8.847,3.168-10.122a23.661,23.661,0,0,1,2.282-4.485l0,.005s0,0,0,0l0,.005a32.959,32.959,0,0,1,2.138,5.217c.386,1.736,1.491,4.869,1.491,4.869l.552-.032,9.178-.543.823-.049a3.2,3.2,0,0,0-.009-2.031c-.217-.852-.647-2.451-.906-3.961,0-.008,0-.016,0-.024s-.006-.039-.01-.057,0-.015,0-.023c-.139-.83-.781-1.433-.747-2.058a8.316,8.316,0,0,0-.512-3.24l-.6-3.278c.123.17,3.981-4.4,4.5-4.321s3.738-9.947,4.155-10.531c.446-.623-1.866-.986-1.866-.986l-2.712,8.408-3.423,3.644a7.4,7.4,0,0,1-1.864.05c-1.073-.268-2.565-.622-3.522-.848l-.938-.219s-3.727.387-4.008.462a8.938,8.938,0,0,0-1.025.6,29.845,29.845,0,0,0-3.2,2.233c-.478.513-2.587,9.475-2.8,10.123S393.878,765.044,393.878,765.044Z" transform="translate(-393.878 -730.215)"/></g><g transform="translate(11.777 42.958)"><path class="ac" d="M448.8,850.879s.293.235.6,1.419c0,0-9.946.824-11.063.585,0,0-.306-1.311-.092-1.378C438.479,851.432,448.8,850.879,448.8,850.879Z" transform="translate(-438.168 -850.879)"/></g><g transform="translate(9.791 19.991)"><path class="c" d="M430.408,763.664c.337,1.519,3.458,1.758,3.458,1.758s.924-1.8.6-1.886c-.127-.035-.221-.257-.288-.513a5.606,5.606,0,0,1-.123-.7c-.013-.109-.018-.181-.018-.181s-.511-.36-1.155-.782c-1.125-.738-2.653-1.667-2.56-1.193a.478.478,0,0,0,.029.087A8.748,8.748,0,0,1,430.408,763.664Z" transform="translate(-430.315 -760.044)"/></g><g transform="translate(21.098 42.965)"><path class="ad" d="M475.5,850.907s.416,1.182.512,1.64l-.488.034s-.4-1.5-.489-1.646Z" transform="translate(-475.032 -850.907)"/></g><g transform="translate(10.571 21.149)"><path class="m" d="M433.4,764.623h0c.007.008.17.169.439.4a6.319,6.319,0,0,0,2.643,1.427,5.619,5.619,0,0,1-.123-.7,1.523,1.523,0,0,0,.286-.094,9.25,9.25,0,0,0-.832-.811l-.628-.058Z" transform="translate(-433.398 -764.623)"/></g><g transform="translate(8.012 14.573)"><path class="c" d="M425.044,744.185c.368.5.691.858.792,1h0a2.022,2.022,0,0,0,.439.4,3.472,3.472,0,0,0,2.52.731,1.513,1.513,0,0,0,.286-.094,1.421,1.421,0,0,0,.874-.907,8.146,8.146,0,0,0-.812-6.658s-5.324-.41-5.807,1.266C423,741.1,424.18,743,425.044,744.185Z" transform="translate(-423.277 -738.613)"/></g><g transform="translate(6.919 12.283)"><path class="ae" d="M425.912,731.891s.463-.121.4-1.031-.343-1.095-.343-1.095a5.633,5.633,0,0,1-2.854-.149c-.751-.172-2.8.033-3.129.613,0,0-1.1-.032-1.031,1.76.1,2.846,2.635,5.119,2.635,5.119s-.379-1.8-.031-2.114.806.18.806.18l.841-.019s-1.77-2.413-.311-2.81S425.1,732.216,425.912,731.891Z" transform="translate(-418.953 -729.556)"/></g><g transform="translate(8.665 16.601)"><path class="c" d="M427.36,747.219c-.237-.777-1.731-.791-1.468.021s1.13,1.467,1.451,1.373S427.54,747.811,427.36,747.219Z" transform="translate(-425.861 -746.633)"/></g><g transform="translate(0.519 24.543)"><path class="g" d="M399.059,791.47c-.331,1.26-2.3,9.627-2.9,9.865s-2.521-.85-2.521-.85,2.18-9.436,2.392-10.083,2.322-9.61,2.8-10.123a24.071,24.071,0,0,1,2.63-1.87c.2-.128.389-.251.566-.363.3.227,5.217,3.943,5.649,8.028.13,1.227.374,3.222.458,5.357a20.768,20.768,0,0,1-.564,6.029,16.519,16.519,0,0,1-3.126,6.724l-4.621-2.733a.9.9,0,0,1-.3-1.262c1.221-1.908,3.866-5.365,3.438-7.5a47.989,47.989,0,0,0-1.622-5.7A25.424,25.424,0,0,0,399.059,791.47Z" transform="translate(-393.642 -778.046)"/></g><g transform="translate(14.859 12.283)"><path class="g" d="M459.35,737.106l2.354-7.551s2.638.027,2.6.572c-.025.344-1.865,8.276-2.317,8.963-.323.49-6.043,7.621-6.166,7.451l.333,2.331c.6,2.581.617,4.434,1.179,6.417,1.083,3.823,3.708,6.781,4.506,8.244a.794.794,0,0,1-.009.81l-.506.976s-3.366-3.222-3.921-4.988c-.537-1.705-1.566-4-2.28-6.224h0c-.906-2.823-1.819-5.616-2.4-7.249a49.235,49.235,0,0,0-2.368-5.86l.019-.023a7.206,7.206,0,0,0,1.064.252c.888.083,3.063,0,3.812-.024C455.253,741.2,458.508,738.549,459.35,737.106Z" transform="translate(-450.359 -729.555)"/></g><g transform="translate(8.341 24.543)"><path class="af" d="M426.726,781.667l1.6.52-.487.75,3.412,8.494c-.083-2.135-.328-4.13-.458-5.357-.432-4.085-5.345-7.8-5.649-8.028-.178.112-.369.234-.566.363Z" transform="translate(-424.577 -778.046)"/></g><g transform="translate(14.829 23.692)"><path class="af" d="M450.24,774.679a47.586,47.586,0,0,1,2.4,5.894c.578,1.633,1.491,4.425,2.4,7.249L453.7,779.49l-.834-.6.455-.883-1.972-3.062-1.064-.252Z" transform="translate(-450.24 -774.679)"/></g><g transform="translate(2.911 24.906)"><path class="g" d="M408.532,779.481c-1.08.7-3.209,1.878-3.485,2.176-.478.512-1.732,9.169-1.945,9.817Z" transform="translate(-403.102 -779.481)"/></g><g transform="translate(17.335 43.06)"><path class="ag" d="M460.151,851.377s1.465-.117,1.961-.094l.261,1.615-1.912.177Z" transform="translate(-460.151 -851.279)"/></g><g transform="translate(1.941 26.39)"><path class="ah" d="M411.832,785.417s.479,4.412-2.72,5.624-7.177,4.429-8.232,6.019l-1.269,2.05-.346-1.982s.09-3.372,9.651-6.432c0,0,2.79-.628,1.889-5.19C410.805,785.507,411.818,785.223,411.832,785.417Z" transform="translate(-399.265 -785.349)"/></g><g transform="translate(13.055 25.368)"><path class="ah" d="M444.927,782.387a1.734,1.734,0,0,1-1.706.453s.073-1.434.274-1.524S444.98,782.118,444.927,782.387Z" transform="translate(-443.221 -781.309)"/></g><g transform="translate(8.838 23.612)"><path class="ai" d="M426.546,775.329l1.045-.964s.165.647,3.458,1.758l-.362,2.529Z" transform="translate(-426.546 -774.365)"/></g><g transform="translate(13.342 23.182)"><path class="ai" d="M444.733,772.664a5.657,5.657,0,0,1-.375,2.188l2.064,1.8-.577-3.481Z" transform="translate(-444.358 -772.664)"/></g></g></g></g></svg>